<svg width="92" height="20" viewBox="0 0 92 20" fill="none" xmlns="http://www.w3.org/2000/svg">
<g clip-path="url(#clip0)">
<path d="M59.3007 2.57767L58.8741 0.0777893L57.5234 2.37583L56.3806 1.05051L56.1035 3.11753H60.269L60.952 1.65845L59.3007 2.57767ZM58.5873 1.99283L58.2978 1.63535L58.7632 0.756258L58.9669 1.70831L58.5873 1.99283Z" fill="#ADACA8"/>
<path d="M59.4285 2.5777L58.9118 0L57.6872 2.38802L56.3809 0.986094L56.7964 3.11756H60.3981L61.0908 1.49799L59.4285 2.5777ZM58.7137 1.99286L58.4255 1.63538L58.8896 0.756288L59.0946 1.70834L58.7137 1.99286Z" fill="#FF9F48"/>
<path d="M11.9771 18.3177H0L3.73053 3.24063H15.7062L14.9956 6.06637H6.6493L5.86247 9.25324H14.0356L13.3249 12.079H5.15182L4.32066 15.492H12.6614L11.9771 18.3177Z" fill="#ADACA8"/>
<path d="M33.1387 18.3164H29.5065L32.1953 7.44389L24.7398 18.3164H23.1661L21.0882 7.44389L18.3966 18.3164H14.7949L18.5241 3.23932H23.4473L25.1983 12.6649L31.6661 3.23932H36.8692L33.1387 18.3164Z" fill="#ADACA8"/>
<path d="M40.0919 18.3164H36.4902L40.2194 3.23932H47.6541C49.177 3.23932 50.3951 3.64259 51.3085 4.44914C51.755 4.83669 52.1068 5.3001 52.3424 5.81104C52.5779 6.32199 52.6923 6.86973 52.6785 7.42079C52.6752 8.04274 52.5506 8.65961 52.31 9.24463C52.0456 9.8867 51.6638 10.4867 51.1796 11.0211C50.6763 11.5885 49.9449 12.0538 48.9854 12.4169C47.9351 12.7943 46.8079 12.9788 45.6732 12.9592H41.4356L40.0919 18.3164ZM42.1214 10.1335H45.9018C46.7809 10.1335 47.4999 9.90729 48.0586 9.45498C48.3303 9.24269 48.5462 8.98123 48.6916 8.68861C48.837 8.396 48.9084 8.07919 48.9009 7.76002C48.9082 7.53244 48.8598 7.30614 48.7589 7.09638C48.6581 6.88663 48.5071 6.69831 48.3163 6.54412C47.9275 6.22799 47.4196 6.06993 46.7925 6.06993H43.1368L42.1214 10.1335Z" fill="#ADACA8"/>
<path d="M55.924 18.3164H52.3223L56.0528 3.23932H59.6545L55.924 18.3164Z" fill="#ADACA8"/>
<path d="M72.9738 18.3163H68.9856L66.9811 12.959H64.1939L62.8751 18.3163H59.2734L63.0012 3.23917H70.2323C71.5826 3.21632 72.8942 3.63546 73.9116 4.41494C74.9432 5.19798 75.4589 6.22257 75.4589 7.48873C75.4589 8.83027 75.0064 9.98294 74.1014 10.9467C73.2334 11.8925 72.0019 12.5276 70.6382 12.7329L72.9738 18.3163ZM68.6351 10.1333H68.685C69.6159 10.1333 70.3478 9.91849 70.8806 9.48887C71.4135 9.05926 71.6799 8.49792 71.6799 7.80486C71.6849 7.56951 71.6306 7.3361 71.5209 7.12129C71.4113 6.90648 71.2489 6.71558 71.0455 6.56221C70.6367 6.23513 70.1011 6.05727 69.548 6.06491H65.92L64.9046 10.1333H68.6351Z" fill="#ADACA8"/>
<path d="M87.5636 18.3164H75.5879L79.317 3.23932H91.2885L90.5779 6.06506H82.2358L81.4531 9.25193H89.6262L88.9156 12.0777H80.7425L79.9044 15.4907H88.2534L87.5636 18.3164Z" fill="#ADACA8"/>
<path d="M12.755 18.3164H0.789062L4.51544 3.23932H16.4842L15.7735 6.06506H7.43421L6.64876 9.25193H14.808L14.0987 12.0777H5.93535L5.10418 15.4907H13.4366L12.755 18.3164Z" fill="white"/>
<path d="M12.755 18.3164H0.789062L4.51544 3.23932H16.4842L15.7735 6.06506H7.43421L6.64876 9.25193H14.808L14.0987 12.0777H5.93535L5.10418 15.4907H13.4366L12.755 18.3164Z" fill="url(#paint0_linear)"/>
<path d="M33.8983 18.3164H30.273L32.9604 7.44389L25.5077 18.3164H23.9354L21.8575 7.44389L19.1701 18.3164H15.5684L19.2947 3.23932H24.2124L25.962 12.6649L32.4271 3.23932H37.6246L33.8983 18.3164Z" fill="white"/>
<path d="M33.8983 18.3164H30.273L32.9604 7.44389L25.5077 18.3164H23.9354L21.8575 7.44389L19.1701 18.3164H15.5684L19.2947 3.23932H24.2124L25.962 12.6649L32.4271 3.23932H37.6246L33.8983 18.3164Z" fill="url(#paint1_linear)"/>
<path d="M40.8439 18.3164H37.2422L40.9686 3.23932H48.3964C49.9174 3.23932 51.1346 3.64259 52.048 4.44914C52.4941 4.83692 52.8455 5.3004 53.0808 5.81131C53.3161 6.32222 53.4304 6.86984 53.4166 7.42079C53.4133 8.04274 53.2887 8.65961 53.0481 9.24463C52.7845 9.88627 52.4042 10.4862 51.9219 11.0211C51.4149 11.5885 50.6849 12.0538 49.7318 12.4169C48.6829 12.7942 47.5571 12.9788 46.4238 12.9592H42.1876L40.8439 18.3164ZM42.8719 10.1335H46.6496C47.5278 10.1335 48.2459 9.90729 48.8037 9.45498C49.0733 9.2418 49.2872 8.97993 49.4306 8.68736C49.5741 8.39479 49.6438 8.07844 49.6348 7.76002C49.6424 7.53252 49.5943 7.30625 49.4936 7.09649C49.393 6.88673 49.2423 6.69837 49.0516 6.54412C48.6333 6.21818 48.0867 6.04809 47.5278 6.06993H43.8859L42.8719 10.1335Z" fill="white"/>
<path d="M40.8439 18.3164H37.2422L40.9686 3.23932H48.3964C49.9174 3.23932 51.1346 3.64259 52.048 4.44914C52.4941 4.83692 52.8455 5.3004 53.0808 5.81131C53.3161 6.32222 53.4304 6.86984 53.4166 7.42079C53.4133 8.04274 53.2887 8.65961 53.0481 9.24463C52.7845 9.88627 52.4042 10.4862 51.9219 11.0211C51.4149 11.5885 50.6849 12.0538 49.7318 12.4169C48.6829 12.7942 47.5571 12.9788 46.4238 12.9592H42.1876L40.8439 18.3164ZM42.8719 10.1335H46.6496C47.5278 10.1335 48.2459 9.90729 48.8037 9.45498C49.0733 9.2418 49.2872 8.97993 49.4306 8.68736C49.5741 8.39479 49.6438 8.07844 49.6348 7.76002C49.6424 7.53252 49.5943 7.30625 49.4936 7.09649C49.393 6.88673 49.2423 6.69837 49.0516 6.54412C48.6333 6.21818 48.0867 6.04809 47.5278 6.06993H43.8859L42.8719 10.1335Z" fill="url(#paint2_linear)"/>
<path d="M56.6583 18.3164H53.0566L56.783 3.23932H60.3847L56.6583 18.3164Z" fill="white"/>
<path d="M56.6583 18.3164H53.0566L56.783 3.23932H60.3847L56.6583 18.3164Z" fill="url(#paint3_linear)"/>
<path d="M73.6965 18.3163H69.7166L67.7149 12.959H64.9263L63.6076 18.3163H60.0059L63.7322 3.23914H70.9578C72.3068 3.21626 73.6171 3.63547 74.6329 4.41491C75.6636 5.19795 76.1793 6.22255 76.1803 7.4887C76.1803 8.83024 75.7282 9.98291 74.8241 10.9467C73.9561 11.8925 72.7246 12.5276 71.3609 12.7329L73.6965 18.3163ZM69.362 10.1333H69.4132C70.3367 10.1333 71.0677 9.91847 71.6061 9.48885C71.8698 9.27542 72.0777 9.01436 72.2155 8.72364C72.3532 8.43293 72.4175 8.11946 72.404 7.80483C72.409 7.5696 72.3548 7.3363 72.2454 7.12153C72.136 6.90675 71.974 6.71577 71.771 6.56218C71.3624 6.2355 70.8275 6.05767 70.2749 6.06488H66.6496L65.6356 10.1333H69.362Z" fill="white"/>
<path d="M73.6965 18.3163H69.7166L67.7149 12.959H64.9263L63.6076 18.3163H60.0059L63.7322 3.23914H70.9578C72.3068 3.21626 73.6171 3.63547 74.6329 4.41491C75.6636 5.19795 76.1793 6.22255 76.1803 7.4887C76.1803 8.83024 75.7282 9.98291 74.8241 10.9467C73.9561 11.8925 72.7246 12.5276 71.3609 12.7329L73.6965 18.3163ZM69.362 10.1333H69.4132C70.3367 10.1333 71.0677 9.91847 71.6061 9.48885C71.8698 9.27542 72.0777 9.01436 72.2155 8.72364C72.3532 8.43293 72.4175 8.11946 72.404 7.80483C72.409 7.5696 72.3548 7.3363 72.2454 7.12153C72.136 6.90675 71.974 6.71577 71.771 6.56218C71.3624 6.2355 70.8275 6.05767 70.2749 6.06488H66.6496L65.6356 10.1333H69.362Z" fill="url(#paint4_linear)"/>
<path d="M88.2726 18.3164H76.3066L80.033 3.23932H91.999L91.2883 6.06506H82.949L82.1622 9.25193H90.3256L89.6163 12.0777H81.4529L80.6218 15.4907H88.9625L88.2726 18.3164Z" fill="white"/>
<path d="M88.2726 18.3164H76.3066L80.033 3.23932H91.999L91.2883 6.06506H82.949L82.1622 9.25193H90.3256L89.6163 12.0777H81.4529L80.6218 15.4907H88.9625L88.2726 18.3164Z" fill="url(#paint5_linear)"/>
</g>
<defs>
<linearGradient id="paint0_linear" x1="8.63662" y1="3.23932" x2="8.44224" y2="18.4472" gradientUnits="userSpaceOnUse">
<stop offset="0.520833" stop-color="#FBFBFB" stop-opacity="0.046875"/>
<stop offset="0.520933" stop-color="#DFDBDB" stop-opacity="0.54"/>
<stop offset="1" stop-color="white" stop-opacity="0"/>
</linearGradient>
<linearGradient id="paint1_linear" x1="26.5965" y1="3.23932" x2="26.4582" y2="18.4485" gradientUnits="userSpaceOnUse">
<stop offset="0.520833" stop-color="#FBFBFB" stop-opacity="0.046875"/>
<stop offset="0.520933" stop-color="#DFDBDB" stop-opacity="0.54"/>
<stop offset="1" stop-color="white" stop-opacity="0"/>
</linearGradient>
<linearGradient id="paint2_linear" x1="45.33" y1="3.23932" x2="45.1413" y2="18.4474" gradientUnits="userSpaceOnUse">
<stop offset="0.520833" stop-color="#FBFBFB" stop-opacity="0.046875"/>
<stop offset="0.520933" stop-color="#DFDBDB" stop-opacity="0.54"/>
<stop offset="1" stop-color="white" stop-opacity="0"/>
</linearGradient>
<linearGradient id="paint3_linear" x1="56.7207" y1="3.23932" x2="56.3046" y2="18.4383" gradientUnits="userSpaceOnUse">
<stop offset="0.520833" stop-color="#FBFBFB" stop-opacity="0.046875"/>
<stop offset="0.520933" stop-color="#DFDBDB" stop-opacity="0.54"/>
<stop offset="1" stop-color="white" stop-opacity="0"/>
</linearGradient>
<linearGradient id="paint4_linear" x1="68.0931" y1="3.23825" x2="67.9044" y2="18.4472" gradientUnits="userSpaceOnUse">
<stop offset="0.520833" stop-color="#FBFBFB" stop-opacity="0.046875"/>
<stop offset="0.520933" stop-color="#DFDBDB" stop-opacity="0.54"/>
<stop offset="1" stop-color="white" stop-opacity="0"/>
</linearGradient>
<linearGradient id="paint5_linear" x1="84.1528" y1="3.23932" x2="83.9584" y2="18.4472" gradientUnits="userSpaceOnUse">
<stop offset="0.520833" stop-color="#FBFBFB" stop-opacity="0.046875"/>
<stop offset="0.520933" stop-color="#DFDBDB" stop-opacity="0.54"/>
<stop offset="1" stop-color="white" stop-opacity="0"/>
</linearGradient>
<clipPath id="clip0">
<rect width="92" height="20" fill="white"/>
</clipPath>
</defs>
</svg>
