<svg width="92" height="20" viewBox="0 0 92 20" fill="none" xmlns="http://www.w3.org/2000/svg">
<g clip-path="url(#clip0)">
<path d="M59.3007 2.57776L58.8741 0.0778809L57.5234 2.37592L56.3806 1.0506L56.1035 3.11762H60.269L60.952 1.65855L59.3007 2.57776ZM58.5873 1.99292L58.2978 1.63544L58.7632 0.75635L58.9669 1.7084L58.5873 1.99292Z" fill="#ADACA8"/>
<path d="M59.4285 2.5777L58.9118 0L57.6872 2.38802L56.3809 0.986094L56.7964 3.11756H60.3981L61.0908 1.49799L59.4285 2.5777ZM58.7137 1.99286L58.4255 1.63538L58.8896 0.756288L59.0946 1.70834L58.7137 1.99286Z" fill="#FF9F48"/>
<path d="M11.9771 18.3178H0L3.73053 3.24072H15.7062L14.9956 6.06647H6.6493L5.86247 9.25333H14.0356L13.3249 12.0791H5.15182L4.32066 15.4921H12.6614L11.9771 18.3178Z" fill="#ADACA8"/>
<path d="M33.1382 18.3164H29.506L32.1948 7.44383L24.7393 18.3164H23.1656L21.0877 7.44383L18.3961 18.3164H14.7944L18.5236 3.23926H23.4468L25.1978 12.6649L31.6656 3.23926H36.8687L33.1382 18.3164Z" fill="#ADACA8"/>
<path d="M40.0915 18.3164H36.4897L40.2189 3.23926H47.6536C49.1765 3.23926 50.3946 3.64253 51.308 4.44908C51.7545 4.83663 52.1063 5.30004 52.3419 5.81098C52.5774 6.32192 52.6918 6.86967 52.678 7.42073C52.6747 8.04268 52.5501 8.65955 52.3095 9.24457C52.0451 9.88664 51.6633 10.4866 51.1792 11.021C50.6758 11.5884 49.9444 12.0537 48.9849 12.4168C47.9346 12.7942 46.8074 12.9787 45.6727 12.9591H41.4352L40.0915 18.3164ZM42.1209 10.1334H45.9013C46.7805 10.1334 47.4994 9.90723 48.0581 9.45492C48.3298 9.24263 48.5457 8.98117 48.6912 8.68855C48.8366 8.39594 48.9079 8.07913 48.9004 7.75996C48.9077 7.53238 48.8593 7.30608 48.7584 7.09632C48.6576 6.88657 48.5067 6.69824 48.3158 6.54406C47.927 6.22793 47.4191 6.06986 46.792 6.06986H43.1363L42.1209 10.1334Z" fill="#ADACA8"/>
<path d="M55.9235 18.3164H52.3218L56.0523 3.23926H59.654L55.9235 18.3164Z" fill="#ADACA8"/>
<path d="M72.9743 18.3163H68.9861L66.9816 12.959H64.1944L62.8756 18.3163H59.2739L63.0017 3.23917H70.2328C71.5831 3.21632 72.8946 3.63546 73.9121 4.41494C74.9437 5.19798 75.4594 6.22257 75.4594 7.48873C75.4594 8.83027 75.0069 9.98294 74.1019 10.9467C73.2339 11.8925 72.0024 12.5276 70.6387 12.7329L72.9743 18.3163ZM68.6356 10.1333H68.6855C69.6164 10.1333 70.3482 9.91849 70.8811 9.48887C71.414 9.05926 71.6804 8.49792 71.6804 7.80486C71.6854 7.56951 71.6311 7.3361 71.5214 7.12129C71.4118 6.90648 71.2494 6.71558 71.046 6.56221C70.6372 6.23513 70.1016 6.05727 69.5485 6.06491H65.9205L64.905 10.1333H68.6356Z" fill="#ADACA8"/>
<path d="M87.5645 18.3164H75.5889L79.318 3.23926H91.2895L90.5789 6.065H82.2368L81.4541 9.25187H89.6272L88.9166 12.0776H80.7435L79.9054 15.4906H88.2544L87.5645 18.3164Z" fill="#ADACA8"/>
<path d="M12.7555 18.3164H0.789551L4.51593 3.23926H16.4847L15.774 6.065H7.4347L6.64925 9.25187H14.8085L14.0992 12.0776H5.93583L5.10467 15.4906H13.4371L12.7555 18.3164Z" fill="white"/>
<path d="M12.7555 18.3164H0.789551L4.51593 3.23926H16.4847L15.774 6.065H7.4347L6.64925 9.25187H14.8085L14.0992 12.0776H5.93583L5.10467 15.4906H13.4371L12.7555 18.3164Z" fill="url(#paint0_linear)"/>
<path d="M12.7555 18.3164H0.789551L4.51593 3.23926H16.4847L15.774 6.065H7.4347L6.64925 9.25187H14.8085L14.0992 12.0776H5.93583L5.10467 15.4906H13.4371L12.7555 18.3164Z" fill="black"/>
<path d="M12.7555 18.3164H0.789551L4.51593 3.23926H16.4847L15.774 6.065H7.4347L6.64925 9.25187H14.8085L14.0992 12.0776H5.93583L5.10467 15.4906H13.4371L12.7555 18.3164Z" fill="url(#paint1_linear)"/>
<path d="M33.8978 18.3164H30.2725L32.9599 7.44383L25.5072 18.3164H23.9349L21.857 7.44383L19.1696 18.3164H15.5679L19.2942 3.23926H24.212L25.9616 12.6649L32.4266 3.23926H37.6241L33.8978 18.3164Z" fill="white"/>
<path d="M33.8978 18.3164H30.2725L32.9599 7.44383L25.5072 18.3164H23.9349L21.857 7.44383L19.1696 18.3164H15.5679L19.2942 3.23926H24.212L25.9616 12.6649L32.4266 3.23926H37.6241L33.8978 18.3164Z" fill="url(#paint2_linear)"/>
<path d="M33.8978 18.3164H30.2725L32.9599 7.44383L25.5072 18.3164H23.9349L21.857 7.44383L19.1696 18.3164H15.5679L19.2942 3.23926H24.212L25.9616 12.6649L32.4266 3.23926H37.6241L33.8978 18.3164Z" fill="black"/>
<path d="M33.8978 18.3164H30.2725L32.9599 7.44383L25.5072 18.3164H23.9349L21.857 7.44383L19.1696 18.3164H15.5679L19.2942 3.23926H24.212L25.9616 12.6649L32.4266 3.23926H37.6241L33.8978 18.3164Z" fill="url(#paint3_linear)"/>
<path d="M40.8434 18.3164H37.2417L40.9681 3.23926H48.3959C49.9169 3.23926 51.1341 3.64253 52.0475 4.44908C52.4936 4.83686 52.845 5.30034 53.0803 5.81125C53.3156 6.32216 53.4299 6.86978 53.4161 7.42073C53.4128 8.04268 53.2882 8.65955 53.0476 9.24457C52.784 9.88621 52.4037 10.4861 51.9214 11.021C51.4144 11.5884 50.6844 12.0537 49.7313 12.4168C48.6824 12.7941 47.5566 12.9787 46.4233 12.9591H42.1871L40.8434 18.3164ZM42.8714 10.1334H46.6491C47.5273 10.1334 48.2454 9.90723 48.8032 9.45492C49.0728 9.24173 49.2867 8.97987 49.4302 8.6873C49.5736 8.39473 49.6433 8.07838 49.6343 7.75996C49.6419 7.53246 49.5938 7.30619 49.4932 7.09643C49.3925 6.88667 49.2418 6.6983 49.0511 6.54406C48.6328 6.21812 48.0862 6.04803 47.5273 6.06986H43.8855L42.8714 10.1334Z" fill="white"/>
<path d="M40.8434 18.3164H37.2417L40.9681 3.23926H48.3959C49.9169 3.23926 51.1341 3.64253 52.0475 4.44908C52.4936 4.83686 52.845 5.30034 53.0803 5.81125C53.3156 6.32216 53.4299 6.86978 53.4161 7.42073C53.4128 8.04268 53.2882 8.65955 53.0476 9.24457C52.784 9.88621 52.4037 10.4861 51.9214 11.021C51.4144 11.5884 50.6844 12.0537 49.7313 12.4168C48.6824 12.7941 47.5566 12.9787 46.4233 12.9591H42.1871L40.8434 18.3164ZM42.8714 10.1334H46.6491C47.5273 10.1334 48.2454 9.90723 48.8032 9.45492C49.0728 9.24173 49.2867 8.97987 49.4302 8.6873C49.5736 8.39473 49.6433 8.07838 49.6343 7.75996C49.6419 7.53246 49.5938 7.30619 49.4932 7.09643C49.3925 6.88667 49.2418 6.6983 49.0511 6.54406C48.6328 6.21812 48.0862 6.04803 47.5273 6.06986H43.8855L42.8714 10.1334Z" fill="url(#paint4_linear)"/>
<path d="M40.8434 18.3164H37.2417L40.9681 3.23926H48.3959C49.9169 3.23926 51.1341 3.64253 52.0475 4.44908C52.4936 4.83686 52.845 5.30034 53.0803 5.81125C53.3156 6.32216 53.4299 6.86978 53.4161 7.42073C53.4128 8.04268 53.2882 8.65955 53.0476 9.24457C52.784 9.88621 52.4037 10.4861 51.9214 11.021C51.4144 11.5884 50.6844 12.0537 49.7313 12.4168C48.6824 12.7941 47.5566 12.9787 46.4233 12.9591H42.1871L40.8434 18.3164ZM42.8714 10.1334H46.6491C47.5273 10.1334 48.2454 9.90723 48.8032 9.45492C49.0728 9.24173 49.2867 8.97987 49.4302 8.6873C49.5736 8.39473 49.6433 8.07838 49.6343 7.75996C49.6419 7.53246 49.5938 7.30619 49.4932 7.09643C49.3925 6.88667 49.2418 6.6983 49.0511 6.54406C48.6328 6.21812 48.0862 6.04803 47.5273 6.06986H43.8855L42.8714 10.1334Z" fill="black"/>
<path d="M40.8434 18.3164H37.2417L40.9681 3.23926H48.3959C49.9169 3.23926 51.1341 3.64253 52.0475 4.44908C52.4936 4.83686 52.845 5.30034 53.0803 5.81125C53.3156 6.32216 53.4299 6.86978 53.4161 7.42073C53.4128 8.04268 53.2882 8.65955 53.0476 9.24457C52.784 9.88621 52.4037 10.4861 51.9214 11.021C51.4144 11.5884 50.6844 12.0537 49.7313 12.4168C48.6824 12.7941 47.5566 12.9787 46.4233 12.9591H42.1871L40.8434 18.3164ZM42.8714 10.1334H46.6491C47.5273 10.1334 48.2454 9.90723 48.8032 9.45492C49.0728 9.24173 49.2867 8.97987 49.4302 8.6873C49.5736 8.39473 49.6433 8.07838 49.6343 7.75996C49.6419 7.53246 49.5938 7.30619 49.4932 7.09643C49.3925 6.88667 49.2418 6.6983 49.0511 6.54406C48.6328 6.21812 48.0862 6.04803 47.5273 6.06986H43.8855L42.8714 10.1334Z" fill="url(#paint5_linear)"/>
<path d="M56.6574 18.3164H53.0557L56.782 3.23926H60.3837L56.6574 18.3164Z" fill="white"/>
<path d="M56.6574 18.3164H53.0557L56.782 3.23926H60.3837L56.6574 18.3164Z" fill="url(#paint6_linear)"/>
<path d="M56.6574 18.3164H53.0557L56.782 3.23926H60.3837L56.6574 18.3164Z" fill="black"/>
<path d="M56.6574 18.3164H53.0557L56.782 3.23926H60.3837L56.6574 18.3164Z" fill="url(#paint7_linear)"/>
<path d="M73.6965 18.3163H69.7166L67.7149 12.959H64.9263L63.6076 18.3163H60.0059L63.7322 3.23917H70.9578C72.3068 3.21629 73.6171 3.6355 74.6329 4.41494C75.6636 5.19798 76.1793 6.22258 76.1803 7.48873C76.1803 8.83027 75.7282 9.98294 74.8241 10.9467C73.9561 11.8925 72.7246 12.5276 71.3609 12.7329L73.6965 18.3163ZM69.362 10.1333H69.4132C70.3367 10.1333 71.0677 9.9185 71.6061 9.48888C71.8698 9.27545 72.0777 9.01439 72.2155 8.72367C72.3532 8.43296 72.4175 8.11949 72.404 7.80486C72.409 7.56963 72.3548 7.33633 72.2454 7.12156C72.136 6.90678 71.974 6.71581 71.771 6.56221C71.3624 6.23553 70.8275 6.0577 70.2749 6.06491H66.6496L65.6356 10.1333H69.362Z" fill="white"/>
<path d="M73.6965 18.3163H69.7166L67.7149 12.959H64.9263L63.6076 18.3163H60.0059L63.7322 3.23917H70.9578C72.3068 3.21629 73.6171 3.6355 74.6329 4.41494C75.6636 5.19798 76.1793 6.22258 76.1803 7.48873C76.1803 8.83027 75.7282 9.98294 74.8241 10.9467C73.9561 11.8925 72.7246 12.5276 71.3609 12.7329L73.6965 18.3163ZM69.362 10.1333H69.4132C70.3367 10.1333 71.0677 9.9185 71.6061 9.48888C71.8698 9.27545 72.0777 9.01439 72.2155 8.72367C72.3532 8.43296 72.4175 8.11949 72.404 7.80486C72.409 7.56963 72.3548 7.33633 72.2454 7.12156C72.136 6.90678 71.974 6.71581 71.771 6.56221C71.3624 6.23553 70.8275 6.0577 70.2749 6.06491H66.6496L65.6356 10.1333H69.362Z" fill="url(#paint8_linear)"/>
<path d="M73.6965 18.3163H69.7166L67.7149 12.959H64.9263L63.6076 18.3163H60.0059L63.7322 3.23917H70.9578C72.3068 3.21629 73.6171 3.6355 74.6329 4.41494C75.6636 5.19798 76.1793 6.22258 76.1803 7.48873C76.1803 8.83027 75.7282 9.98294 74.8241 10.9467C73.9561 11.8925 72.7246 12.5276 71.3609 12.7329L73.6965 18.3163ZM69.362 10.1333H69.4132C70.3367 10.1333 71.0677 9.9185 71.6061 9.48888C71.8698 9.27545 72.0777 9.01439 72.2155 8.72367C72.3532 8.43296 72.4175 8.11949 72.404 7.80486C72.409 7.56963 72.3548 7.33633 72.2454 7.12156C72.136 6.90678 71.974 6.71581 71.771 6.56221C71.3624 6.23553 70.8275 6.0577 70.2749 6.06491H66.6496L65.6356 10.1333H69.362Z" fill="black"/>
<path d="M73.6965 18.3163H69.7166L67.7149 12.959H64.9263L63.6076 18.3163H60.0059L63.7322 3.23917H70.9578C72.3068 3.21629 73.6171 3.6355 74.6329 4.41494C75.6636 5.19798 76.1793 6.22258 76.1803 7.48873C76.1803 8.83027 75.7282 9.98294 74.8241 10.9467C73.9561 11.8925 72.7246 12.5276 71.3609 12.7329L73.6965 18.3163ZM69.362 10.1333H69.4132C70.3367 10.1333 71.0677 9.9185 71.6061 9.48888C71.8698 9.27545 72.0777 9.01439 72.2155 8.72367C72.3532 8.43296 72.4175 8.11949 72.404 7.80486C72.409 7.56963 72.3548 7.33633 72.2454 7.12156C72.136 6.90678 71.974 6.71581 71.771 6.56221C71.3624 6.23553 70.8275 6.0577 70.2749 6.06491H66.6496L65.6356 10.1333H69.362Z" fill="url(#paint9_linear)"/>
<path d="M88.2731 18.3164H76.3071L80.0335 3.23926H91.9995L91.2888 6.065H82.9495L82.1627 9.25187H90.3261L89.6168 12.0776H81.4534L80.6222 15.4906H88.963L88.2731 18.3164Z" fill="white"/>
<path d="M88.2731 18.3164H76.3071L80.0335 3.23926H91.9995L91.2888 6.065H82.9495L82.1627 9.25187H90.3261L89.6168 12.0776H81.4534L80.6222 15.4906H88.963L88.2731 18.3164Z" fill="url(#paint10_linear)"/>
<path d="M88.2731 18.3164H76.3071L80.0335 3.23926H91.9995L91.2888 6.065H82.9495L82.1627 9.25187H90.3261L89.6168 12.0776H81.4534L80.6222 15.4906H88.963L88.2731 18.3164Z" fill="black"/>
<path d="M88.2731 18.3164H76.3071L80.0335 3.23926H91.9995L91.2888 6.065H82.9495L82.1627 9.25187H90.3261L89.6168 12.0776H81.4534L80.6222 15.4906H88.963L88.2731 18.3164Z" fill="url(#paint11_linear)"/>
</g>
<defs>
<linearGradient id="paint0_linear" x1="8.63711" y1="3.23926" x2="8.44273" y2="18.4472" gradientUnits="userSpaceOnUse">
<stop offset="0.520833" stop-color="#FBFBFB" stop-opacity="0.046875"/>
<stop offset="0.520933" stop-color="#DFDBDB" stop-opacity="0.54"/>
<stop offset="1" stop-color="white" stop-opacity="0"/>
</linearGradient>
<linearGradient id="paint1_linear" x1="8.63711" y1="3.23926" x2="8.44273" y2="18.4472" gradientUnits="userSpaceOnUse">
<stop offset="0.520833" stop-opacity="0.046875"/>
<stop offset="0.520933" stop-color="#DFDBDB" stop-opacity="0.54"/>
<stop offset="1" stop-opacity="0"/>
</linearGradient>
<linearGradient id="paint2_linear" x1="26.596" y1="3.23926" x2="26.4577" y2="18.4484" gradientUnits="userSpaceOnUse">
<stop offset="0.520833" stop-color="#FBFBFB" stop-opacity="0.046875"/>
<stop offset="0.520933" stop-color="#DFDBDB" stop-opacity="0.54"/>
<stop offset="1" stop-color="white" stop-opacity="0"/>
</linearGradient>
<linearGradient id="paint3_linear" x1="26.596" y1="3.23926" x2="26.4577" y2="18.4484" gradientUnits="userSpaceOnUse">
<stop offset="0.520833" stop-opacity="0.046875"/>
<stop offset="0.520933" stop-color="#DFDBDB" stop-opacity="0.54"/>
<stop offset="1" stop-opacity="0"/>
</linearGradient>
<linearGradient id="paint4_linear" x1="45.3295" y1="3.23926" x2="45.1409" y2="18.4473" gradientUnits="userSpaceOnUse">
<stop offset="0.520833" stop-color="#FBFBFB" stop-opacity="0.046875"/>
<stop offset="0.520933" stop-color="#DFDBDB" stop-opacity="0.54"/>
<stop offset="1" stop-color="white" stop-opacity="0"/>
</linearGradient>
<linearGradient id="paint5_linear" x1="45.3295" y1="3.23926" x2="45.1409" y2="18.4473" gradientUnits="userSpaceOnUse">
<stop offset="0.520833" stop-opacity="0.046875"/>
<stop offset="0.520933" stop-color="#DFDBDB" stop-opacity="0.54"/>
<stop offset="1" stop-opacity="0"/>
</linearGradient>
<linearGradient id="paint6_linear" x1="56.7197" y1="3.23926" x2="56.3036" y2="18.4383" gradientUnits="userSpaceOnUse">
<stop offset="0.520833" stop-color="#FBFBFB" stop-opacity="0.046875"/>
<stop offset="0.520933" stop-color="#DFDBDB" stop-opacity="0.54"/>
<stop offset="1" stop-color="white" stop-opacity="0"/>
</linearGradient>
<linearGradient id="paint7_linear" x1="56.7197" y1="3.23926" x2="56.3036" y2="18.4383" gradientUnits="userSpaceOnUse">
<stop offset="0.520833" stop-opacity="0.046875"/>
<stop offset="0.520933" stop-color="#DFDBDB" stop-opacity="0.54"/>
<stop offset="1" stop-opacity="0"/>
</linearGradient>
<linearGradient id="paint8_linear" x1="68.0931" y1="3.23828" x2="67.9044" y2="18.4473" gradientUnits="userSpaceOnUse">
<stop offset="0.520833" stop-color="#FBFBFB" stop-opacity="0.046875"/>
<stop offset="0.520933" stop-color="#DFDBDB" stop-opacity="0.54"/>
<stop offset="1" stop-color="white" stop-opacity="0"/>
</linearGradient>
<linearGradient id="paint9_linear" x1="68.0931" y1="3.23828" x2="67.9044" y2="18.4473" gradientUnits="userSpaceOnUse">
<stop offset="0.520833" stop-opacity="0.046875"/>
<stop offset="0.520933" stop-color="#DFDBDB" stop-opacity="0.54"/>
<stop offset="1" stop-opacity="0"/>
</linearGradient>
<linearGradient id="paint10_linear" x1="84.1533" y1="3.23926" x2="83.9589" y2="18.4472" gradientUnits="userSpaceOnUse">
<stop offset="0.520833" stop-color="#FBFBFB" stop-opacity="0.046875"/>
<stop offset="0.520933" stop-color="#DFDBDB" stop-opacity="0.54"/>
<stop offset="1" stop-color="white" stop-opacity="0"/>
</linearGradient>
<linearGradient id="paint11_linear" x1="84.1533" y1="3.23926" x2="83.9589" y2="18.4472" gradientUnits="userSpaceOnUse">
<stop offset="0.520833" stop-opacity="0.046875"/>
<stop offset="0.520933" stop-color="#DFDBDB" stop-opacity="0.54"/>
<stop offset="1" stop-opacity="0"/>
</linearGradient>
<clipPath id="clip0">
<rect width="92" height="20" fill="white"/>
</clipPath>
</defs>
</svg>
