<svg width="414" height="191" viewBox="0 0 414 191" fill="none" xmlns="http://www.w3.org/2000/svg">
<g clip-path="url(#clip0)">
<rect width="414" height="2985" transform="translate(0 -1048)" fill="white"/>
<path d="M729.108 -1187.25L-759.5 -715.906L-819.996 -417.124L729.108 -1187.25Z" fill="url(#paint0_linear)" fill-opacity="0.25"/>
<path d="M160 104.84V-329.201L133.06 -346.41L134.451 -455.972L67.7515 -510.472L57.8931 -374.667L82.9683 104.84H160Z" fill="#372FFF"/>
<path d="M83.3234 104.841V-378.132L-68.9341 -334.769V104.841H83.3234Z" fill="#1C1C1E"/>
<path d="M83.3234 106.322H-68.9341C-69.3267 106.322 -69.7032 106.166 -69.9808 105.888C-70.2584 105.61 -70.4143 105.234 -70.4143 104.841V-334.769C-70.4245 -335.092 -70.3245 -335.409 -70.1308 -335.667C-69.9371 -335.926 -69.6612 -336.111 -69.3486 -336.191L83.0273 -379.554C83.2471 -379.626 83.4812 -379.642 83.7086 -379.6C83.936 -379.559 84.1496 -379.462 84.33 -379.317C84.5121 -379.177 84.6601 -378.998 84.7627 -378.793C84.8653 -378.588 84.9198 -378.362 84.922 -378.132V104.841C84.9227 105.046 84.8809 105.248 84.7992 105.436C84.7175 105.624 84.5977 105.793 84.4475 105.932C84.2973 106.072 84.1198 106.178 83.9263 106.245C83.7328 106.312 83.5275 106.338 83.3234 106.322ZM-67.4538 103.36H81.8432V-376.177L-67.4538 -333.644V103.36Z" fill="#1C1C1E"/>
<path d="M52.9476 104.841V-182.733L-43.3271 -231.634L-74.5898 -214.1V104.841H52.9476Z" fill="white"/>
<path d="M52.9479 106.322H-74.5896C-74.9822 106.322 -75.3587 106.166 -75.6363 105.888C-75.9138 105.61 -76.0698 105.234 -76.0698 104.841V-214.1C-76.0675 -214.366 -75.9951 -214.627 -75.8599 -214.855C-75.7248 -215.084 -75.5316 -215.273 -75.3001 -215.404L-44.0374 -232.938C-43.8218 -233.048 -43.5834 -233.104 -43.3417 -233.104C-43.1 -233.104 -42.8616 -233.048 -42.646 -232.938L53.6288 -184.007C53.8723 -183.889 54.0769 -183.703 54.2185 -183.472C54.3601 -183.241 54.4328 -182.975 54.4281 -182.704V104.87C54.4204 105.258 54.261 105.627 53.9843 105.899C53.7075 106.17 53.3354 106.322 52.9479 106.322ZM-73.1093 103.36H51.4677V-181.815L-43.2677 -229.976L-73.0797 -213.241L-73.1093 103.36Z" fill="#1C1C1E"/>
<path d="M11.3831 99.6577C10.9905 99.6577 10.614 99.5017 10.3364 99.224C10.0588 98.9462 9.90283 98.5696 9.90283 98.1768V-188.005C9.90283 -188.398 10.0588 -188.775 10.3364 -189.053C10.614 -189.33 10.9905 -189.486 11.3831 -189.486C11.7733 -189.479 12.1454 -189.32 12.4214 -189.044C12.6974 -188.768 12.8558 -188.396 12.8633 -188.005V98.1472C12.8673 98.3441 12.8319 98.5399 12.7593 98.723C12.6866 98.9061 12.5782 99.0729 12.4404 99.2136C12.3025 99.3542 12.138 99.466 11.9565 99.5422C11.7749 99.6185 11.58 99.6578 11.3831 99.6577Z" fill="#D1D3D4"/>
<path d="M35.2449 99.3024C34.8523 99.3024 34.4758 99.1463 34.1982 98.8686C33.9206 98.5909 33.7646 98.2142 33.7646 97.8214C34.3567 6.56422 34.3567 -87.3883 33.7646 -181.4C33.7646 -181.793 33.9206 -182.17 34.1982 -182.447C34.4758 -182.725 34.8523 -182.881 35.2449 -182.881C35.6375 -182.881 36.014 -182.725 36.2916 -182.447C36.5692 -182.17 36.7251 -181.793 36.7251 -181.4C37.3172 -87.3883 37.3172 6.56422 36.7251 97.8214C36.7251 98.2142 36.5692 98.5909 36.2916 98.8686C36.014 99.1463 35.6375 99.3024 35.2449 99.3024Z" fill="#D1D3D4"/>
<path d="M103.189 100.279C102.796 100.279 102.42 100.123 102.142 99.8455C101.864 99.5677 101.708 99.191 101.708 98.7982V-348.809C101.708 -349.202 101.864 -349.579 102.142 -349.857C102.42 -350.134 102.796 -350.29 103.189 -350.29C103.581 -350.29 103.958 -350.134 104.235 -349.857C104.513 -349.579 104.669 -349.202 104.669 -348.809V98.7982C104.669 99.191 104.513 99.5677 104.235 99.8455C103.958 100.123 103.581 100.279 103.189 100.279Z" fill="white"/>
<path d="M123.734 100.28C123.342 100.28 122.965 100.124 122.687 99.8459C122.41 99.5682 122.254 99.1914 122.254 98.7986V-338.827C122.261 -339.218 122.42 -339.59 122.696 -339.866C122.972 -340.142 123.344 -340.301 123.734 -340.308C124.127 -340.308 124.503 -340.152 124.781 -339.874C125.058 -339.597 125.214 -339.22 125.214 -338.827V98.7986C125.214 99.1914 125.058 99.5682 124.781 99.8459C124.503 100.124 124.127 100.28 123.734 100.28Z" fill="white"/>
<path d="M144.309 100.28C143.916 100.28 143.54 100.124 143.262 99.8459C142.985 99.5681 142.829 99.1914 142.829 98.7986V-326.594C142.829 -326.987 142.985 -327.364 143.262 -327.642C143.54 -327.919 143.916 -328.075 144.309 -328.075C144.701 -328.075 145.078 -327.919 145.356 -327.642C145.633 -327.364 145.789 -326.987 145.789 -326.594V98.7986C145.789 99.1914 145.633 99.5681 145.356 99.8459C145.078 100.124 144.701 100.28 144.309 100.28Z" fill="white"/>
<rect y="-152" width="414" height="896" fill="#1C1C1E"/>
<circle cx="211" cy="248" r="248" fill="white" fill-opacity="0.03"/>
</g>
<defs>
<linearGradient id="paint0_linear" x1="-2148.01" y1="-1553.94" x2="368.733" y2="-563.062" gradientUnits="userSpaceOnUse">
<stop stop-color="white"/>
<stop offset="1" stop-color="white" stop-opacity="0"/>
</linearGradient>
<clipPath id="clip0">
<rect width="414" height="2985" fill="white" transform="translate(0 -1048)"/>
</clipPath>
</defs>
</svg>
