<svg width="342" height="91" viewBox="0 0 342 91" fill="none" xmlns="http://www.w3.org/2000/svg">
<g opacity="0.05">
<path d="M236.35 13.1563L234.253 0.874268L227.618 12.1647L222.003 5.65329L220.642 15.8087H241.107L244.462 8.64017L236.35 13.1563ZM232.845 10.283L231.422 8.52667L233.709 4.20763L234.709 8.8851L232.845 10.283Z" fill="#ADACA8" fill-opacity="0.81"/>
<path d="M236.977 13.1566L234.439 0.492188L228.422 12.2247L222.004 5.33693L224.046 15.809H241.742L245.145 7.85188L236.977 13.1566ZM233.466 10.2832L232.05 8.52692L234.33 4.20788L235.337 8.88535L233.466 10.2832Z" fill="#FF9F48"/>
<path d="M3.84497 90.4887H-54.999L-36.6707 16.4139H22.1665L18.6751 30.297H-22.3306L-26.1964 45.9543H13.9586L10.4671 59.8373H-29.6878L-33.7714 76.6057H7.20709L3.84497 90.4887Z" fill="#ADACA8"/>
<path d="M107.812 90.4816H89.9668L103.177 37.0642L66.5477 90.4816H58.8162L48.6073 37.0642L35.3834 90.4816H17.688L36.0095 16.4069H60.1978L68.8004 62.7155L100.577 16.4069H126.14L107.812 90.4816Z" fill="#ADACA8"/>
<path d="M141.972 90.4816H124.277L142.598 16.4069H179.126C186.608 16.4069 192.592 18.3882 197.08 22.3508C199.274 24.2548 201.002 26.5316 202.159 29.0419C203.317 31.5522 203.879 34.2433 203.811 36.9507C203.795 40.0064 203.182 43.0371 202 45.9113C200.701 49.0658 198.825 52.0136 196.447 54.639C193.974 57.4268 190.38 59.7127 185.666 61.4969C180.506 63.3508 174.968 64.2575 169.393 64.1612H148.574L141.972 90.4816ZM151.943 50.2782H170.516C174.836 50.2782 178.368 49.167 181.113 46.9448C182.448 45.9018 183.509 44.6172 184.223 43.1796C184.937 41.7419 185.288 40.1854 185.251 38.6173C185.287 37.4992 185.049 36.3874 184.554 35.3568C184.058 34.3263 183.317 33.4011 182.379 32.6436C180.469 31.0904 177.973 30.3138 174.892 30.3138H156.932L151.943 50.2782Z" fill="#ADACA8"/>
<path d="M219.757 90.4816H202.062L220.39 16.4069H238.085L219.757 90.4816Z" fill="#ADACA8"/>
<path d="M303.529 90.4811H283.935L274.086 64.1607H260.393L253.914 90.4811H236.218L254.533 16.4063H290.06C296.694 16.2941 303.138 18.3533 308.136 22.183C313.205 26.0301 315.739 31.064 315.739 37.2847C315.739 43.8757 313.515 49.5389 309.069 54.2741C304.804 58.9207 298.754 62.0411 292.054 63.0495L303.529 90.4811ZM282.213 50.2776H282.458C287.031 50.2776 290.627 49.2223 293.245 47.1115C295.863 45.0008 297.172 42.2429 297.172 38.8378C297.197 37.6816 296.93 36.5348 296.391 35.4794C295.852 34.4241 295.055 33.4861 294.055 32.7326C292.047 31.1257 289.415 30.2518 286.698 30.2894H268.873L263.884 50.2776H282.213Z" fill="#ADACA8"/>
<path d="M375.21 90.4816H316.373L334.694 16.4069H393.511L390.019 30.2899H349.034L345.189 45.9472H385.344L381.852 59.8302H341.697L337.58 76.5986H378.599L375.21 90.4816Z" fill="#ADACA8"/>
<path d="M7.6699 90.4816H-51.1196L-32.8117 16.4069H25.9914L22.5 30.2899H-18.4716L-22.3306 45.9472H17.7563L14.2717 59.8302H-25.8356L-29.9192 76.5986H11.0184L7.6699 90.4816Z" fill="white"/>
<path d="M7.6699 90.4816H-51.1196L-32.8117 16.4069H25.9914L22.5 30.2899H-18.4716L-22.3306 45.9472H17.7563L14.2717 59.8302H-25.8356L-29.9192 76.5986H11.0184L7.6699 90.4816Z" fill="url(#paint0_linear)"/>
<path d="M111.544 90.4816H93.7326L106.936 37.0642L70.3203 90.4816H62.5955L52.3867 37.0642L39.1832 90.4816H21.4878L39.7957 16.4069H63.9567L72.5526 62.7155L104.316 16.4069H129.852L111.544 90.4816Z" fill="white"/>
<path d="M111.544 90.4816H93.7326L106.936 37.0642L70.3203 90.4816H62.5955L52.3867 37.0642L39.1832 90.4816H21.4878L39.7957 16.4069H63.9567L72.5526 62.7155L104.316 16.4069H129.852L111.544 90.4816Z" fill="url(#paint1_linear)"/>
<path d="M145.669 90.4816H127.973L146.281 16.4069H182.774C190.247 16.4069 196.227 18.3882 200.715 22.3508C202.906 24.256 204.633 26.5331 205.789 29.0432C206.945 31.5533 207.507 34.2438 207.439 36.9507C207.423 40.0064 206.811 43.0371 205.629 45.9113C204.333 49.0637 202.465 52.0111 200.095 54.639C197.605 57.4268 194.018 59.7127 189.335 61.4969C184.182 63.3505 178.651 64.2573 173.083 64.1612H152.27L145.669 90.4816ZM155.632 50.2782H174.192C178.507 50.2782 182.035 49.167 184.775 46.9448C186.1 45.8974 187.151 44.6108 187.856 43.1734C188.561 41.736 188.903 40.1818 188.859 38.6173C188.896 37.4996 188.66 36.3879 188.165 35.3574C187.671 34.3268 186.93 33.4014 185.994 32.6436C183.938 31.0422 181.253 30.2065 178.507 30.3138H160.614L155.632 50.2782Z" fill="white"/>
<path d="M145.669 90.4816H127.973L146.281 16.4069H182.774C190.247 16.4069 196.227 18.3882 200.715 22.3508C202.906 24.256 204.633 26.5331 205.789 29.0432C206.945 31.5533 207.507 34.2438 207.439 36.9507C207.423 40.0064 206.811 43.0371 205.629 45.9113C204.333 49.0637 202.465 52.0111 200.095 54.639C197.605 57.4268 194.018 59.7127 189.335 61.4969C184.182 63.3505 178.651 64.2573 173.083 64.1612H152.27L145.669 90.4816ZM155.632 50.2782H174.192C178.507 50.2782 182.035 49.167 184.775 46.9448C186.1 45.8974 187.151 44.6108 187.856 43.1734C188.561 41.736 188.903 40.1818 188.859 38.6173C188.896 37.4996 188.66 36.3879 188.165 35.3574C187.671 34.3268 186.93 33.4014 185.994 32.6436C183.938 31.0422 181.253 30.2065 178.507 30.3138H160.614L155.632 50.2782Z" fill="url(#paint2_linear)"/>
<path d="M223.362 90.4816H205.667L223.975 16.4069H241.67L223.362 90.4816Z" fill="white"/>
<path d="M223.362 90.4816H205.667L223.975 16.4069H241.67L223.362 90.4816Z" fill="url(#paint3_linear)"/>
<path d="M307.077 90.4812H287.523L277.689 64.1607H263.989L257.509 90.4812H239.814L258.122 16.4063H293.622C300.249 16.294 306.687 18.3535 311.678 22.183C316.741 26.0301 319.275 31.064 319.28 37.2847C319.28 43.8758 317.059 49.5389 312.617 54.2741C308.352 58.9207 302.302 62.0412 295.602 63.0496L307.077 90.4812ZM285.781 50.2777H286.033C290.57 50.2777 294.161 49.2223 296.807 47.1115C298.102 46.063 299.124 44.7804 299.801 43.352C300.477 41.9237 300.793 40.3837 300.727 38.8379C300.751 37.6822 300.485 36.536 299.948 35.4808C299.41 34.4255 298.614 33.4873 297.617 32.7327C295.609 31.1276 292.981 30.254 290.266 30.2894H272.455L267.473 50.2777H285.781Z" fill="white"/>
<path d="M307.077 90.4812H287.523L277.689 64.1607H263.989L257.509 90.4812H239.814L258.122 16.4063H293.622C300.249 16.294 306.687 18.3535 311.678 22.183C316.741 26.0301 319.275 31.064 319.28 37.2847C319.28 43.8758 317.059 49.5389 312.617 54.2741C308.352 58.9207 302.302 62.0412 295.602 63.0496L307.077 90.4812ZM285.781 50.2777H286.033C290.57 50.2777 294.161 49.2223 296.807 47.1115C298.102 46.063 299.124 44.7804 299.801 43.352C300.477 41.9237 300.793 40.3837 300.727 38.8379C300.751 37.6822 300.485 36.536 299.948 35.4808C299.41 34.4255 298.614 33.4873 297.617 32.7327C295.609 31.1276 292.981 30.254 290.266 30.2894H272.455L267.473 50.2777H285.781Z" fill="url(#paint4_linear)"/>
<path d="M378.692 90.4816H319.903L338.211 16.4069H397L393.509 30.2899H352.537L348.671 45.9472H388.779L385.294 59.8302H345.187L341.103 76.5986H382.082L378.692 90.4816Z" fill="white"/>
<path d="M378.692 90.4816H319.903L338.211 16.4069H397L393.509 30.2899H352.537L348.671 45.9472H388.779L385.294 59.8302H345.187L341.103 76.5986H382.082L378.692 90.4816Z" fill="url(#paint5_linear)"/>
</g>
<defs>
<linearGradient id="paint0_linear" x1="-12.5641" y1="16.4069" x2="-13.5191" y2="91.1243" gradientUnits="userSpaceOnUse">
<stop offset="0.520833" stop-color="#FBFBFB" stop-opacity="0.046875"/>
<stop offset="0.520933" stop-color="#DFDBDB" stop-opacity="0.54"/>
<stop offset="1" stop-color="white" stop-opacity="0"/>
</linearGradient>
<linearGradient id="paint1_linear" x1="75.6697" y1="16.4069" x2="74.9901" y2="91.1304" gradientUnits="userSpaceOnUse">
<stop offset="0.520833" stop-color="#FBFBFB" stop-opacity="0.046875"/>
<stop offset="0.520933" stop-color="#DFDBDB" stop-opacity="0.54"/>
<stop offset="1" stop-color="white" stop-opacity="0"/>
</linearGradient>
<linearGradient id="paint2_linear" x1="167.709" y1="16.4069" x2="166.782" y2="91.1251" gradientUnits="userSpaceOnUse">
<stop offset="0.520833" stop-color="#FBFBFB" stop-opacity="0.046875"/>
<stop offset="0.520933" stop-color="#DFDBDB" stop-opacity="0.54"/>
<stop offset="1" stop-color="white" stop-opacity="0"/>
</linearGradient>
<linearGradient id="paint3_linear" x1="223.669" y1="16.4069" x2="221.624" y2="91.0806" gradientUnits="userSpaceOnUse">
<stop offset="0.520833" stop-color="#FBFBFB" stop-opacity="0.046875"/>
<stop offset="0.520933" stop-color="#DFDBDB" stop-opacity="0.54"/>
<stop offset="1" stop-color="white" stop-opacity="0"/>
</linearGradient>
<linearGradient id="paint4_linear" x1="279.547" y1="16.402" x2="278.62" y2="91.1246" gradientUnits="userSpaceOnUse">
<stop offset="0.520833" stop-color="#FBFBFB" stop-opacity="0.046875"/>
<stop offset="0.520933" stop-color="#DFDBDB" stop-opacity="0.54"/>
<stop offset="1" stop-color="white" stop-opacity="0"/>
</linearGradient>
<linearGradient id="paint5_linear" x1="358.452" y1="16.4069" x2="357.496" y2="91.1243" gradientUnits="userSpaceOnUse">
<stop offset="0.520833" stop-color="#FBFBFB" stop-opacity="0.046875"/>
<stop offset="0.520933" stop-color="#DFDBDB" stop-opacity="0.54"/>
<stop offset="1" stop-color="white" stop-opacity="0"/>
</linearGradient>
</defs>
</svg>
