<svg width="188" height="39" viewBox="0 0 188 39" fill="none" xmlns="http://www.w3.org/2000/svg">
<path d="M121.181 6.0418L120.309 0.93335L117.549 5.62935L115.214 2.92107L114.647 7.14499H123.16L124.555 4.1634L121.181 6.0418ZM119.723 4.84668L119.131 4.11619L120.083 2.31978L120.499 4.26528L119.723 4.84668Z" fill="#ADACA8" fill-opacity="0.81"/>
<path d="M121.442 6.04189L120.386 0.774414L117.884 5.65428L115.214 2.78947L116.064 7.14508H123.424L124.839 3.83551L121.442 6.04189ZM119.981 4.84677L119.393 4.11628L120.341 2.31987L120.76 4.26536L119.981 4.84677Z" fill="#FF9F48"/>
<path d="M24.4758 38.2065H0.000976562L7.62424 7.39673H32.0962L30.6441 13.1711H13.5887L11.9808 19.6834H28.6823L27.2302 25.4577H10.5286L8.83015 32.4321H25.8742L24.4758 38.2065Z" fill="#ADACA8" fill-opacity="0.81"/>
<path d="M67.7184 38.2035H60.2962L65.7907 15.9857L50.5555 38.2035H47.3397L43.0936 15.9857L37.5934 38.2035H30.2334L37.8538 7.3938H47.9144L51.4925 26.6548L64.7093 7.3938H75.3417L67.7184 38.2035Z" fill="#ADACA8" fill-opacity="0.81"/>
<path d="M81.9264 38.2035H74.5664L82.1868 7.3938H97.3796C100.492 7.3938 102.981 8.21788 104.847 9.86603C105.76 10.658 106.479 11.605 106.96 12.6491C107.441 13.6932 107.675 14.8125 107.647 15.9385C107.64 17.2095 107.385 18.47 106.894 19.6655C106.353 20.9776 105.573 22.2036 104.584 23.2956C103.555 24.4551 102.061 25.4059 100.1 26.148C97.9537 26.9191 95.6502 27.2962 93.3316 27.2561H84.6722L81.9264 38.2035ZM86.0735 21.4818H93.7986C95.5952 21.4818 97.0644 21.0197 98.2062 20.0954C98.7612 19.6616 99.2026 19.1273 99.4997 18.5293C99.7968 17.9314 99.9427 17.284 99.9273 16.6317C99.9422 16.1667 99.8433 15.7043 99.6372 15.2756C99.4311 14.847 99.1227 14.4622 98.7327 14.1471C97.9382 13.5011 96.9002 13.1781 95.6188 13.1781H88.1484L86.0735 21.4818Z" fill="#ADACA8" fill-opacity="0.81"/>
<path d="M114.279 38.2035H106.919L114.543 7.3938H121.903L114.279 38.2035Z" fill="#ADACA8" fill-opacity="0.81"/>
<path d="M149.122 38.2033H140.973L136.876 27.2559H131.181L128.486 38.2033H121.126L128.744 7.39354H143.52C146.279 7.34684 148.96 8.20335 151.039 9.7962C153.147 11.3963 154.201 13.4901 154.201 16.0774C154.201 18.8188 153.276 21.1743 151.427 23.1438C149.653 25.0764 147.136 26.3743 144.35 26.7937L149.122 38.2033ZM140.256 21.4815H140.358C142.261 21.4815 143.756 21.0426 144.845 20.1647C145.934 19.2868 146.478 18.1397 146.478 16.7234C146.489 16.2425 146.378 15.7655 146.153 15.3266C145.929 14.8876 145.598 14.4975 145.182 14.1841C144.346 13.5157 143.252 13.1523 142.122 13.1679H134.708L132.633 21.4815H140.256Z" fill="#ADACA8" fill-opacity="0.81"/>
<path d="M178.936 38.2035H154.464L162.085 7.3938H186.548L185.096 13.1681H168.049L166.45 19.6804H183.151L181.699 25.4548H164.998L163.285 32.4292H180.346L178.936 38.2035Z" fill="#ADACA8" fill-opacity="0.81"/>
<path d="M26.0664 38.2035H1.61426L9.22903 7.3938H33.6869L32.2347 13.1681H15.1935L13.5884 19.6804H30.2616L28.8123 25.4548H12.1306L10.4321 32.4292H27.4592L26.0664 38.2035Z" fill="white"/>
<path d="M26.0664 38.2035H1.61426L9.22903 7.3938H33.6869L32.2347 13.1681H15.1935L13.5884 19.6804H30.2616L28.8123 25.4548H12.1306L10.4321 32.4292H27.4592L26.0664 38.2035Z" fill="url(#paint0_linear)"/>
<path d="M69.2707 38.2035H61.8626L67.3543 15.9857L52.1247 38.2035H48.9118L44.6657 15.9857L39.174 38.2035H31.814L39.4287 7.3938H49.478L53.0532 26.6548L66.2644 7.3938H76.8855L69.2707 38.2035Z" fill="white"/>
<path d="M69.2707 38.2035H61.8626L67.3543 15.9857L52.1247 38.2035H48.9118L44.6657 15.9857L39.174 38.2035H31.814L39.4287 7.3938H49.478L53.0532 26.6548L66.2644 7.3938H76.8855L69.2707 38.2035Z" fill="url(#paint1_linear)"/>
<path d="M83.464 38.2035H76.104L83.7188 7.3938H98.8974C102.006 7.3938 104.493 8.21788 106.359 9.86603C107.271 10.6585 107.989 11.6056 108.47 12.6496C108.951 13.6936 109.184 14.8127 109.156 15.9385C109.149 17.2095 108.895 18.47 108.403 19.6655C107.864 20.9767 107.087 22.2026 106.102 23.2956C105.066 24.4551 103.574 25.4059 101.626 26.148C99.4829 26.919 97.1822 27.2961 94.8663 27.2561H86.2099L83.464 38.2035ZM87.6083 21.4818H95.3278C97.1225 21.4818 98.5897 21.0197 99.7296 20.0954C100.281 19.6597 100.718 19.1246 101.011 18.5268C101.304 17.9289 101.446 17.2824 101.428 16.6317C101.444 16.1669 101.345 15.7045 101.14 15.2758C100.934 14.8472 100.626 14.4623 100.236 14.1471C99.3814 13.481 98.2645 13.1335 97.1225 13.1781H89.6804L87.6083 21.4818Z" fill="white"/>
<path d="M83.464 38.2035H76.104L83.7188 7.3938H98.8974C102.006 7.3938 104.493 8.21788 106.359 9.86603C107.271 10.6585 107.989 11.6056 108.47 12.6496C108.951 13.6936 109.184 14.8127 109.156 15.9385C109.149 17.2095 108.895 18.47 108.403 19.6655C107.864 20.9767 107.087 22.2026 106.102 23.2956C105.066 24.4551 103.574 25.4059 101.626 26.148C99.4829 26.919 97.1822 27.2961 94.8663 27.2561H86.2099L83.464 38.2035ZM87.6083 21.4818H95.3278C97.1225 21.4818 98.5897 21.0197 99.7296 20.0954C100.281 19.6597 100.718 19.1246 101.011 18.5268C101.304 17.9289 101.446 17.2824 101.428 16.6317C101.444 16.1669 101.345 15.7045 101.14 15.2758C100.934 14.8472 100.626 14.4623 100.236 14.1471C99.3814 13.481 98.2645 13.1335 97.1225 13.1781H89.6804L87.6083 21.4818Z" fill="url(#paint2_linear)"/>
<path d="M115.779 38.2035H108.419L116.034 7.3938H123.394L115.779 38.2035Z" fill="white"/>
<path d="M115.779 38.2035H108.419L116.034 7.3938H123.394L115.779 38.2035Z" fill="url(#paint3_linear)"/>
<path d="M150.598 38.2033H142.465L138.375 27.2559H132.676L129.982 38.2033H122.622L130.236 7.39354H145.002C147.758 7.34679 150.436 8.20342 152.512 9.79621C154.618 11.3963 155.672 13.4901 155.674 16.0774C155.674 18.8188 154.75 21.1743 152.902 23.1438C151.129 25.0764 148.612 26.3743 145.825 26.7937L150.598 38.2033ZM141.741 21.4815H141.845C143.733 21.4815 145.226 21.0426 146.326 20.1647C146.865 19.7285 147.29 19.1951 147.572 18.601C147.853 18.0069 147.985 17.3664 147.957 16.7234C147.967 16.2427 147.856 15.766 147.633 15.3271C147.409 14.8882 147.078 14.498 146.663 14.1841C145.828 13.5165 144.735 13.1531 143.606 13.1679H136.198L134.126 21.4815H141.741Z" fill="white"/>
<path d="M150.598 38.2033H142.465L138.375 27.2559H132.676L129.982 38.2033H122.622L130.236 7.39354H145.002C147.758 7.34679 150.436 8.20342 152.512 9.79621C154.618 11.3963 155.672 13.4901 155.674 16.0774C155.674 18.8188 154.75 21.1743 152.902 23.1438C151.129 25.0764 148.612 26.3743 145.825 26.7937L150.598 38.2033ZM141.741 21.4815H141.845C143.733 21.4815 145.226 21.0426 146.326 20.1647C146.865 19.7285 147.29 19.1951 147.572 18.601C147.853 18.0069 147.985 17.3664 147.957 16.7234C147.967 16.2427 147.856 15.766 147.633 15.3271C147.409 14.8882 147.078 14.498 146.663 14.1841C145.828 13.5165 144.735 13.1531 143.606 13.1679H136.198L134.126 21.4815H141.741Z" fill="url(#paint4_linear)"/>
<path d="M180.385 38.2035H155.933L163.548 7.3938H188L186.548 13.1681H169.507L167.899 19.6804H184.58L183.131 25.4548H166.449L164.751 32.4292H181.795L180.385 38.2035Z" fill="white"/>
<path d="M180.385 38.2035H155.933L163.548 7.3938H188L186.548 13.1681H169.507L167.899 19.6804H184.58L183.131 25.4548H166.449L164.751 32.4292H181.795L180.385 38.2035Z" fill="url(#paint5_linear)"/>
<defs>
<linearGradient id="paint0_linear" x1="17.6506" y1="7.3938" x2="17.2533" y2="38.4709" gradientUnits="userSpaceOnUse">
<stop offset="0.520833" stop-color="#FBFBFB" stop-opacity="0.046875"/>
<stop offset="0.520933" stop-color="#DFDBDB" stop-opacity="0.54"/>
<stop offset="1" stop-color="white" stop-opacity="0"/>
</linearGradient>
<linearGradient id="paint1_linear" x1="54.3497" y1="7.3938" x2="54.067" y2="38.4734" gradientUnits="userSpaceOnUse">
<stop offset="0.520833" stop-color="#FBFBFB" stop-opacity="0.046875"/>
<stop offset="0.520933" stop-color="#DFDBDB" stop-opacity="0.54"/>
<stop offset="1" stop-color="white" stop-opacity="0"/>
</linearGradient>
<linearGradient id="paint2_linear" x1="92.6312" y1="7.3938" x2="92.2457" y2="38.4711" gradientUnits="userSpaceOnUse">
<stop offset="0.520833" stop-color="#FBFBFB" stop-opacity="0.046875"/>
<stop offset="0.520933" stop-color="#DFDBDB" stop-opacity="0.54"/>
<stop offset="1" stop-color="white" stop-opacity="0"/>
</linearGradient>
<linearGradient id="paint3_linear" x1="115.906" y1="7.3938" x2="115.056" y2="38.4527" gradientUnits="userSpaceOnUse">
<stop offset="0.520833" stop-color="#FBFBFB" stop-opacity="0.046875"/>
<stop offset="0.520933" stop-color="#DFDBDB" stop-opacity="0.54"/>
<stop offset="1" stop-color="white" stop-opacity="0"/>
</linearGradient>
<linearGradient id="paint4_linear" x1="139.148" y1="7.39172" x2="138.762" y2="38.4709" gradientUnits="userSpaceOnUse">
<stop offset="0.520833" stop-color="#FBFBFB" stop-opacity="0.046875"/>
<stop offset="0.520933" stop-color="#DFDBDB" stop-opacity="0.54"/>
<stop offset="1" stop-color="white" stop-opacity="0"/>
</linearGradient>
<linearGradient id="paint5_linear" x1="171.967" y1="7.3938" x2="171.569" y2="38.4708" gradientUnits="userSpaceOnUse">
<stop offset="0.520833" stop-color="#FBFBFB" stop-opacity="0.046875"/>
<stop offset="0.520933" stop-color="#DFDBDB" stop-opacity="0.54"/>
<stop offset="1" stop-color="white" stop-opacity="0"/>
</linearGradient>
</defs>
</svg>
