<svg width="343" height="69" viewBox="0 0 343 69" fill="none" xmlns="http://www.w3.org/2000/svg">
<g opacity="0.05">
<path d="M221.09 9.6103L219.499 0.290039L214.464 8.85779L210.203 3.9166L209.17 11.623H224.7L227.246 6.1832L221.09 9.6103ZM218.43 7.42983L217.351 6.09707L219.086 2.81956L219.845 6.36906L218.43 7.42983Z" fill="#ADACA8"/>
<path d="M221.567 9.61039L219.64 0L215.075 8.90321L210.205 3.67643L211.754 11.6231H225.182L227.764 5.58491L221.567 9.61039ZM218.902 7.42992L217.828 6.09716L219.558 2.81965L220.322 6.36916L218.902 7.42992Z" fill="#FF9F48"/>
<path d="M44.6538 68.2947H0L13.9085 12.083H58.5571L55.9076 22.6182H24.7904L21.8569 34.4997H52.3285L49.679 45.0349H19.2074L16.1086 57.7595H47.2051L44.6538 68.2947Z" fill="#ADACA8"/>
<path d="M123.549 68.2891H110.007L120.032 27.7532L92.2354 68.2891H86.3683L78.6213 27.7532L68.5864 68.2891H55.1582L69.0615 12.0774H87.4168L93.9449 47.2187L118.059 12.0774H137.457L123.549 68.2891Z" fill="#ADACA8"/>
<path d="M149.471 68.2891H136.043L149.946 12.0774H177.665C183.343 12.0774 187.884 13.5809 191.289 16.5879C192.954 18.0328 194.266 19.7606 195.144 21.6655C196.022 23.5704 196.449 25.6126 196.397 27.6671C196.385 29.9859 195.92 32.2857 195.024 34.4669C194.038 36.8607 192.614 39.0976 190.809 41.0899C188.933 43.2054 186.206 44.9401 182.628 46.294C178.712 47.7008 174.51 48.3889 170.28 48.3158H154.481L149.471 68.2891ZM157.037 37.7806H171.132C174.41 37.7806 177.09 36.9375 179.173 35.2511C180.186 34.4596 180.991 33.4848 181.533 32.3939C182.075 31.3029 182.341 30.1218 182.313 28.9318C182.341 28.0834 182.16 27.2396 181.784 26.4576C181.408 25.6756 180.845 24.9735 180.134 24.3986C178.684 23.22 176.791 22.6307 174.453 22.6307H160.823L157.037 37.7806Z" fill="#ADACA8"/>
<path d="M208.498 68.2891H195.07L208.979 12.0774H222.407L208.498 68.2891Z" fill="#ADACA8"/>
<path d="M272.068 68.2885H257.199L249.726 48.3152H239.335L234.418 68.2885H220.99L234.888 12.0768H261.848C266.882 11.9916 271.772 13.5543 275.565 16.4604C279.411 19.3798 281.334 23.1998 281.334 27.9203C281.334 32.922 279.647 37.2194 276.272 40.8127C273.036 44.3388 268.445 46.7068 263.361 47.472L272.068 68.2885ZM255.893 37.78H256.079C259.549 37.78 262.278 36.9792 264.265 35.3774C266.251 33.7757 267.245 31.6829 267.245 29.099C267.263 28.2215 267.061 27.3513 266.652 26.5504C266.243 25.7496 265.638 25.0378 264.879 24.466C263.355 23.2466 261.358 22.5834 259.296 22.6119H245.77L241.984 37.78H255.893Z" fill="#ADACA8"/>
<path d="M326.463 68.2891H281.814L295.718 12.0774H340.351L337.701 22.6125H306.6L303.682 34.4941H334.153L331.504 45.0292H301.032L297.908 57.7539H329.035L326.463 68.2891Z" fill="#ADACA8"/>
<path d="M47.5558 68.2891H2.94336L16.8363 12.0774H61.4591L58.8096 22.6125H27.7183L24.7899 34.4941H55.2099L52.5656 45.0292H22.1301L19.0313 57.7539H50.0968L47.5558 68.2891Z" fill="black"/>
<path d="M47.5558 68.2891H2.94336L16.8363 12.0774H61.4591L58.8096 22.6125H27.7183L24.7899 34.4941H55.2099L52.5656 45.0292H22.1301L19.0313 57.7539H50.0968L47.5558 68.2891Z" fill="url(#paint0_linear)"/>
<path d="M126.381 68.2891H112.865L122.884 27.7532L95.0985 68.2891H89.2366L81.4896 27.7532L71.4701 68.2891H58.042L71.935 12.0774H90.2696L96.7925 47.2187L120.896 12.0774H140.274L126.381 68.2891Z" fill="black"/>
<path d="M126.381 68.2891H112.865L122.884 27.7532L95.0985 68.2891H89.2366L81.4896 27.7532L71.4701 68.2891H58.042L71.935 12.0774H90.2696L96.7925 47.2187L120.896 12.0774H140.274L126.381 68.2891Z" fill="url(#paint1_linear)"/>
<path d="M152.276 68.2891H138.848L152.741 12.0774H180.434C186.105 12.0774 190.643 13.5809 194.048 16.5879C195.711 18.0337 197.022 19.7617 197.899 21.6665C198.776 23.5713 199.202 25.613 199.151 27.6671C199.139 29.9859 198.674 32.2857 197.777 34.4669C196.794 36.8591 195.376 39.0957 193.578 41.0899C191.688 43.2054 188.966 44.9401 185.413 46.294C181.502 47.7006 177.305 48.3887 173.08 48.3158H157.286L152.276 68.2891ZM159.837 37.7806H173.921C177.196 37.7806 179.873 36.9375 181.953 35.2511C182.958 34.4563 183.755 33.48 184.29 32.3892C184.825 31.2984 185.085 30.119 185.051 28.9318C185.08 28.0837 184.9 27.24 184.525 26.458C184.15 25.676 183.588 24.9737 182.877 24.3986C181.317 23.1834 179.279 22.5493 177.196 22.6307H163.618L159.837 37.7806Z" fill="black"/>
<path d="M152.276 68.2891H138.848L152.741 12.0774H180.434C186.105 12.0774 190.643 13.5809 194.048 16.5879C195.711 18.0337 197.022 19.7617 197.899 21.6665C198.776 23.5713 199.202 25.613 199.151 27.6671C199.139 29.9859 198.674 32.2857 197.777 34.4669C196.794 36.8591 195.376 39.0957 193.578 41.0899C191.688 43.2054 188.966 44.9401 185.413 46.294C181.502 47.7006 177.305 48.3887 173.08 48.3158H157.286L152.276 68.2891ZM159.837 37.7806H173.921C177.196 37.7806 179.873 36.9375 181.953 35.2511C182.958 34.4563 183.755 33.48 184.29 32.3892C184.825 31.2984 185.085 30.119 185.051 28.9318C185.08 28.0837 184.9 27.24 184.525 26.458C184.15 25.676 183.588 24.9737 182.877 24.3986C181.317 23.1834 179.279 22.5493 177.196 22.6307H163.618L159.837 37.7806Z" fill="url(#paint2_linear)"/>
<path d="M211.234 68.2891H197.806L211.699 12.0774H225.127L211.234 68.2891Z" fill="black"/>
<path d="M211.234 68.2891H197.806L211.699 12.0774H225.127L211.234 68.2891Z" fill="url(#paint3_linear)"/>
<path d="M274.761 68.2885H259.923L252.46 48.3152H242.064L237.147 68.2885H223.719L237.612 12.0768H264.551C269.58 11.9915 274.465 13.5544 278.253 16.4604C282.095 19.3798 284.018 23.1998 284.021 27.9203C284.021 32.922 282.336 37.2195 278.965 40.8128C275.729 44.3389 271.138 46.7068 266.054 47.472L274.761 68.2885ZM258.601 37.7801H258.792C262.235 37.7801 264.96 36.9792 266.968 35.3775C267.951 34.5817 268.726 33.6084 269.24 32.5246C269.753 31.4407 269.993 30.272 269.943 29.099C269.961 28.222 269.759 27.3522 269.351 26.5514C268.943 25.7507 268.339 25.0387 267.582 24.466C266.059 23.248 264.065 22.5851 262.004 22.612H248.489L244.708 37.7801H258.601Z" fill="black"/>
<path d="M274.761 68.2885H259.923L252.46 48.3152H242.064L237.147 68.2885H223.719L237.612 12.0768H264.551C269.58 11.9915 274.465 13.5544 278.253 16.4604C282.095 19.3798 284.018 23.1998 284.021 27.9203C284.021 32.922 282.336 37.2195 278.965 40.8128C275.729 44.3389 271.138 46.7068 266.054 47.472L274.761 68.2885ZM258.601 37.7801H258.792C262.235 37.7801 264.96 36.9792 266.968 35.3775C267.951 34.5817 268.726 33.6084 269.24 32.5246C269.753 31.4407 269.993 30.272 269.943 29.099C269.961 28.222 269.759 27.3522 269.351 26.5514C268.943 25.7507 268.339 25.0387 267.582 24.466C266.059 23.248 264.065 22.5851 262.004 22.612H248.489L244.708 37.7801H258.601Z" fill="url(#paint4_linear)"/>
<path d="M329.107 68.2891H284.494L298.387 12.0774H343L340.35 22.6125H309.259L306.325 34.4941H336.761L334.116 45.0292H303.681L300.582 57.7539H331.679L329.107 68.2891Z" fill="black"/>
<path d="M329.107 68.2891H284.494L298.387 12.0774H343L340.35 22.6125H309.259L306.325 34.4941H336.761L334.116 45.0292H303.681L300.582 57.7539H331.679L329.107 68.2891Z" fill="url(#paint5_linear)"/>
</g>
<defs>
<linearGradient id="paint0_linear" x1="32.2012" y1="12.0774" x2="31.4765" y2="68.7768" gradientUnits="userSpaceOnUse">
<stop offset="0.520833" stop-opacity="0.046875"/>
<stop offset="0.520933" stop-color="#DFDBDB" stop-opacity="0.54"/>
<stop offset="1" stop-opacity="0"/>
</linearGradient>
<linearGradient id="paint1_linear" x1="99.158" y1="12.0774" x2="98.6422" y2="68.7814" gradientUnits="userSpaceOnUse">
<stop offset="0.520833" stop-opacity="0.046875"/>
<stop offset="0.520933" stop-color="#DFDBDB" stop-opacity="0.54"/>
<stop offset="1" stop-opacity="0"/>
</linearGradient>
<linearGradient id="paint2_linear" x1="169.002" y1="12.0774" x2="168.298" y2="68.7773" gradientUnits="userSpaceOnUse">
<stop offset="0.520833" stop-opacity="0.046875"/>
<stop offset="0.520933" stop-color="#DFDBDB" stop-opacity="0.54"/>
<stop offset="1" stop-opacity="0"/>
</linearGradient>
<linearGradient id="paint3_linear" x1="211.466" y1="12.0774" x2="209.915" y2="68.7436" gradientUnits="userSpaceOnUse">
<stop offset="0.520833" stop-opacity="0.046875"/>
<stop offset="0.520933" stop-color="#DFDBDB" stop-opacity="0.54"/>
<stop offset="1" stop-opacity="0"/>
</linearGradient>
<linearGradient id="paint4_linear" x1="253.87" y1="12.0735" x2="253.167" y2="68.7768" gradientUnits="userSpaceOnUse">
<stop offset="0.520833" stop-opacity="0.046875"/>
<stop offset="0.520933" stop-color="#DFDBDB" stop-opacity="0.54"/>
<stop offset="1" stop-opacity="0"/>
</linearGradient>
<linearGradient id="paint5_linear" x1="313.747" y1="12.0774" x2="313.022" y2="68.7768" gradientUnits="userSpaceOnUse">
<stop offset="0.520833" stop-opacity="0.046875"/>
<stop offset="0.520933" stop-color="#DFDBDB" stop-opacity="0.54"/>
<stop offset="1" stop-opacity="0"/>
</linearGradient>
</defs>
</svg>
