<svg width="248" height="142" viewBox="0 0 248 142" fill="none" xmlns="http://www.w3.org/2000/svg">
<g opacity="0.05">
<path d="M184.181 -35.0997C194.636 -35.2357 205.023 -35.1684 215.411 -35.1684V45.4078C183.027 45.4764 150.644 45.4078 118.259 45.4078C117.241 45.4078 116.222 45.4764 115.204 45.6124C116.426 47.0404 118.123 47.8563 119.686 48.9436C120.975 48.1276 122.13 46.6997 123.759 46.7677H153.699C156.075 46.6997 157.841 48.6723 159.605 49.9635C162.321 48.4676 165.24 46.5637 168.499 46.7677H227.293V50.5075H248V101.165C247.525 105.994 244.741 110.957 240.192 113.065C237.952 114.22 235.508 115.173 233.064 115.444H212.697C207.673 115.24 202.174 113.473 199.458 108.985C196.064 103.75 196.946 97.2213 197.082 91.3056H184.726C184.59 97.3573 184.795 103.41 184.657 109.529C190.972 110.278 197.149 114.833 197.896 121.497C198.032 135.845 197.896 150.124 197.896 164.471C197.625 170.862 191.854 176.165 185.607 176.845C177.868 176.845 170.128 176.777 162.389 176.845C158.995 176.845 155.735 175.418 153.02 173.446C150.373 175.215 147.453 176.777 144.194 176.777C136.251 176.845 128.308 176.777 120.297 176.845C116.292 176.915 112.625 174.875 109.638 172.29C106.515 175.215 102.306 177.119 97.9613 176.845C90.0181 176.575 82.007 177.39 74.131 176.301C71.2796 177.117 68.2924 176.777 65.3738 176.845C55.3939 176.845 45.414 176.777 35.502 176.845C29.0524 177.255 22.8065 172.562 21.3129 166.375C21.1771 152.096 21.3129 137.817 21.245 123.537C21.0407 119.798 22.9423 116.262 25.6579 113.813C28.5772 110.889 32.7178 109.938 36.6555 109.189C33.9399 106.334 32.5821 102.39 32.7864 98.5139V78.1149C31.6323 78.0462 30.5453 78.0462 29.3919 78.0462V60.5717C19.6829 60.5717 9.90732 60.503 0.198981 60.5717V-2.86994C0.266872 -5.7938 -0.140471 -8.78498 0.877886 -11.6408C2.9146 -17.0806 8.00638 -21.2964 13.7771 -22.0443C34.8231 -22.113 55.8692 -22.0443 76.9152 -22.0443C80.7171 -22.1803 84.3832 -20.4131 87.0988 -17.7605C90.4248 -21.2291 95.3808 -22.249 99.998 -22.1123C106.922 -21.9763 113.916 -22.3836 120.84 -21.7037C122.673 -21.0924 124.574 -22.0437 126.407 -21.9084H156.347C161.031 -22.0437 165.852 -21.0237 169.517 -18.0325C173.251 -21.9763 179.09 -22.5203 184.182 -22.1123L184.181 -35.0997Z" fill="#1C1C1E"/>
<path d="M192.531 -26.8042C197.623 -27.2128 202.783 -26.9402 207.942 -27.0088V36.9081C198.641 36.9081 189.407 36.9768 180.175 36.9081C176.713 36.7041 172.639 34.3929 172.639 30.5171V-7.69707C172.774 -11.5049 176.644 -13.8168 180.107 -14.0208C184.181 -14.2248 188.322 -14.0208 192.462 -14.0894C192.531 -18.3046 192.462 -22.5884 192.531 -26.8042ZM8.07263 -7.62907C8.14052 -11.7089 12.3497 -14.0201 16.0158 -14.0201C24.9774 -14.1561 33.9382 -14.0201 42.9004 -14.0888C43.0362 6.17495 42.9004 26.5053 42.969 46.837C43.1041 50.3048 39.3029 52.5481 36.18 52.888C26.8104 52.9567 17.4415 52.888 8.00542 52.888C8.07331 48.8769 7.80107 44.8644 8.20909 40.8533C14.7945 40.7846 21.4477 40.8533 28.0331 40.7846V36.9768C23.6202 36.7048 19.2073 37.1808 14.8624 36.7048C11.3321 36.5008 7.73386 33.577 8.00542 29.7691C8.00474 17.3257 7.93685 4.81433 8.07263 -7.62907ZM49.35 -14.0208C57.8363 -14.2248 66.3912 -14.0208 74.8775 -14.0894C78.0005 -14.2248 81.5308 -13.4775 83.3638 -10.6896C84.7895 -8.85369 84.3136 -6.40513 84.3822 -4.22991C84.3136 0.0545616 84.5173 4.33836 84.3136 8.55416C83.9742 10.4581 81.598 10.6621 80.2402 11.4093C81.8017 12.158 84.3822 12.5653 84.3822 14.8092C84.4501 23.5134 84.3822 32.1484 84.3822 40.8526C88.7951 40.8526 93.208 40.7839 97.5523 40.8526C97.688 45.6124 97.5523 50.4402 97.6208 55.2673C101.829 55.3359 106.039 55.1992 110.181 55.2673C113.71 55.3359 117.444 58.0558 117.444 61.8629C117.513 77.0262 117.444 92.2575 117.444 107.421C112.352 107.489 107.193 107.489 102.034 107.421C102.034 94.0927 102.102 80.766 102.034 67.5067H97.6208V107.421C92.4605 107.489 87.3015 107.489 82.2097 107.421C82.1411 89.2656 82.1411 71.0425 82.1411 52.8874C79.0182 52.6834 75.4879 53.5673 72.6365 51.7994C70.8041 50.7795 68.9711 49.0115 69.1068 46.8356V17.5284H64.5582C64.4896 23.9201 64.5582 30.3124 64.4896 36.7035C59.4664 37.0434 54.306 37.0434 49.2828 36.7035C49.2821 19.8416 49.1464 2.91043 49.35 -14.0208Z" fill="white"/>
<path d="M90.4919 -7.69722C90.2203 -11.641 94.7004 -14.0209 98.1635 -14.0889C104.613 -14.1569 111.063 -14.0889 117.58 -14.0889C121.246 -14.0889 125.456 -11.6404 125.591 -7.56055C125.66 7.26274 125.591 22.086 125.591 36.9086H98.6394C95.3128 36.9086 91.3066 35.2087 90.5604 31.7409C90.4247 25.1452 90.5605 18.6175 90.4926 12.0218C90.0173 8.554 93.6827 6.24211 96.6027 5.42615C101.151 5.08617 105.632 5.42615 110.181 5.29016V-1.8495H105.496C105.428 -0.829552 105.428 0.1904 105.361 1.21035H90.4932C90.4919 -1.78151 90.4919 -4.70537 90.4919 -7.69722ZM131.634 -14.0209C136.657 -14.1569 141.749 -14.0896 146.774 -14.0896C146.842 -12.865 146.842 -11.641 146.842 -10.4178C150.305 -13.1376 154.785 -14.0216 159.063 -14.0216C162.186 -13.9536 165.783 -12.1177 166.462 -8.92184C166.666 6.37743 166.326 21.608 166.733 36.9073H151.458C151.593 23.9879 151.661 11.1372 151.526 -1.78218C149.964 -1.85086 148.402 -1.85086 146.842 -1.85086C146.774 11.0685 146.91 23.9879 146.842 36.9073H131.567C131.566 19.9095 131.498 2.91027 131.634 -14.0209Z" fill="white"/>
<path d="M23.2808 -1.84937H27.8287C27.8973 6.99022 27.8287 15.8298 27.8973 24.6694H23.2808V-1.84937ZM64.4896 -1.84937H69.1068V5.2903H64.4896C64.5582 2.91041 64.5582 0.530522 64.4896 -1.84937ZM187.915 -1.84937H192.463C192.463 6.99022 192.532 15.8298 192.463 24.6694H187.915V-1.84937ZM105.563 17.5297H110.181V24.6694H105.632C105.632 22.2895 105.563 19.9096 105.563 17.5297Z" fill="#1C1C1E"/>
<path d="M49.419 42.8926C54.0355 42.8926 58.6521 42.8239 63.3365 42.8926V48.8076H49.419V42.8926ZM41.1363 55.472C46.2281 55.0633 51.2513 55.336 56.3431 55.336C56.3431 56.3559 56.4117 57.4439 56.4117 58.4638C62.9971 58.5325 69.6503 58.5325 76.2357 58.4638V70.5673H56.3431C56.4117 78.3869 56.4117 86.2065 56.3431 94.0262H60.9603V74.6471H76.2357C76.2357 83.2827 76.3036 91.9183 76.1671 100.486C76.2357 104.43 72.5689 107.422 68.835 107.286C61.7744 107.286 54.7137 107.354 47.721 107.286C43.9185 107.082 41.0671 103.478 41.0671 99.8059C41.0671 90.0824 41.1357 80.3588 41.0671 70.5673C39.7093 70.5673 38.3515 70.5673 36.9937 70.4993C37.0622 66.4875 37.0622 62.5436 36.9937 58.5318C38.3515 58.5318 39.7093 58.4632 41.0671 58.4632C41.0678 57.4439 41.1363 56.4239 41.1363 55.472ZM122.197 61.6597C121.993 57.9879 125.862 55.472 129.19 55.336C135.979 55.2 142.768 55.2673 149.557 55.2673C153.223 55.1993 157.365 57.7159 157.365 61.659V86.8858C150.711 86.8858 144.126 86.8178 137.472 86.8858C137.472 89.2657 137.541 91.6456 137.541 94.0255H142.022C142.091 93.0055 142.091 91.9176 142.157 90.8303C147.181 90.7616 152.273 90.8303 157.365 90.7616C157.229 94.4328 157.636 98.1726 157.093 101.777C156.414 105.585 152.477 107.625 148.879 107.488C142.36 107.419 135.775 107.557 129.19 107.352C125.591 107.217 122.197 104.292 122.265 100.552C122.197 87.5665 122.265 74.6471 122.197 61.6597ZM162.117 61.6597C161.981 57.9879 165.851 55.472 169.246 55.268H197.284C197.216 59.3478 197.284 63.4276 197.216 67.5074H177.393V71.1792C184.046 71.3152 190.631 71.1792 197.284 71.2472C197.216 75.327 197.216 79.4069 197.284 83.4867C190.631 83.5553 184.046 83.4187 177.393 83.4867C177.324 91.511 177.393 99.4659 177.393 107.422C172.301 107.49 167.209 107.49 162.117 107.422V61.6597ZM204.617 55.268C209.708 55.3367 214.869 55.268 219.961 55.268C219.961 56.3566 220.029 57.4439 220.029 58.4638C226.614 58.5325 233.268 58.5325 239.853 58.4638V70.5673C233.268 70.5673 226.614 70.4993 220.029 70.5673C219.961 78.3869 219.961 86.2065 220.029 94.0262H224.578V74.6471H239.853V101.235C239.785 104.499 236.526 106.539 233.674 107.219C226.885 107.423 220.096 107.083 213.307 107.423C210.321 107.559 207.061 106.334 205.568 103.614C204.481 101.643 204.55 99.2633 204.55 97.086C204.55 88.2464 204.482 79.4069 204.618 70.5673C203.26 70.5673 201.972 70.5673 200.614 70.4993C200.682 66.4875 200.682 62.5436 200.614 58.5318C201.902 58.4632 203.194 58.4632 204.483 58.4632C204.549 57.3759 204.549 56.288 204.617 55.268Z" fill="white"/>
<path d="M137.472 67.5071H142.089V74.6468H137.472V67.5071Z" fill="#1C1C1E"/>
<path d="M29.4578 122.312C30.4083 118.913 34.1422 117.009 37.5368 117.144C44.0542 117.213 50.6396 117.076 57.225 117.213C60.4837 117.349 64.2177 119.524 64.3535 123.128V168.278C55.1883 168.346 46.0231 168.346 36.9257 168.278C33.9386 168.142 30.4761 166.646 29.4578 163.654C29.322 156.242 29.322 148.83 29.4578 141.419C30.8835 138.768 33.667 136.523 36.79 136.523C40.932 136.523 45.1405 136.592 49.2818 136.523C49.2132 134.143 49.2818 131.763 49.2132 129.383H44.7325C44.6646 130.403 44.6646 131.423 44.5967 132.443H29.3899C29.4578 129.045 29.2541 125.712 29.4578 122.312ZM70.8031 117.145H85.739C85.739 130.065 85.6704 142.984 85.739 155.904C87.3005 155.904 88.862 155.904 90.3555 155.972C90.287 143.053 90.3555 130.133 90.3555 117.145H105.427C105.359 132.649 105.495 148.153 105.359 163.655C104.272 166.85 100.471 168.346 97.2804 168.143C90.7622 168.075 84.1768 168.212 77.5921 168.143C74.3327 167.872 70.3279 165.492 70.8031 161.752V117.145ZM114.321 117.145H129.46C129.529 118.234 129.529 119.321 129.596 120.341C136.181 120.341 142.766 120.41 149.352 120.341C149.149 124.421 149.217 128.501 149.217 132.581C142.699 132.649 136.114 132.581 129.529 132.649C129.46 140.4 129.597 148.153 129.46 155.904C131.089 155.904 132.719 155.904 134.348 155.972C134.213 149.513 134.348 143.053 134.28 136.524H149.216C149.147 144.889 149.284 153.252 149.216 161.615C149.284 165.626 145.074 168.279 141.476 168.143H121.72C118.733 168.143 115.474 166.512 114.32 163.588C114.117 153.32 114.32 142.984 114.252 132.649C112.962 132.649 111.672 132.581 110.383 132.581C110.383 128.501 110.314 124.421 110.383 120.41H114.184C114.253 119.321 114.253 118.233 114.321 117.145ZM160.622 117.485C162.116 117.01 163.677 117.145 165.171 117.145C171.281 117.214 177.391 117.077 183.501 117.145C186.896 117.35 190.698 119.865 190.63 123.537V159.643C190.63 161.343 190.561 163.043 189.747 164.539C188.185 167.055 185.063 168.279 182.143 168.143C175.625 168.143 169.04 168.212 162.455 168.143C159.129 167.872 155.327 165.423 155.53 161.752C155.462 149.037 155.53 136.253 155.462 123.538C155.259 120.545 157.974 118.301 160.622 117.485Z" fill="white"/>
<path d="M170.738 129.385H175.355C175.286 138.224 175.423 147.064 175.355 155.835C173.793 155.903 172.3 155.903 170.806 155.971C170.67 147.131 170.806 138.224 170.738 129.385ZM44.6657 148.764H49.2823C49.2137 151.144 49.2137 153.456 49.4181 155.768C47.7887 155.903 46.1586 155.904 44.5972 155.972C44.6657 153.591 44.6657 151.144 44.6657 148.764Z" fill="#1C1C1E"/>
</g>
</svg>
