<svg width="363" height="311" viewBox="0 0 363 311" fill="none" xmlns="http://www.w3.org/2000/svg">
<g opacity="0.05">
<path d="M269.348 0.124916C284.651 -0.0741501 299.856 0.0243874 315.062 0.0243874V117.971C267.659 118.071 220.256 117.971 172.852 117.971C171.361 117.971 169.871 118.071 168.38 118.27C170.169 120.361 172.653 121.555 174.94 123.147C176.827 121.952 178.517 119.862 180.902 119.961H224.728C228.206 119.862 230.791 122.749 233.374 124.64C237.349 122.45 241.622 119.663 246.393 119.961H332.455V125.436H362.765V199.588C362.069 206.656 357.995 213.921 351.337 217.006C348.057 218.698 344.479 220.093 340.902 220.49H311.089C303.735 220.191 295.685 217.604 291.71 211.034C286.741 203.371 288.033 193.815 288.232 185.156H270.145C269.947 194.014 270.246 202.873 270.045 211.831C279.288 212.927 288.329 219.595 289.423 229.35C289.622 250.352 289.423 271.253 289.423 292.254C289.027 301.609 280.58 309.372 271.435 310.368C260.107 310.368 248.777 310.268 237.449 310.368C232.48 310.368 227.709 308.278 223.734 305.391C219.859 307.981 215.586 310.268 210.815 310.268C199.189 310.368 187.562 310.268 175.834 310.368C169.972 310.469 164.605 307.483 160.232 303.7C155.661 307.981 149.499 310.768 143.14 310.368C131.513 309.972 119.786 311.165 108.258 309.572C104.084 310.766 99.7112 310.268 95.439 310.368C80.8305 310.368 66.2221 310.268 51.713 310.368C42.2722 310.967 33.1295 304.097 30.9432 295.042C30.7444 274.14 30.9432 253.238 30.8438 232.336C30.5446 226.862 33.3282 221.686 37.3033 218.102C41.5765 213.822 47.6375 212.429 53.4014 211.334C49.4263 207.153 47.4388 201.38 47.7379 195.707V165.847C46.0485 165.747 44.4575 165.747 42.769 165.747V140.168C28.5571 140.168 14.2478 140.067 0.0368188 140.168V47.3025C0.136196 43.0226 -0.460068 38.6441 1.03059 34.4638C4.01191 26.5011 11.4652 20.3301 19.9123 19.2352C50.7192 19.1347 81.5262 19.2352 112.333 19.2352C117.898 19.0362 123.265 21.623 127.24 25.5058C132.108 20.4286 139.363 18.9356 146.121 19.1357C156.257 19.3348 166.494 18.7386 176.629 19.7339C179.312 20.6287 182.095 19.2362 184.778 19.4343H228.605C235.461 19.2362 242.517 20.7292 247.883 25.1077C253.349 19.3348 261.896 18.5385 269.349 19.1357L269.348 0.124916Z" fill="#1C1C1E"/>
<path d="M281.572 12.2681C289.025 11.6699 296.579 12.069 304.131 11.9685V105.529C290.516 105.529 277 105.63 263.485 105.529C258.417 105.231 252.455 101.848 252.455 96.1743V40.2368C252.652 34.663 258.317 31.2788 263.386 30.9802C269.349 30.6816 275.411 30.9802 281.472 30.8797C281.572 24.7097 281.472 18.4391 281.572 12.2681ZM11.564 40.3363C11.6634 34.3644 17.8248 30.9812 23.1912 30.9812C36.309 30.7822 49.4258 30.9812 62.5446 30.8807C62.7433 60.5425 62.5446 90.3018 62.6449 120.063C62.8427 125.139 57.2786 128.423 52.7072 128.921C38.9922 129.021 25.2781 128.921 11.4656 128.921C11.565 123.049 11.1665 117.176 11.7638 111.304C21.4034 111.204 31.1424 111.304 40.7819 111.204V105.63C34.3224 105.232 27.8629 105.928 21.5028 105.232C16.3351 104.933 11.0681 100.653 11.4656 95.0794C11.4647 76.8649 11.3653 58.5508 11.564 40.3363ZM71.9854 30.9802C84.4076 30.6816 96.9301 30.9802 109.352 30.8797C113.924 30.6816 119.091 31.7755 121.774 35.8564C123.861 38.5437 123.165 42.1279 123.265 45.312C123.165 51.5835 123.463 57.8541 123.165 64.0252C122.668 66.8121 119.19 67.1107 117.202 68.2045C119.488 69.3004 123.265 69.8966 123.265 73.1812C123.364 85.9224 123.265 98.5621 123.265 111.303C129.725 111.303 136.184 111.203 142.543 111.303C142.742 118.271 142.543 125.337 142.644 132.403C148.804 132.504 154.965 132.304 161.028 132.403C166.195 132.504 171.661 136.485 171.661 142.058C171.761 164.254 171.661 186.549 171.661 208.745C164.208 208.845 156.655 208.845 149.103 208.745C149.103 189.236 149.203 169.728 149.103 150.319H142.644V208.745C135.09 208.845 127.538 208.845 120.085 208.745C119.985 182.17 119.985 155.495 119.985 128.92C115.413 128.621 110.246 129.915 106.072 127.327C103.39 125.834 100.706 123.246 100.905 120.061V77.1615H94.2469C94.1466 86.5176 94.2469 95.8747 94.1466 105.23C86.7936 105.727 79.24 105.727 71.887 105.23C71.886 80.5476 71.6873 55.7639 71.9854 30.9802Z" fill="white"/>
<path d="M132.207 40.2368C131.81 34.4638 138.368 30.9802 143.437 30.8807C152.878 30.7811 162.319 30.8807 171.859 30.8807C177.225 30.8807 183.388 34.4648 183.585 40.4368C183.686 62.135 183.585 83.8331 183.585 105.53H144.134C139.264 105.53 133.4 103.042 132.308 97.9658C132.109 88.3111 132.308 78.756 132.208 69.1013C131.513 64.0251 136.878 60.641 141.152 59.4466C147.81 58.9489 154.369 59.4466 161.028 59.2475V48.7966H154.171C154.071 50.2896 154.071 51.7826 153.972 53.2756H132.209C132.207 48.8961 132.207 44.6162 132.207 40.2368ZM192.43 30.9802C199.784 30.7811 207.237 30.8797 214.592 30.8797C214.692 32.6723 214.692 34.4638 214.692 36.2544C219.761 32.2731 226.319 30.9792 232.58 30.9792C237.152 31.0787 242.418 33.7661 243.411 38.4442C243.71 60.8391 243.213 83.1334 243.808 105.528H221.448C221.647 86.6171 221.746 67.8064 221.548 48.8951C219.262 48.7946 216.976 48.7946 214.692 48.7946C214.592 67.7058 214.792 86.6171 214.692 105.528H192.333C192.331 80.6471 192.231 55.7639 192.43 30.9802Z" fill="white"/>
<path d="M33.8247 48.7964H40.482C40.5824 61.7357 40.482 74.6749 40.5824 87.6142H33.8247V48.7964ZM94.1457 48.7964H100.904V59.2473H94.1457C94.2461 55.7637 94.2461 52.28 94.1457 48.7964ZM274.815 48.7964H281.472C281.472 61.7357 281.572 74.6749 281.472 87.6142H274.815V48.7964ZM154.269 77.1633H161.028V87.6142H154.369C154.369 84.1306 154.269 80.6469 154.269 77.1633Z" fill="#1C1C1E"/>
<path d="M72.084 114.289C78.8417 114.289 85.5993 114.189 92.4564 114.289V122.948H72.084V114.289ZM59.96 132.703C67.4133 132.105 74.7662 132.504 82.2195 132.504C82.2195 133.997 82.3199 135.589 82.3199 137.082C91.9595 137.183 101.698 137.183 111.338 137.082V154.799H82.2195C82.3199 166.245 82.3199 177.692 82.2195 189.138H88.9782V160.771H111.338C111.338 173.412 111.437 186.053 111.238 198.594C111.338 204.368 105.971 208.746 100.505 208.547C90.1697 208.547 79.8345 208.647 69.5986 208.547C64.0325 208.248 59.8586 202.973 59.8586 197.598C59.8586 183.365 59.959 169.132 59.8586 154.799C57.8711 154.799 55.8835 154.799 53.896 154.7C53.9964 148.827 53.9964 143.054 53.896 137.182C55.8835 137.182 57.8711 137.081 59.8586 137.081C59.8596 135.589 59.96 134.096 59.96 132.703ZM178.615 141.76C178.317 136.386 183.981 132.703 188.852 132.504C198.79 132.305 208.728 132.403 218.666 132.403C224.031 132.304 230.094 135.987 230.094 141.759V178.686C220.354 178.686 210.715 178.587 200.975 178.686C200.975 182.17 201.076 185.653 201.076 189.137H207.636C207.736 187.644 207.736 186.052 207.833 184.46C215.187 184.359 222.641 184.46 230.094 184.359C229.895 189.733 230.49 195.208 229.696 200.484C228.703 206.058 222.939 209.044 217.672 208.844C208.131 208.743 198.491 208.944 188.852 208.645C183.584 208.446 178.615 204.166 178.716 198.691C178.615 179.682 178.716 160.771 178.615 141.76ZM237.05 141.76C236.852 136.386 242.516 132.703 247.485 132.404H288.528C288.427 138.376 288.528 144.348 288.427 150.32H259.41V155.695C269.149 155.894 278.789 155.695 288.528 155.795C288.427 161.767 288.427 167.738 288.528 173.71C278.789 173.811 269.149 173.611 259.41 173.71C259.31 185.456 259.41 197.101 259.41 208.746C251.957 208.847 244.504 208.847 237.05 208.746V141.76ZM299.26 132.404C306.714 132.505 314.267 132.404 321.721 132.404C321.721 133.998 321.821 135.589 321.821 137.082C331.461 137.183 341.2 137.183 350.839 137.082V154.799C341.2 154.799 331.461 154.7 321.821 154.799C321.721 166.245 321.721 177.692 321.821 189.138H328.479V160.771H350.839V199.69C350.739 204.468 345.97 207.454 341.795 208.449C331.857 208.748 321.919 208.25 311.982 208.748C307.61 208.947 302.839 207.155 300.654 203.173C299.063 200.288 299.163 196.804 299.163 193.617C299.163 180.678 299.063 167.738 299.262 154.799C297.275 154.799 295.389 154.799 293.401 154.7C293.501 148.827 293.501 143.054 293.401 137.182C295.287 137.081 297.178 137.081 299.065 137.081C299.161 135.49 299.161 133.897 299.26 132.404Z" fill="white"/>
<path d="M200.976 150.32H207.734V160.771H200.976V150.32Z" fill="#1C1C1E"/>
<path d="M42.8664 230.543C44.2576 225.566 49.7234 222.779 54.6922 222.977C64.2325 223.078 73.8721 222.878 83.5117 223.078C88.2818 223.277 93.7475 226.461 93.9463 231.737V297.826C80.5303 297.925 67.1144 297.925 53.7979 297.826C49.4253 297.627 44.357 295.438 42.8664 291.058C42.6676 280.208 42.6676 269.358 42.8664 258.51C44.9533 254.63 49.0277 251.344 53.5991 251.344C59.6621 251.344 65.8225 251.444 71.8845 251.344C71.7841 247.86 71.8845 244.377 71.7841 240.893H65.2252C65.1259 242.386 65.1259 243.879 65.0265 245.372H42.767C42.8664 240.397 42.5682 235.519 42.8664 230.543ZM103.387 222.979H125.25C125.25 241.89 125.15 260.802 125.25 279.713C127.536 279.713 129.821 279.713 132.008 279.813C131.907 260.902 132.008 241.991 132.008 222.979H154.07C153.969 245.674 154.169 268.367 153.969 291.06C152.379 295.737 146.814 297.925 142.144 297.629C132.603 297.529 122.963 297.729 113.325 297.629C108.554 297.232 102.691 293.748 103.387 288.274V222.979ZM167.088 222.979H189.249C189.349 224.573 189.349 226.164 189.447 227.657C199.086 227.657 208.726 227.758 218.367 227.657C218.068 233.629 218.169 239.601 218.169 245.573C208.628 245.674 198.988 245.573 189.349 245.674C189.249 257.019 189.449 268.367 189.249 279.713C191.633 279.713 194.019 279.713 196.403 279.813C196.205 270.358 196.403 260.902 196.304 251.346H218.167C218.066 263.589 218.266 275.832 218.167 288.074C218.266 293.945 212.104 297.828 206.838 297.629H177.919C173.546 297.629 168.776 295.241 167.087 290.961C166.789 275.931 167.087 260.802 166.988 245.674C165.099 245.674 163.21 245.573 161.323 245.573C161.323 239.601 161.223 233.629 161.323 227.758H166.888C166.989 226.164 166.989 224.571 167.088 222.979ZM234.863 223.477C237.05 222.781 239.335 222.979 241.522 222.979C250.465 223.08 259.409 222.88 268.353 222.979C273.322 223.279 278.887 226.96 278.788 232.335V285.187C278.788 287.675 278.688 290.164 277.495 292.353C275.209 296.036 270.639 297.828 266.366 297.629C256.825 297.629 247.185 297.729 237.546 297.629C232.677 297.232 227.112 293.647 227.41 288.274C227.31 269.662 227.41 250.949 227.31 232.337C227.012 227.956 230.988 224.671 234.863 223.477Z" fill="white"/>
<path d="M249.67 240.895H256.429C256.328 253.835 256.528 266.774 256.429 279.614C254.142 279.713 251.957 279.713 249.77 279.812C249.571 266.872 249.77 253.835 249.67 240.895ZM65.1272 269.262H71.8849C71.7845 272.746 71.7845 276.13 72.0836 279.515C69.6986 279.713 67.3125 279.713 65.0269 279.814C65.1272 276.328 65.1272 272.746 65.1272 269.262Z" fill="#1C1C1E"/>
</g>
</svg>
