<svg width="115" height="98" viewBox="0 0 115 98" fill="none" xmlns="http://www.w3.org/2000/svg">
<path d="M84.7727 0.039315C89.5891 -0.0233375 94.3745 0.00767552 99.1602 0.00767552V37.1293C84.241 37.1609 69.3217 37.1293 54.4021 37.1293C53.933 37.1293 53.4638 37.1609 52.9947 37.2236C53.5577 37.8814 54.3396 38.2573 55.0593 38.7582C55.6532 38.3823 56.1853 37.7245 56.9359 37.7558H70.7292C71.8239 37.7245 72.6374 38.6332 73.4503 39.2281C74.7014 38.5389 76.0463 37.6618 77.548 37.7558H104.634V39.4787H114.174V62.8168C113.955 65.0413 112.673 67.3278 110.577 68.2989C109.545 68.8314 108.419 69.2703 107.293 69.3953H97.9098C95.5952 69.3013 93.0618 68.4871 91.8107 66.4193C90.2468 64.0075 90.6534 60.9999 90.716 58.2745H85.0235C84.961 61.0625 85.0551 63.8509 84.9919 66.6702C87.901 67.0151 90.7466 69.1137 91.091 72.184C91.1536 78.7938 91.091 85.3723 91.091 91.9818C90.9662 94.9262 88.3076 97.3696 85.4295 97.6829C81.8642 97.6829 78.2983 97.6516 74.733 97.6829C73.1691 97.6829 71.6675 97.025 70.4164 96.1166C69.1969 96.9317 67.852 97.6516 66.3504 97.6516C62.6912 97.6829 59.0318 97.6516 55.3408 97.6829C53.4957 97.7148 51.8064 96.775 50.4302 95.5843C48.9915 96.9317 47.0523 97.8088 45.0509 97.6829C41.3914 97.5582 37.7007 97.9338 34.0722 97.4323C32.7586 97.8082 31.3824 97.6516 30.0378 97.6829C25.44 97.6829 20.8423 97.6516 16.2758 97.6829C13.3044 97.8715 10.4269 95.7093 9.73882 92.8593C9.67626 86.2808 9.73882 79.7023 9.70754 73.1237C9.6134 71.4008 10.4895 69.7718 11.7406 68.6438C13.0855 67.2967 14.9931 66.8585 16.8072 66.5136C15.5561 65.1979 14.9305 63.381 15.0247 61.5954V52.1975C14.493 52.1659 13.9922 52.1659 13.4608 52.1659V44.1153C8.98785 44.1153 4.48424 44.0837 0.0115881 44.1153V14.8876C0.0428653 13.5406 -0.144798 12.1626 0.324361 10.8469C1.26268 8.34077 3.60847 6.39854 6.26704 6.05395C15.963 6.02231 25.659 6.05395 35.3549 6.05395C37.1064 5.9913 38.7954 6.80547 40.0465 8.02751C41.5788 6.42955 43.862 5.95966 45.9892 6.02263C49.1792 6.08528 52.401 5.89763 55.591 6.2109C56.4355 6.49252 57.3112 6.05427 58.1557 6.11661H71.9493C74.1071 6.05427 76.3281 6.52416 78.0168 7.9022C79.737 6.08528 82.4272 5.83467 84.773 6.02263L84.7727 0.039315Z" fill="#1C1C1E"/>
<path d="M88.6194 3.86106C90.9652 3.67279 93.3426 3.79841 95.7194 3.76677V33.2134C91.4344 33.2134 87.1803 33.2451 82.9269 33.2134C81.3318 33.1195 79.4552 32.0547 79.4552 30.2691V12.6637C79.5174 10.9095 81.3002 9.84437 82.8957 9.75039C84.7723 9.65642 86.6802 9.75039 88.5878 9.71875C88.6194 7.77684 88.5878 5.80329 88.6194 3.86106ZM3.63906 12.6951C3.67034 10.8155 5.60953 9.75071 7.2985 9.75071C11.4271 9.68806 15.5554 9.75071 19.6843 9.71907C19.7469 19.0546 19.6843 28.4208 19.7159 37.7877C19.7781 39.3853 18.0269 40.4188 16.5882 40.5754C12.2716 40.6071 7.95533 40.5754 3.6081 40.5754C3.63937 38.7275 3.51395 36.8789 3.70193 35.031C6.73582 34.9993 9.801 35.031 12.8349 34.9993V33.2451C10.8019 33.1198 8.76885 33.3391 6.7671 33.1198C5.14068 33.0258 3.48299 31.6788 3.6081 29.9245C3.60778 24.1918 3.57651 18.4278 3.63906 12.6951ZM22.6556 9.75039C26.5653 9.65642 30.5066 9.75039 34.4162 9.71875C35.855 9.65641 37.4814 10.0007 38.3259 11.2851C38.9827 12.1309 38.7634 13.2589 38.795 14.2611C38.7634 16.2349 38.8573 18.2085 38.7634 20.1507C38.6071 21.0278 37.5124 21.1218 36.8868 21.4661C37.6062 21.811 38.795 21.9986 38.795 23.0324C38.8263 27.0425 38.795 31.0206 38.795 35.0307C40.8281 35.0307 42.8611 34.999 44.8625 35.0307C44.9251 37.2235 44.8625 39.4477 44.8941 41.6715C46.833 41.7032 48.7722 41.6402 50.6804 41.6715C52.3065 41.7032 54.0267 42.9562 54.0267 44.7102C54.0583 51.6959 54.0267 58.713 54.0267 65.6987C51.681 65.7304 49.3039 65.7304 46.9271 65.6987C46.9271 59.5585 46.9584 53.4189 46.9271 47.3102H44.8941V65.6987C42.5167 65.7304 40.14 65.7304 37.7942 65.6987C37.7626 57.3346 37.7626 48.9392 37.7626 40.5751C36.3238 40.4811 34.6974 40.8884 33.3837 40.0739C32.5396 39.604 31.6951 38.7895 31.7576 37.7871V24.2851H29.6621C29.6305 27.2298 29.6621 30.1748 29.6305 33.1191C27.3163 33.2758 24.9389 33.2758 22.6247 33.1191C22.6244 25.3509 22.5618 17.5506 22.6556 9.75039Z" fill="white"/>
<path d="M41.6098 12.6637C41.4847 10.8467 43.5487 9.75033 45.1441 9.719C48.1155 9.68767 51.0868 9.719 54.0894 9.719C55.7784 9.719 57.7179 10.8471 57.7801 12.7266C57.8117 19.5558 57.7801 26.3849 57.7801 33.2137H45.3634C43.8308 33.2137 41.9851 32.4305 41.6414 30.8329C41.5788 27.7942 41.6414 24.7869 41.6101 21.7483C41.3912 20.1506 43.0798 19.0855 44.4251 18.7096C46.5203 18.553 48.5849 18.7096 50.6805 18.647V15.3577H48.5224C48.4911 15.8276 48.4911 16.2975 48.4598 16.7674H41.6104C41.6098 15.3891 41.6098 14.042 41.6098 12.6637ZM60.5638 9.75033C62.8783 9.68767 65.2241 9.71869 67.539 9.71869C67.5706 10.2829 67.5706 10.8467 67.5706 11.4103C69.1657 10.1573 71.2297 9.75001 73.2005 9.75001C74.6392 9.78134 76.2966 10.6271 76.6094 12.0995C76.7032 19.1479 76.5468 26.1647 76.7342 33.2131H69.6968C69.7593 27.2611 69.7906 21.3407 69.7284 15.3887C69.0087 15.3571 68.2893 15.3571 67.5706 15.3571C67.539 21.3091 67.6018 27.2611 67.5706 33.2131H60.5332C60.5325 25.3821 60.5013 17.5506 60.5638 9.75033Z" fill="white"/>
<path d="M10.6455 15.3579H12.7408C12.7724 19.4303 12.7408 23.5027 12.7724 27.5751H10.6455V15.3579ZM29.6305 15.3579H31.7577V18.6472H29.6305C29.6621 17.5507 29.6621 16.4543 29.6305 15.3579ZM86.4929 15.3579H88.5882C88.5882 19.4303 88.6197 23.5027 88.5882 27.5751H86.4929V15.3579ZM48.5532 24.2859H50.6804V27.5751H48.5848C48.5848 26.4787 48.5532 25.3823 48.5532 24.2859Z" fill="#1C1C1E"/>
<path d="M22.6873 35.9706C24.8141 35.9706 26.941 35.939 29.0991 35.9706V38.6957H22.6873V35.9706ZM18.8714 41.766C21.2172 41.5777 23.5314 41.7033 25.8772 41.7033C25.8772 42.1732 25.9088 42.6744 25.9088 43.1443C28.9427 43.176 32.0079 43.176 35.0418 43.1443V48.7204H25.8772C25.9088 52.3229 25.9088 55.9254 25.8772 59.5279H28.0044V50.6H35.0418C35.0418 54.5784 35.0731 58.5568 35.0102 62.5039C35.0418 64.3212 33.3525 65.6992 31.6322 65.6366C28.3794 65.6366 25.1266 65.6682 21.905 65.6366C20.1532 65.5426 18.8395 63.8823 18.8395 62.1907C18.8395 57.711 18.8711 53.2314 18.8395 48.7204C18.214 48.7204 17.5884 48.7204 16.9629 48.6891C16.9945 46.8408 16.9945 45.0239 16.9629 43.1756C17.5884 43.1756 18.214 43.144 18.8395 43.144C18.8398 42.6744 18.8714 42.2045 18.8714 41.766ZM56.2162 44.6167C56.1224 42.925 57.9048 41.766 59.4381 41.7033C62.5658 41.6407 65.6935 41.6717 68.8212 41.6717C70.5099 41.6403 72.4181 42.7997 72.4181 44.6163V56.2384C69.3526 56.2384 66.3191 56.2071 63.2536 56.2384C63.2536 57.3348 63.2852 58.4312 63.2852 59.5276H65.3498C65.3814 59.0577 65.3814 58.5565 65.412 58.0556C67.7265 58.024 70.0723 58.0556 72.4181 58.024C72.3556 59.7153 72.5429 61.4382 72.293 63.0988C71.9802 64.8531 70.1662 65.7929 68.5085 65.7299C65.5055 65.6983 62.4716 65.7616 59.4381 65.6673C57.78 65.6049 56.2162 64.2576 56.2478 62.5346C56.2162 56.552 56.2478 50.6 56.2162 44.6167ZM74.6075 44.6167C74.545 42.925 76.3278 41.766 77.8916 41.672H90.8092C90.7776 43.5516 90.8092 45.4311 90.7776 47.3107H81.6449V49.0023C84.7101 49.065 87.744 49.0023 90.8092 49.0337C90.7776 50.9132 90.7776 52.7928 90.8092 54.6724C87.744 54.704 84.7101 54.6411 81.6449 54.6724C81.6133 58.3692 81.6449 62.034 81.6449 65.6992C79.2991 65.7309 76.9533 65.7309 74.6075 65.6992V44.6167ZM94.1871 41.672C96.5329 41.7036 98.9103 41.672 101.256 41.672C101.256 42.1735 101.288 42.6744 101.288 43.1443C104.322 43.176 107.387 43.176 110.421 43.1443V48.7204C107.387 48.7204 104.322 48.6891 101.288 48.7204C101.256 52.3229 101.256 55.9254 101.288 59.5279H103.383V50.6H110.421V62.8488C110.389 64.3528 108.888 65.2926 107.574 65.6059C104.446 65.6998 101.319 65.5432 98.1909 65.6998C96.815 65.7625 95.3134 65.1983 94.6256 63.9453C94.1249 63.0371 94.1565 61.9407 94.1565 60.9376C94.1565 56.8652 94.1249 52.7928 94.1877 48.7204C93.5622 48.7204 92.9685 48.7204 92.343 48.6891C92.3743 46.8408 92.3743 45.0239 92.343 43.1756C92.9366 43.144 93.5315 43.144 94.1255 43.144C94.1558 42.6431 94.1558 42.1419 94.1871 41.672Z" fill="white"/>
<path d="M63.2534 47.3105H65.3806V50.5998H63.2534V47.3105Z" fill="#1C1C1E"/>
<path d="M13.4913 72.5594C13.9291 70.9931 15.6494 70.116 17.2132 70.1783C20.2159 70.2099 23.2498 70.147 26.2837 70.2099C27.785 70.2726 29.5052 71.2747 29.5678 72.9353V93.7356C25.3453 93.767 21.1229 93.767 16.9318 93.7356C15.5556 93.673 13.9604 92.9841 13.4913 91.6055C13.4287 88.1909 13.4287 84.776 13.4913 81.3618C14.1481 80.1404 15.4304 79.1063 16.8692 79.1063C18.7774 79.1063 20.7163 79.1379 22.6242 79.1063C22.5926 78.0099 22.6242 76.9134 22.5926 75.817H20.5283C20.497 76.2869 20.497 76.7568 20.4658 77.2267H13.46C13.4913 75.661 13.3974 74.1257 13.4913 72.5594ZM32.5391 70.1789H39.4201C39.4201 76.1309 39.3885 82.0829 39.4201 88.0349C40.1395 88.0349 40.8589 88.0349 41.547 88.0665C41.5154 82.1145 41.547 76.1626 41.547 70.1789H48.4905C48.4589 77.3216 48.5218 84.464 48.4589 91.6061C47.9585 93.0781 46.207 93.767 44.7373 93.6736C41.7343 93.6423 38.7004 93.7053 35.6668 93.6736C34.1652 93.5486 32.3202 92.4522 32.5391 90.7293V70.1789ZM52.5878 70.1789H59.5627C59.5943 70.6805 59.5943 71.1814 59.6249 71.6513C62.6588 71.6513 65.6927 71.6829 68.7269 71.6513C68.6331 73.5308 68.6647 75.4104 68.6647 77.29C65.6618 77.3216 62.6279 77.29 59.5943 77.3216C59.5627 80.8925 59.6255 84.464 59.5627 88.0349C60.313 88.0349 61.064 88.0349 61.8143 88.0665C61.7521 85.0905 61.8143 82.1145 61.7831 79.1069H68.6641C68.6325 82.9604 68.6953 86.8135 68.6641 90.6663C68.6953 92.5142 66.7558 93.7363 65.0984 93.6736H55.9968C54.6206 93.6736 53.1192 92.9221 52.5875 91.5751C52.4937 86.8445 52.5875 82.0829 52.5563 77.3216C51.962 77.3216 51.3674 77.29 50.7734 77.29C50.7734 75.4104 50.7419 73.5308 50.7734 71.6829H52.525C52.5566 71.1814 52.5566 70.6798 52.5878 70.1789ZM73.9189 70.3356C74.607 70.1166 75.3264 70.1789 76.0145 70.1789C78.8295 70.2106 81.6444 70.1476 84.4594 70.1789C86.0233 70.2732 87.7748 71.432 87.7435 73.1236V89.7578C87.7435 90.541 87.7119 91.3242 87.3366 92.0133C86.6172 93.1724 85.1788 93.7363 83.8338 93.6736C80.8309 93.6736 77.797 93.7053 74.7634 93.6736C73.2308 93.5486 71.4793 92.4206 71.5732 90.7293C71.5416 84.8716 71.5732 78.9819 71.5416 73.1242C71.448 71.7452 72.6991 70.7115 73.9189 70.3356Z" fill="white"/>
<path d="M78.579 75.8176H80.7062C80.6746 79.89 80.7374 83.9624 80.7062 88.0035C79.9865 88.0349 79.2987 88.0349 78.6106 88.0659C78.548 83.9935 78.6106 79.89 78.579 75.8176ZM20.4974 84.7456H22.6243C22.5927 85.842 22.5927 86.9071 22.6868 87.9725C21.9362 88.0349 21.1852 88.0349 20.4658 88.0665C20.4974 86.9695 20.4974 85.842 20.4974 84.7456Z" fill="#1C1C1E"/>
</svg>
