<svg width="342" height="167" viewBox="0 0 342 167" fill="none" xmlns="http://www.w3.org/2000/svg">
<mask id="mask0" mask-type="alpha" maskUnits="userSpaceOnUse" x="0" y="0" width="342" height="167">
<rect width="342" height="166.689" rx="8" fill="#2E2E30"/>
</mask>
<g mask="url(#mask0)">
<path d="M146.571 71.31C146.571 28.6318 246.441 -3.35281 296.375 -14.0104L343.436 -16.3455L397.862 179.083C243.567 182.256 -63.1198 186.699 -55.5038 179.083C-45.9839 169.563 44.5456 192.016 44.5456 137.59C44.5456 83.165 146.571 124.658 146.571 71.31Z" fill="url(#paint0_linear)" fill-opacity="0.1"/>
<path opacity="0.05" d="M66.9672 140.887H41.2226V174.057H32.6628V111.158C32.6628 111.158 22.2477 106.371 21.9028 86.937C21.5252 106.371 11.1362 111.158 11.1362 111.158V200.099H93.0438V112.888H66.9672V140.887Z" fill="#DDDBDB"/>
<path opacity="0.05" d="M321.016 140.887H346.76V174.057H355.32V111.158C355.32 111.158 365.735 106.371 366.08 86.937C366.458 106.371 376.847 111.158 376.847 111.158V200.099H294.939V112.888H321.016V140.887Z" fill="#DDDBDB"/>
<path opacity="0.05" d="M159.189 144.472V88.0146L133.271 93.6307V130.093L107.773 113.309V199.967H133.271V200.458H158.374H159.189H184.292V141.622L159.189 144.472Z" fill="#DDDBDB"/>
<path opacity="0.05" d="M217.342 125.735L228.794 111.366L254.712 93.6309V130.093L280.21 113.31V199.967H254.712V200.458H229.609H228.794H203.691V141.622L217.342 125.735Z" fill="#DDDBDB"/>
<path d="M269.414 135.172L264.403 139.387C276.405 133.939 288.164 128.75 300.495 124.098L334.345 111.334L362.477 100.73C361.861 100.96 359.604 99.9821 358.9 99.8867C356.707 99.6004 354.589 99.6839 352.609 100.742C350.63 101.799 349.51 103.636 347.161 103.68C344.22 103.736 342.75 101.163 340.374 100.014C336.229 98.0258 333.586 102.622 329.946 101.819C328.277 101.449 326.83 100.181 325.038 99.831C322.085 99.2576 319.028 99.5972 316.273 100.805C313.518 102.012 311.196 104.03 309.615 106.591C307.048 105.036 303.765 104.921 300.912 105.863C298.059 106.805 295.591 108.706 293.572 110.917C292.013 112.693 290.618 114.607 289.404 116.635C288.676 117.804 287.905 120.344 286.975 120.857C285.7 121.557 283.681 120.794 282.103 121.923C281.754 122.177 279.059 125.812 279.624 125.847C278.031 125.787 276.461 126.24 275.145 127.139C273.829 128.038 272.835 129.336 272.312 130.842C272.073 131.593 271.954 132.388 271.556 133.052C271.166 133.64 270.678 134.156 270.114 134.579L269.414 135.172Z" fill="white"/>
<path d="M141.041 127.453L140.105 128.25C142.347 127.219 144.544 126.238 146.847 125.357L153.171 122.943L158.426 120.936C158.311 120.98 157.89 120.795 157.758 120.777C157.348 120.723 156.953 120.739 156.583 120.939C156.213 121.139 156.004 121.486 155.565 121.495C155.016 121.505 154.741 121.018 154.297 120.801C153.523 120.425 153.029 121.295 152.349 121.143C152.037 121.073 151.767 120.833 151.432 120.766C150.881 120.658 150.31 120.722 149.795 120.951C149.28 121.179 148.846 121.561 148.551 122.045C148.072 121.751 147.458 121.729 146.925 121.908C146.392 122.086 145.931 122.445 145.554 122.864C145.263 123.2 145.002 123.562 144.775 123.946C144.639 124.167 144.495 124.647 144.322 124.744C144.083 124.877 143.706 124.732 143.412 124.946C143.346 124.994 142.843 125.682 142.948 125.688C142.651 125.677 142.358 125.763 142.112 125.933C141.866 126.103 141.68 126.348 141.582 126.633C141.538 126.775 141.516 126.926 141.441 127.052C141.368 127.163 141.277 127.26 141.172 127.34L141.041 127.453Z" fill="white" fill-opacity="0.25"/>
<path d="M-22.9912 149.805C-7.694 144.632 7.7981 139.906 23.1819 134.983L67.179 120.857C67.179 120.857 47.4864 114.62 38.425 116.902C37.4398 110.382 30.0781 105.753 23.7015 107.383C17.325 109.013 13.092 116.218 14.3695 122.694C6.79126 119.282 -3.37441 125.367 -3.98067 133.734C-7.58575 131.387 -12.5549 133.734 -15.2181 137.091C-18.3035 141.036 -19.8625 145.904 -22.9912 149.805Z" fill="white"/>
<path d="M261.926 55.4202C256.545 57.4106 251.213 59.5694 245.865 61.6492L230.561 67.5839C230.561 67.5839 234.536 61.4162 237.544 60.0186C236.322 57.9745 237.282 55.0266 239.404 54.0498C241.527 53.073 244.337 54.1362 245.469 56.2337C246.767 53.5774 250.949 52.9949 253.031 55.1979C253.483 53.7318 255.383 53.2717 256.883 53.6121C258.632 54.0217 260.174 55.0324 261.926 55.4202Z" fill="white" fill-opacity="0.15"/>
<path d="M91.706 63.5865C88.9933 64.59 86.3051 65.6783 83.6093 66.7268L75.8938 69.7188C75.8938 69.7188 77.8976 66.6094 79.4142 65.9047C78.798 64.8743 79.2819 63.3881 80.3519 62.8956C81.422 62.4032 82.8389 62.9391 83.4097 63.9966C84.064 62.6574 86.1723 62.3638 87.2219 63.4744C87.4496 62.7353 88.4077 62.5033 89.1636 62.6749C90.0456 62.8814 90.8231 63.391 91.706 63.5865Z" fill="white" fill-opacity="0.15"/>
</g>
<defs>
<linearGradient id="paint0_linear" x1="187.525" y1="-43.2887" x2="171.109" y2="183.288" gradientUnits="userSpaceOnUse">
<stop stop-color="white"/>
<stop offset="1" stop-color="white" stop-opacity="0"/>
</linearGradient>
</defs>
</svg>
