<svg width="952" height="397" viewBox="0 0 952 397" fill="none" xmlns="http://www.w3.org/2000/svg">
<mask id="mask0" mask-type="alpha" maskUnits="userSpaceOnUse" x="0" y="0" width="952" height="397">
<rect width="952" height="397" rx="8" fill="#2E2E30"/>
</mask>
<g mask="url(#mask0)">
<path d="M408 169.837C408 68.1916 686 -7.98561 825 -33.3685L956 -38.9299L1107.5 426.518C678 434.076 -175.7 444.657 -154.5 426.518C-128 403.845 124 457.32 124 327.696C124 198.072 408 296.894 408 169.837Z" fill="url(#paint0_linear)" fill-opacity="0.1"/>
<path opacity="0.05" d="M186.413 335.548H114.749V414.548H90.9218V264.742C90.9218 264.742 61.9303 253.341 60.97 207.056C59.919 253.341 31 264.742 31 264.742V476.571H259V268.862H186.413V335.548Z" fill="#DDDBDB"/>
<path opacity="0.05" d="M893.587 335.548H965.251V414.548H989.078V264.742C989.078 264.742 1018.07 253.341 1019.03 207.056C1020.08 253.341 1049 264.742 1049 264.742V476.571H821V268.862H893.587V335.548Z" fill="#DDDBDB"/>
<path opacity="0.05" d="M443.122 344.087V209.623L370.976 222.998V309.84L300 269.867V476.257H370.976V477.427H440.854H443.122H513V337.299L443.122 344.087Z" fill="#DDDBDB"/>
<path opacity="0.05" d="M605 299.461L636.878 265.237L709.024 222.998V309.84L780 269.867V476.257H709.024V477.427H639.146H636.878H567V337.299L605 299.461Z" fill="#DDDBDB"/>
<path d="M749.949 321.936L736 331.974C769.407 319 802.14 306.642 836.465 295.562L930.692 265.163L1009 239.906C1007.29 240.455 1001 238.126 999.044 237.898C992.938 237.216 987.042 237.415 981.533 239.934C976.024 242.453 972.905 246.829 966.367 246.933C958.181 247.065 954.088 240.938 947.473 238.201C935.935 233.466 928.579 244.414 918.446 242.501C913.8 241.62 909.774 238.599 904.785 237.766C896.565 236.4 888.055 237.209 880.386 240.084C872.717 242.96 866.253 247.767 861.853 253.865C854.707 250.162 845.569 249.887 837.627 252.132C829.684 254.376 822.815 258.903 817.195 264.168C812.856 268.399 808.972 272.957 805.591 277.786C803.567 280.57 801.421 286.622 798.832 287.844C795.281 289.51 789.662 287.692 785.27 290.382C784.297 290.988 776.797 299.643 778.368 299.728C773.934 299.584 769.564 300.662 765.9 302.803C762.236 304.945 759.472 308.036 758.013 311.623C757.35 313.413 757.018 315.307 755.912 316.888C754.825 318.287 753.467 319.517 751.896 320.525L749.949 321.936Z" fill="white"/>
<path d="M392.606 303.551L390 305.45C396.241 302.996 402.356 300.658 408.768 298.562L426.371 292.81L441 288.032C440.68 288.136 439.506 287.695 439.14 287.652C437.999 287.523 436.898 287.561 435.869 288.038C434.84 288.514 434.257 289.342 433.036 289.362C431.506 289.387 430.742 288.227 429.506 287.71C427.351 286.814 425.976 288.885 424.083 288.523C423.215 288.356 422.463 287.785 421.531 287.627C419.996 287.369 418.406 287.522 416.973 288.066C415.541 288.61 414.333 289.519 413.511 290.673C412.176 289.972 410.469 289.921 408.985 290.345C407.501 290.77 406.218 291.626 405.168 292.622C404.358 293.423 403.632 294.285 403.001 295.199C402.622 295.725 402.221 296.87 401.738 297.101C401.075 297.417 400.025 297.073 399.204 297.582C399.022 297.696 397.621 299.334 397.915 299.35C397.087 299.323 396.27 299.527 395.586 299.932C394.901 300.337 394.385 300.922 394.112 301.6C393.988 301.939 393.926 302.297 393.72 302.596C393.517 302.861 393.263 303.094 392.97 303.284L392.606 303.551Z" fill="white" fill-opacity="0.25"/>
<path d="M-64 356.787C-21.4183 344.468 21.7059 333.21 64.5287 321.487L187 287.843C187 287.843 132.183 272.989 106.96 278.423C104.217 262.896 83.7251 251.871 65.9751 255.753C48.2252 259.635 36.4422 276.793 39.9982 292.217C18.9033 284.091 -9.39418 298.583 -11.0818 318.511C-21.117 312.921 -34.9491 318.511 -42.3625 326.508C-50.9512 335.902 -55.2908 347.496 -64 356.787Z" fill="white"/>
<path d="M729.102 131.993C714.124 136.734 699.281 141.875 684.396 146.829L641.796 160.963C641.796 160.963 652.86 146.274 661.233 142.945C657.831 138.077 660.503 131.056 666.411 128.729C672.319 126.403 680.143 128.935 683.294 133.931C686.907 127.604 698.548 126.217 704.343 131.464C705.6 127.972 710.891 126.876 715.064 127.687C719.934 128.662 724.227 131.07 729.102 131.993Z" fill="white" fill-opacity="0.15"/>
<path d="M255.276 151.442C247.724 153.832 240.241 156.424 232.737 158.921L211.26 166.047C211.26 166.047 216.838 158.642 221.06 156.963C219.344 154.509 220.691 150.97 223.67 149.797C226.649 148.624 230.593 149.9 232.182 152.419C234.003 149.229 239.872 148.53 242.793 151.175C243.427 149.415 246.094 148.862 248.198 149.271C250.654 149.763 252.818 150.977 255.276 151.442Z" fill="white" fill-opacity="0.15"/>
</g>
<defs>
<linearGradient id="paint0_linear" x1="522" y1="-103.1" x2="488.503" y2="437.29" gradientUnits="userSpaceOnUse">
<stop stop-color="white"/>
<stop offset="1" stop-color="white" stop-opacity="0"/>
</linearGradient>
</defs>
</svg>
