<svg width="284" height="142" viewBox="0 0 284 142" fill="none" xmlns="http://www.w3.org/2000/svg">
<path opacity="0.05" d="M199.429 107.424C264.625 107.424 263.681 89.8865 270.77 74.7169C277.859 59.5473 284 -15.8155 284 -15.8155C284 -61.3199 241.949 -63 241.949 -63H28.4039L0 139.518H66.052L70.8804 107.407H105.43L198.485 206H284L192.085 107.407L199.429 107.424ZM79.5012 49.8326L87.7884 -5.39085H205.57C216.908 -5.39085 216.438 6.93445 216.438 6.93445L212.185 35.373C210.626 39.5933 207.825 43.2369 204.155 45.819C200.484 48.4012 196.118 49.7996 191.638 49.8282L79.5012 49.8326Z" fill="white"/>
</svg>
