<svg width="249" height="235" viewBox="0 0 249 235" fill="none" xmlns="http://www.w3.org/2000/svg">
<path d="M174.851 148.884C232.013 148.884 231.185 133.563 237.401 120.31C243.616 107.058 249 41.2206 249 41.2206C249 1.46776 212.132 0 212.132 0H24.9035L0 176.921H57.9118L62.1451 148.868H92.4364L174.024 235H249L168.413 148.868L174.851 148.884ZM69.7035 98.5713L76.9694 50.3277H180.235C190.176 50.3277 189.764 61.0951 189.764 61.0951L186.035 85.9392C184.668 89.6262 182.213 92.8092 178.995 95.065C175.777 97.3208 171.949 98.5424 168.02 98.5674L69.7035 98.5713Z" fill="#2E2E30" fill-opacity="0.05"/>
</svg>
