<svg width="94" height="89" viewBox="0 0 94 89" fill="none" xmlns="http://www.w3.org/2000/svg">
<path d="M66.0082 56.3857C87.5872 56.3857 87.2748 50.5833 89.6211 45.5643C91.9675 40.5454 94 15.6112 94 15.6112C94 0.555875 80.0818 0 80.0818 0H9.40131L0 67.0042H21.8623L23.4604 56.3798H34.8957L65.6958 89H94L63.5776 56.3798L66.0082 56.3857ZM26.3138 37.3312L29.0567 19.0603H68.0407C71.7934 19.0603 71.6379 23.1382 71.6379 23.1382L70.2301 32.5472C69.7142 33.9435 68.7871 35.149 67.5723 36.0033C66.3575 36.8576 64.9124 37.3203 63.4294 37.3298L26.3138 37.3312Z" fill="white"/>
</svg>
