<svg width="97" height="167" viewBox="0 0 97 167" fill="none" xmlns="http://www.w3.org/2000/svg">
<path d="M42.4991 61.8963L31.8657 54.2057L42.4991 55.3432L35.402 41.6682L46.5052 51.7823L49.6045 36.269L53.1325 52.2768L64.4088 41.1241L57.9052 56.184L70.6982 53.2577L58.5399 61.8963H42.4991Z" fill="#372FFF"/>
<path d="M42.8698 59.4233L40.7349 73.6507C40.7349 73.6507 51.4507 78.2255 60.1882 74.3513L58.383 59.4233H42.8698Z" fill="#372FFF"/>
<path opacity="0.31" d="M42.8698 59.4233L40.7349 73.6507C40.7349 73.6507 51.4507 78.2255 60.1882 74.3513L58.383 59.4233H42.8698Z" fill="white"/>
<path d="M38.0229 58.6569L42.4989 61.8964H58.5396L62.7765 58.525C62.7765 58.525 59.5288 49.9853 51.3353 48.7819C51.3353 48.7819 43.4303 46.7623 38.0229 58.6569Z" fill="#372FFF"/>
<path opacity="0.31" d="M38.0229 58.6569L42.4989 61.8964H58.5396L62.7765 58.525C62.7765 58.525 59.5288 49.9853 51.3353 48.7819C51.3353 48.7819 43.4303 46.7623 38.0229 58.6569Z" fill="white"/>
<path d="M46.126 66.4052L45.4995 75.8187L55.2509 76.2143L54.509 64.2786L46.126 66.4052Z" fill="#372FFF"/>
<path opacity="0.15" d="M46.126 66.4052L45.4995 75.8187L55.2509 76.2143L54.509 64.2786L46.126 66.4052Z" fill="#1C1C1E"/>
<path d="M47.115 52.9362C46.2136 53.4467 45.4425 54.1588 44.862 55.0168C44.2814 55.8747 43.9071 56.8553 43.7684 57.8819C43.109 62.2342 42.6144 71.5158 50.3627 71.5158C57.3775 71.5158 58.1029 63.9735 57.8308 59.2997C57.6413 56.0026 56.2729 54.0984 54.0226 53.0351C53.0499 52.5817 51.8794 52.6806 50.643 52.4086C49.442 52.149 48.1875 52.3365 47.115 52.9362Z" fill="#372FFF"/>
<path d="M72.9319 155.874L76.6082 174.586H35.7397L45.4994 137.451L61.7957 142.908L72.9319 155.874Z" fill="#372FFF"/>
<path opacity="0.15" d="M72.9319 155.874L76.6082 174.586H35.7397L45.4994 137.451L61.7957 142.908L72.9319 155.874Z" fill="black"/>
<path d="M29.0877 142.216L24.2656 174.586H35.7398L48.2114 135.563L38.7237 136.825L29.0877 142.216Z" fill="#372FFF"/>
<path d="M50.3877 73.659C48.8751 73.4491 47.4229 72.9257 46.1242 72.1223C44.8254 71.319 43.7087 70.2533 42.8454 68.9935C41.0402 66.3558 38.5591 62.8443 35.9708 59.5636C30.9179 53.1424 22.7821 59.2256 21.6199 64.971C20.4576 70.7163 31.2641 80.8057 26.2112 86.4026C21.1583 91.9996 31.9813 101.669 28.3956 108.09L61.796 77.1046C61.796 77.1046 57.9135 74.7141 50.3877 73.659Z" fill="#372FFF"/>
<path opacity="0.31" d="M50.3877 73.659C48.8751 73.4491 47.4229 72.9257 46.1242 72.1223C44.8254 71.319 43.7087 70.2533 42.8454 68.9935C41.0402 66.3558 38.5591 62.8443 35.9708 59.5636C30.9179 53.1424 22.7821 59.2256 21.6199 64.971C20.4576 70.7163 31.2641 80.8057 26.2112 86.4026C21.1583 91.9996 31.9813 101.669 28.3956 108.09L61.796 77.1046C61.796 77.1046 57.9135 74.7141 50.3877 73.659Z" fill="white"/>
<path d="M23.7875 64.3197C23.0425 54.27 23.7448 44.1654 25.873 34.3154C25.873 34.3154 22.889 28.6937 25.873 25.7097C28.8569 22.7258 35.8469 27.2017 32.5497 31.793C29.5246 35.9722 31.338 48.1223 33.3328 60.1322C33.5913 61.5758 33.4662 63.0619 32.97 64.442C32.4739 65.822 31.624 67.0475 30.5055 67.996C28.9393 69.2654 27.0517 69.8672 25.3124 67.9218C24.4297 66.9165 23.8949 65.6532 23.7875 64.3197V64.3197Z" fill="#372FFF"/>
<path d="M26.648 16.1232C26.648 16.1232 20.1031 12.3232 29.5743 0L30.3491 7.78134C30.3684 7.99232 30.4527 8.1921 30.5905 8.35305C30.7282 8.51401 30.9126 8.62818 31.1181 8.67977C31.3236 8.73137 31.54 8.71784 31.7374 8.64106C31.9349 8.56428 32.1036 8.42804 32.2203 8.25118L33.9925 5.62169C33.9925 5.62169 38.6415 11.2516 34.8168 16.1232H26.648Z" fill="#FFD200"/>
<path d="M37.2561 15.2083H24.0015V20.3766H37.2561V15.2083Z" fill="#1C1C1E"/>
<path d="M26.6475 20.3767L28.3373 36.2691H32.467L34.536 20.3767H26.6475Z" fill="#1C1C1E"/>
<path d="M34.0418 24.1599C34.0418 24.1599 35.2453 25.3304 34.9897 29.4354C34.7342 33.5404 32.0388 32.2875 31.437 30.4163C30.8353 28.5452 34.0418 24.1599 34.0418 24.1599Z" fill="#372FFF"/>
<path d="M88.5754 98.7857L74.9248 87.1108L55.047 110.353L68.6976 122.028L88.5754 98.7857Z" fill="white"/>
<path d="M66.3458 78.646C66.3458 78.646 73.5089 79.4703 70.8712 90.9445L64.4087 98.4126L66.3458 78.646Z" fill="#372FFF"/>
<path opacity="0.46" d="M66.3458 78.646C66.3458 78.646 73.5089 79.4703 70.8712 90.9445L64.4087 98.4126L66.3458 78.646Z" fill="white"/>
<path d="M25.7662 106.128C25.5795 104.728 25.7181 103.303 26.1712 101.965C26.6244 100.627 27.38 99.4112 28.3792 98.4125C35.3362 91.4142 50.0334 73.9145 57.5262 73.6837C67.2282 73.3622 68.9757 83.2455 67.2529 91.678C65.5301 100.111 72.9405 155.874 72.9405 155.874L57.9136 146.749L47.1154 160.35L45.508 137.451L26.3926 160.35C26.3926 160.35 28.8408 128.804 25.7662 106.128Z" fill="#372FFF"/>
<path opacity="0.52" d="M25.7662 106.128C25.5795 104.728 25.7181 103.303 26.1712 101.965C26.6244 100.627 27.38 99.4112 28.3792 98.4125C35.3362 91.4142 50.0334 73.9145 57.5262 73.6837C67.2282 73.3622 68.9757 83.2455 67.2529 91.678C65.5301 100.111 72.9405 155.874 72.9405 155.874L57.9136 146.749L47.1154 160.35L45.508 137.451L26.3926 160.35C26.3926 160.35 28.8408 128.804 25.7662 106.128Z" fill="white"/>
<path d="M74.1026 114.676C74.1026 114.676 79.9303 115.706 80.3919 109.508C80.8535 103.309 72.5199 104.925 74.1026 114.676Z" fill="#372FFF"/>
</svg>
