<svg width="266" height="464" viewBox="0 0 266 464" fill="none" xmlns="http://www.w3.org/2000/svg">
<path d="M116.47 172.296L86.8706 150.888L116.47 154.055L96.7141 115.988L127.621 144.142L136.249 100.959L146.069 145.519L177.458 114.474L159.355 156.395L194.966 148.249L161.121 172.296H116.47Z" fill="#372FFF"/>
<path d="M117.502 165.412L111.56 205.016C111.56 205.016 141.388 217.751 165.71 206.966L160.685 165.412H117.502Z" fill="#372FFF"/>
<path opacity="0.31" d="M117.502 165.412L111.56 205.016C111.56 205.016 141.388 217.751 165.71 206.966L160.685 165.412H117.502Z" fill="white"/>
<path d="M104.01 163.279L116.47 172.296H161.121L172.915 162.911C172.915 162.911 163.874 139.14 141.067 135.79C141.067 135.79 119.062 130.169 104.01 163.279Z" fill="#372FFF"/>
<path opacity="0.31" d="M104.01 163.279L116.47 172.296H161.121L172.915 162.911C172.915 162.911 163.874 139.14 141.067 135.79C141.067 135.79 119.062 130.169 104.01 163.279Z" fill="white"/>
<path d="M126.566 184.847L124.822 211.05L151.966 212.152L149.901 178.927L126.566 184.847Z" fill="#372FFF"/>
<path opacity="0.15" d="M126.566 184.847L124.822 211.05L151.966 212.152L149.901 178.927L126.566 184.847Z" fill="#1C1C1E"/>
<path d="M129.32 147.355C126.811 148.776 124.664 150.758 123.048 153.146C121.432 155.534 120.39 158.264 120.004 161.122C118.169 173.237 116.792 199.073 138.36 199.073C157.887 199.073 159.906 178.078 159.149 165.068C158.621 155.89 154.812 150.59 148.548 147.63C145.841 146.368 142.582 146.643 139.141 145.886C135.797 145.163 132.305 145.685 129.32 147.355Z" fill="#372FFF"/>
<path d="M201.183 433.895L211.417 485.98H97.6543L124.822 382.612L170.184 397.802L201.183 433.895Z" fill="#372FFF"/>
<path opacity="0.15" d="M201.183 433.895L211.417 485.98H97.6543L124.822 382.612L170.184 397.802L201.183 433.895Z" fill="black"/>
<path d="M79.1388 395.875L65.7158 485.981H97.6556L132.372 377.358L105.962 380.868L79.1388 395.875Z" fill="#372FFF"/>
<path d="M138.429 205.039C134.219 204.454 130.176 202.998 126.561 200.761C122.946 198.525 119.837 195.558 117.434 192.052C112.409 184.709 105.503 174.935 98.298 165.802C84.2326 147.928 61.5856 164.862 58.3503 180.855C55.115 196.847 85.1963 224.932 71.1308 240.512C57.0654 256.092 87.1925 283.007 77.2113 300.881L170.186 214.63C170.186 214.63 159.378 207.976 138.429 205.039Z" fill="#372FFF"/>
<path opacity="0.31" d="M138.429 205.039C134.219 204.454 130.176 202.998 126.561 200.761C122.946 198.525 119.837 195.558 117.434 192.052C112.409 184.709 105.503 174.935 98.298 165.802C84.2326 147.928 61.5856 164.862 58.3503 180.855C55.115 196.847 85.1963 224.932 71.1308 240.512C57.0654 256.092 87.1925 283.007 77.2113 300.881L170.186 214.63C170.186 214.63 159.378 207.976 138.429 205.039Z" fill="white"/>
<path d="M64.3846 179.042C62.3108 151.067 64.2658 122.94 70.1898 95.521C70.1898 95.521 61.8836 79.8723 70.1898 71.5662C78.496 63.26 97.9536 75.7193 88.7755 88.4998C80.3545 100.133 85.4025 133.954 90.9552 167.386C91.6748 171.404 91.3266 175.541 89.9454 179.382C88.5643 183.224 86.1986 186.635 83.085 189.275C78.7254 192.809 73.471 194.484 68.6295 189.069C66.1722 186.27 64.6835 182.754 64.3846 179.042V179.042Z" fill="#372FFF"/>
<path d="M72.3463 44.8809C72.3463 44.8809 54.1277 34.3032 80.4918 0L82.6487 21.6603C82.7023 22.2476 82.9371 22.8037 83.3205 23.2518C83.704 23.6998 84.2172 24.0176 84.7892 24.1612C85.3612 24.3049 85.9636 24.2672 86.5133 24.0535C87.0629 23.8398 87.5326 23.4605 87.8573 22.9682L92.7905 15.6487C92.7905 15.6487 105.732 31.3203 95.085 44.8809H72.3463Z" fill="#FFD200"/>
<path d="M101.876 42.3341H64.9805V56.7208H101.876V42.3341Z" fill="#1C1C1E"/>
<path d="M72.3467 56.7207L77.0505 100.959H88.546L94.3053 56.7207H72.3467Z" fill="#1C1C1E"/>
<path d="M92.9288 67.2524C92.9288 67.2524 96.2789 70.5107 95.5675 81.9374C94.8562 93.3641 87.3531 89.8765 85.6781 84.6679C84.0031 79.4593 92.9288 67.2524 92.9288 67.2524Z" fill="#372FFF"/>
<path d="M244.73 274.983L206.731 242.484L151.399 307.181L189.397 339.679L244.73 274.983Z" fill="white"/>
<path d="M182.851 218.921C182.851 218.921 202.79 221.215 195.448 253.155L177.458 273.944L182.851 218.921Z" fill="#372FFF"/>
<path opacity="0.46" d="M182.851 218.921C182.851 218.921 202.79 221.215 195.448 253.155L177.458 273.944L182.851 218.921Z" fill="white"/>
<path d="M69.8919 295.42C69.3722 291.522 69.758 287.557 71.0195 283.832C72.281 280.107 74.3841 276.723 77.1656 273.943C96.5314 254.463 137.443 205.75 158.3 205.108C185.307 204.213 190.171 231.724 185.375 255.197C180.58 278.67 201.208 433.895 201.208 433.895L159.378 408.494L129.32 446.354L124.846 382.612L71.6358 446.354C71.6358 446.354 78.4505 358.543 69.8919 295.42Z" fill="#372FFF"/>
<path opacity="0.52" d="M69.8919 295.42C69.3722 291.522 69.758 287.557 71.0195 283.832C72.281 280.107 74.3841 276.723 77.1656 273.943C96.5314 254.463 137.443 205.75 158.3 205.108C185.307 204.213 190.171 231.724 185.375 255.197C180.58 278.67 201.208 433.895 201.208 433.895L159.378 408.494L129.32 446.354L124.846 382.612L71.6358 446.354C71.6358 446.354 78.4505 358.543 69.8919 295.42Z" fill="white"/>
<path d="M204.442 319.215C204.442 319.215 220.664 322.083 221.949 304.828C223.234 287.573 200.037 292.07 204.442 319.215Z" fill="#372FFF"/>
</svg>
