<svg width="12" height="12" viewBox="0 0 12 12" fill="none" xmlns="http://www.w3.org/2000/svg">
<path d="M5.98964 0C2.83219 0 0.245625 2.43036 0 5.51872L3.22144 6.84835C3.50273 6.65573 3.8368 6.55274 4.17891 6.55315C4.21088 6.55315 4.24247 6.55403 4.27359 6.55575L5.70638 4.48253V4.4535C5.70638 3.206 6.72309 2.19081 7.97292 2.19081C9.2227 2.19081 10.2394 3.206 10.2394 4.4535C10.2394 5.70096 9.2227 6.71656 7.97292 6.71656C7.95558 6.71656 7.9387 6.71614 7.92145 6.71573L5.87803 8.17069C5.87934 8.19768 5.88019 8.22462 5.88019 8.25114C5.88019 9.18801 5.11692 9.94997 4.17891 9.94997C3.3555 9.94997 2.66658 9.36301 2.51091 8.58612L0.206719 7.63507C0.920297 10.1536 3.23827 12 5.98964 12C9.30923 12 12 9.31339 12 6C12 2.68624 9.30923 0 5.98964 0ZM3.7665 9.10398L3.02827 8.79943C3.15891 9.07148 3.3855 9.29906 3.68606 9.42403C4.33561 9.69437 5.08463 9.3868 5.35538 8.7378C5.48645 8.42574 5.48723 8.07502 5.35753 7.7624C5.22778 7.44754 4.98258 7.20197 4.66819 7.07106C4.35553 6.94146 4.0208 6.94614 3.7267 7.05697L4.48959 7.37182C4.96875 7.57121 5.19534 8.12047 4.99556 8.59878C4.7962 9.07704 4.24566 9.30338 3.7665 9.10398ZM9.48324 4.4535C9.48324 3.62231 8.80556 2.94554 7.97306 2.94554C7.14014 2.94554 6.46247 3.62231 6.46247 4.4535C6.46247 5.28474 7.14014 5.96109 7.97306 5.96109C8.80556 5.96109 9.48324 5.28474 9.48324 4.4535ZM6.84089 4.45095C6.84089 3.82551 7.34902 3.31859 7.97527 3.31859C8.60189 3.31859 9.11002 3.82551 9.11002 4.45095C9.11002 5.07639 8.60189 5.58336 7.97522 5.58336C7.34902 5.58336 6.84084 5.07639 6.84084 4.451L6.84089 4.45095Z" fill="white"/>
</svg>
