<svg width="414" height="1106" viewBox="0 0 414 1106" fill="none" xmlns="http://www.w3.org/2000/svg">
<path d="M0 20.5L76.2139 5.40449C94.1948 1.84306 112.731 2.18509 130.568 6.40743L177.515 17.5205C196.904 22.1101 217.096 22.1101 236.485 17.5205L283.432 6.40743C301.269 2.18508 319.805 1.84306 337.786 5.40449L414 20.5V896H0V20.5Z" fill="white"/>
<path d="M-23 328C-3.66011 321.346 15.9262 315.264 35.3756 308.932L91 290.758C91 290.758 66.1031 282.733 54.647 285.669C53.4015 277.281 44.0942 271.326 36.0325 273.423C27.9708 275.52 22.6192 284.788 24.2343 293.12C14.6533 288.731 1.80105 296.559 1.03457 307.324C-3.52324 304.304 -9.80559 307.324 -13.1726 311.644C-17.0734 316.718 -19.0444 322.981 -23 328Z" fill="#2E2E30" fill-opacity="0.05"/>
<path d="M270.599 473.17L259 483C286.778 470.295 313.995 458.193 342.537 447.344L420.887 417.576L486 392.843C484.574 393.381 479.35 391.1 477.722 390.877C472.644 390.21 467.742 390.404 463.161 392.871C458.58 395.338 455.987 399.622 450.551 399.724C443.744 399.854 440.341 393.854 434.84 391.174C425.247 386.537 419.13 397.258 410.704 395.384C406.841 394.522 403.493 391.564 399.345 390.748C392.51 389.41 385.434 390.202 379.058 393.018C372.681 395.834 367.306 400.541 363.647 406.512C357.705 402.887 350.107 402.618 343.503 404.815C336.899 407.013 331.187 411.446 326.514 416.602C322.906 420.745 319.677 425.208 316.865 429.937C315.182 432.664 313.398 438.589 311.245 439.786C308.293 441.418 303.62 439.637 299.968 442.271C299.159 442.864 292.923 451.34 294.229 451.424C290.543 451.283 286.909 452.338 283.862 454.435C280.815 456.532 278.517 459.559 277.304 463.071C276.752 464.824 276.476 466.679 275.557 468.227C274.653 469.597 273.524 470.802 272.218 471.788L270.599 473.17Z" fill="#2E2E30" fill-opacity="0.05"/>
<path d="M167.599 1096.17L156 1106C183.778 1093.3 210.995 1081.19 239.537 1070.34L317.887 1040.58L383 1015.84C381.574 1016.38 376.35 1014.1 374.722 1013.88C369.644 1013.21 364.742 1013.4 360.161 1015.87C355.58 1018.34 352.987 1022.62 347.551 1022.72C340.744 1022.85 337.341 1016.85 331.84 1014.17C322.247 1009.54 316.13 1020.26 307.704 1018.38C303.841 1017.52 300.493 1014.56 296.345 1013.75C289.51 1012.41 282.434 1013.2 276.058 1016.02C269.681 1018.83 264.306 1023.54 260.647 1029.51C254.705 1025.89 247.107 1025.62 240.503 1027.82C233.899 1030.01 228.187 1034.45 223.514 1039.6C219.906 1043.75 216.677 1048.21 213.865 1052.94C212.182 1055.66 210.398 1061.59 208.245 1062.79C205.293 1064.42 200.62 1062.64 196.968 1065.27C196.159 1065.86 189.923 1074.34 191.229 1074.42C187.543 1074.28 183.909 1075.34 180.862 1077.43C177.815 1079.53 175.517 1082.56 174.304 1086.07C173.752 1087.82 173.476 1089.68 172.557 1091.23C171.653 1092.6 170.524 1093.8 169.218 1094.79L167.599 1096.17Z" fill="#2E2E30" fill-opacity="0.05"/>
<path d="M19 654C36.8131 648.072 54.8531 642.654 72.767 637.012L124 620.821C124 620.821 101.069 613.672 90.517 616.287C89.3698 608.814 80.7973 603.509 73.3721 605.377C65.9468 607.245 61.0177 615.502 62.5052 622.925C53.6806 619.015 41.8431 625.989 41.1371 635.579C36.9391 632.889 31.1527 635.579 28.0515 639.428C24.4587 643.949 22.6433 649.529 19 654Z" fill="#2E2E30" fill-opacity="0.1"/>
</svg>
