<svg width="1920" height="1844" viewBox="0 0 1920 1844" fill="none" xmlns="http://www.w3.org/2000/svg">
<g clip-path="url(#clip0)">
<path d="M0 -78L342.398 -30.4329C433.694 -17.7497 526.306 -17.7496 617.602 -30.4329L822.398 -58.8838C913.694 -71.567 1006.31 -71.567 1097.6 -58.8838L1302.4 -30.4329C1393.69 -17.7497 1486.31 -17.7496 1577.6 -30.4329L1920 -78V1844H0L0 -78Z" fill="white"/>
<path d="M231.898 1256.35L211 1274C261.05 1251.19 310.089 1229.45 361.514 1209.97L502.681 1156.52L620 1112.11C617.431 1113.07 608.018 1108.98 605.084 1108.58C595.936 1107.38 587.103 1107.73 578.85 1112.16C570.596 1116.59 565.923 1124.28 556.128 1124.46C543.865 1124.7 537.733 1113.92 527.822 1109.11C510.537 1100.78 499.516 1120.03 484.335 1116.67C477.375 1115.12 471.342 1109.81 463.868 1108.34C451.554 1105.94 438.805 1107.36 427.315 1112.42C415.826 1117.48 406.141 1125.93 399.549 1136.65C388.843 1130.14 375.154 1129.66 363.254 1133.6C351.355 1137.55 341.063 1145.51 332.644 1154.77C326.144 1162.21 320.325 1170.22 315.259 1178.72C312.227 1183.61 309.012 1194.25 305.133 1196.4C299.814 1199.33 291.395 1196.13 284.815 1200.86C283.357 1201.93 272.12 1217.15 274.474 1217.3C267.832 1217.05 261.285 1218.94 255.796 1222.71C250.306 1226.47 246.165 1231.91 243.98 1238.21C242.985 1241.36 242.488 1244.69 240.831 1247.47C239.203 1249.93 237.168 1252.1 234.815 1253.87L231.898 1256.35Z" fill="#2E2E30" fill-opacity="0.05"/>
<path d="M1363 858L1371 869L1363 880L1355 869L1363 858Z" fill="white"/>
<path d="M988 862L989.515 867.485L995 869L989.515 870.515L988 876L986.485 870.515L981 869L986.485 867.485L988 862Z" fill="white"/>
<path d="M-97 632C-54.4183 617.602 -11.2941 604.445 31.5287 590.743L154 551.422C154 551.422 99.1832 534.06 73.9597 540.412C71.2173 522.263 50.7251 509.378 32.9751 513.915C15.2252 518.452 3.44221 538.506 6.99821 556.533C-14.0967 547.036 -42.3942 563.974 -44.0818 587.264C-54.117 580.731 -67.9491 587.264 -75.3625 596.611C-83.9512 607.59 -88.2908 621.141 -97 632Z" fill="#2E2E30" fill-opacity="0.05"/>
<path d="M820 1363L821.731 1369.27L828 1371L821.731 1372.73L820 1379L818.269 1372.73L812 1371L818.269 1369.27L820 1363Z" fill="white"/>
<path d="M1075 1657L1086 1672L1075 1687L1064 1672L1075 1657Z" fill="white"/>
</g>
<defs>
<clipPath id="clip0">
<rect width="1920" height="4795" fill="white" transform="translate(0 -2712)"/>
</clipPath>
</defs>
</svg>
