<svg width="380" height="175" viewBox="0 0 380 175" fill="none" xmlns="http://www.w3.org/2000/svg">
<path fill-rule="evenodd" clip-rule="evenodd" d="M343.845 175H68.1548C67.3929 169.108 67 163.1 67 157C67 80.2324 129.232 18 206 18C282.768 18 345 80.2324 345 157C345 163.1 344.607 169.108 343.845 175Z" fill="#29292C"/>
<path opacity="0.05" fill-rule="evenodd" clip-rule="evenodd" d="M77.4878 175H343.845C344.607 169.108 345 163.1 345 157C345 114.424 325.857 76.3185 295.71 50.821C185.44 62.0829 114.389 123.447 77.4878 175Z" fill="white" fill-opacity="0.45"/>
<path d="M328.177 159.178C328.177 91.7011 273.476 37 205.999 37C138.521 37 83.8203 91.7011 83.8203 159.178" stroke="#36363A" stroke-width="2" stroke-linecap="round"/>
<path d="M158 65.8188C136.011 79.7142 118.763 100.433 109.232 125" stroke="#36363A" stroke-width="2" stroke-linecap="round"/>
<path d="M201.513 72H198.125V56.7858L194.969 60.1241L193 58.0266L198.56 52.2954H201.513V72Z" fill="white"/>
<path d="M219 72H205.014V69.2821C209.048 66.1704 211.79 63.8661 213.238 62.3693C214.705 60.8528 215.438 59.4249 215.438 58.0857C215.438 57.1206 215.091 56.3821 214.396 55.87C213.72 55.3383 212.9 55.0724 211.934 55.0724C209.811 55.0724 208.074 55.8602 206.722 57.4357L204.753 55.161C205.583 54.1369 206.626 53.3589 207.881 52.8272C209.155 52.2757 210.487 52 211.877 52C213.846 52 215.506 52.5416 216.857 53.6248C218.209 54.708 218.884 56.195 218.884 58.0857C218.884 59.7794 218.189 61.4633 216.799 63.1374C215.409 64.8114 213.286 66.7514 210.429 68.9572H219V72Z" fill="white"/>
<path d="M287.92 168.647H284.37V153.477L281.063 156.806L279 154.714L284.825 149H287.92V168.647Z" fill="white" fill-opacity="0.45"/>
<path d="M299.294 169C296.037 169 293.529 167.989 291.769 165.966L293.802 163.61C295.218 165.161 297.038 165.937 299.263 165.937C300.517 165.937 301.519 165.613 302.267 164.965C303.036 164.297 303.42 163.472 303.42 162.49C303.42 161.43 303.046 160.586 302.297 159.957C301.569 159.309 300.588 158.985 299.354 158.985C297.635 158.985 296.159 159.555 294.925 160.694L292.407 159.987V149H305.665V152.034H295.956V157.719C297.129 156.58 298.657 156.01 300.538 156.01C302.318 156.01 303.835 156.59 305.089 157.748C306.363 158.887 307 160.419 307 162.343C307 164.366 306.282 165.986 304.846 167.203C303.43 168.401 301.579 169 299.294 169Z" fill="white" fill-opacity="0.45"/>
<path d="M106.536 169C104.29 169 102.457 168.284 101.036 166.852L102.591 164.298C103.666 165.42 104.981 165.981 106.536 165.981C108.167 165.981 109.415 165.362 110.278 164.123C111.161 162.866 111.603 161.366 111.603 159.624V159.044C111.104 159.76 110.384 160.398 109.443 160.959C108.503 161.501 107.505 161.772 106.449 161.772C104.626 161.772 103.09 161.221 101.843 160.118C100.614 159.015 100 157.476 100 155.502C100 153.664 100.653 152.125 101.958 150.887C103.282 149.629 104.99 149 107.083 149C108.887 149 110.393 149.474 111.603 150.422C112.831 151.351 113.704 152.551 114.223 154.022C114.741 155.473 115 157.137 115 159.015C115 161.917 114.261 164.307 112.783 166.184C111.305 168.061 109.223 169 106.536 169ZM107.342 158.84C108.167 158.84 108.954 158.637 109.702 158.231C110.451 157.824 111.065 157.273 111.545 156.576C111.449 155.357 111.046 154.293 110.336 153.383C109.645 152.474 108.618 152.019 107.255 152.019C106.084 152.019 105.154 152.367 104.463 153.064C103.772 153.761 103.426 154.535 103.426 155.386C103.426 156.508 103.8 157.37 104.549 157.97C105.298 158.55 106.228 158.84 107.342 158.84Z" fill="white" fill-opacity="0.15"/>
<path fill-rule="evenodd" clip-rule="evenodd" d="M25.4806 86.497C24.3749 86.1885 23.2094 86.0235 22.0053 86.0235C14.881 86.0235 9.10562 91.7988 9.10562 98.9231C9.10562 106.047 14.881 111.823 22.0053 111.823C26.1801 111.823 29.8917 109.839 32.2494 106.764C29.8211 112.982 23.7718 117.387 16.6936 117.387C7.474 117.387 0 109.913 0 100.694C0 91.474 7.474 84 16.6936 84C19.9178 84 22.9284 84.914 25.4806 86.497Z" fill="white"/>
<path d="M36 123L44 134L36 145L28 134L36 123Z" fill="white"/>
<path d="M107 52L112 59L107 66L102 59L107 52Z" fill="white"/>
<path d="M297 5L301 10.5L297 16L293 10.5L297 5Z" fill="white"/>
<path d="M368 122L376 133L368 144L360 133L368 122Z" fill="white"/>
<circle cx="360" cy="20" r="20" fill="white"/>
</svg>
