<svg width="250" height="137" viewBox="0 0 250 137" fill="none" xmlns="http://www.w3.org/2000/svg">
<path fill-rule="evenodd" clip-rule="evenodd" d="M229.257 137H65.418C64.9652 133.498 64.7317 129.928 64.7317 126.303C64.7317 80.6809 101.716 43.697 147.337 43.697C192.959 43.697 229.943 80.6809 229.943 126.303C229.943 129.928 229.71 133.498 229.257 137Z" fill="#29292C"/>
<path opacity="0.05" fill-rule="evenodd" clip-rule="evenodd" d="M70.9644 137H229.257C229.71 133.499 229.943 129.928 229.943 126.303C229.943 101.001 218.567 78.3551 200.651 63.2024C135.119 69.8952 92.8941 106.363 70.9644 137Z" fill="white" fill-opacity="0.45"/>
<path d="M219 128C219 87.6832 186.765 55 147 55C107.236 55 75 87.6832 75 128" stroke="#36363A" stroke-width="2" stroke-linecap="round"/>
<path d="M118 72C105.375 80.4526 95.4725 93.0557 90 108" stroke="#36363A" stroke-width="2" stroke-linecap="round"/>
<path d="M145.239 75H143.154V66.6322L141.212 68.4682L140 67.3146L143.421 64.1625H145.239V75Z" fill="white"/>
<path d="M156 75H147.393V73.5052C149.876 71.7937 151.563 70.5263 152.454 69.7031C153.357 68.869 153.808 68.0837 153.808 67.3471C153.808 66.8163 153.594 66.4101 153.167 66.1285C152.751 65.836 152.246 65.6898 151.652 65.6898C150.345 65.6898 149.276 66.1231 148.444 66.9897L147.233 65.7386C147.744 65.1753 148.385 64.7474 149.157 64.4549C149.941 64.1516 150.761 64 151.616 64C152.828 64 153.85 64.2979 154.681 64.8936C155.513 65.4894 155.929 66.3072 155.929 67.3471C155.929 68.2787 155.501 69.2048 154.646 70.1256C153.79 71.0463 152.484 72.1132 150.725 73.3264H156V75Z" fill="white"/>
<path d="M196.097 133.788H194.069V124.686L192.179 126.683L191 125.429L194.329 122H196.097V133.788Z" fill="white" fill-opacity="0.45"/>
<path d="M202.596 134C200.736 134 199.302 133.393 198.297 132.18L199.458 130.766C200.267 131.697 201.308 132.162 202.579 132.162C203.296 132.162 203.868 131.968 204.295 131.579C204.735 131.178 204.954 130.683 204.954 130.094C204.954 129.458 204.74 128.951 204.313 128.574C203.897 128.186 203.336 127.991 202.631 127.991C201.649 127.991 200.805 128.333 200.1 129.016L198.661 128.592V122H206.237V123.82H200.689V127.231C201.36 126.548 202.232 126.206 203.307 126.206C204.324 126.206 205.191 126.554 205.908 127.249C206.636 127.932 207 128.851 207 130.006C207 131.219 206.59 132.191 205.769 132.922C204.96 133.641 203.902 134 202.596 134Z" fill="white" fill-opacity="0.45"/>
<path d="M88.4856 134C87.2879 134 86.3103 133.57 85.5528 132.711L86.382 131.179C86.9552 131.852 87.6564 132.189 88.4856 132.189C89.3557 132.189 90.0211 131.817 90.4818 131.074C90.9527 130.319 91.1881 129.419 91.1881 128.374V128.026C90.9219 128.456 90.5381 128.839 90.0365 129.176C89.5349 129.501 89.0026 129.663 88.4395 129.663C87.4671 129.663 86.6481 129.332 85.9827 128.671C85.3276 128.009 85 127.086 85 125.901C85 124.798 85.348 123.875 86.0441 123.132C86.7505 122.377 87.6615 122 88.7774 122C89.7396 122 90.5432 122.284 91.1881 122.853C91.8432 123.411 92.309 124.131 92.5854 125.013C92.8618 125.884 93 126.882 93 128.009C93 129.75 92.6059 131.184 91.8177 132.311C91.0294 133.437 89.9187 134 88.4856 134ZM88.9155 127.904C89.3557 127.904 89.7754 127.782 90.1747 127.538C90.5739 127.295 90.9015 126.964 91.1574 126.546C91.1062 125.814 90.8912 125.176 90.5125 124.63C90.144 124.084 89.5963 123.811 88.8695 123.811C88.245 123.811 87.7486 124.02 87.38 124.438C87.0115 124.856 86.8273 125.321 86.8273 125.832C86.8273 126.505 87.0269 127.022 87.4261 127.382C87.8253 127.73 88.3218 127.904 88.9155 127.904Z" fill="white" fill-opacity="0.15"/>
<path fill-rule="evenodd" clip-rule="evenodd" d="M15.1426 111.484C14.4856 111.301 13.793 111.202 13.0775 111.202C8.84362 111.202 5.41141 114.635 5.41141 118.869C5.41141 123.102 8.84362 126.535 13.0775 126.535C15.5585 126.535 17.7642 125.356 19.1653 123.528C17.7222 127.224 14.1272 129.842 9.92079 129.842C4.44169 129.842 0 125.4 0 119.921C0 114.442 4.44169 110 9.92079 110C11.8368 110 13.6259 110.543 15.1426 111.484Z" fill="white"/>
<path d="M47 106L52 113L47 120L42 113L47 106Z" fill="white"/>
<path d="M88.5 64L92 68L88.5 72L85 68L88.5 64Z" fill="white"/>
<path d="M201 30L207 39L201 48L195 39L201 30Z" fill="white"/>
<path d="M243.5 106L248 112.5L243.5 119L239 112.5L243.5 106Z" fill="white"/>
<ellipse cx="237.5" cy="12" rx="12.5" ry="12" fill="white"/>
</svg>
