<svg width="20" height="20" viewBox="0 0 20 20" fill="none" xmlns="http://www.w3.org/2000/svg">
<path fill-rule="evenodd" clip-rule="evenodd" d="M0.435974 2.18404C0 3.03969 0 4.15979 0 6.4V12.85C0 15.0902 0 16.2103 0.435974 17.066C0.819467 17.8186 1.43139 18.4305 2.18404 18.814C3.03969 19.25 4.15979 19.25 6.4 19.25H12.85C15.0902 19.25 16.2103 19.25 17.066 18.814C17.8186 18.4305 18.4305 17.8186 18.814 17.066C19.25 16.2103 19.25 15.0902 19.25 12.85V6.4C19.25 4.15979 19.25 3.03969 18.814 2.18404C18.4305 1.43139 17.8186 0.819467 17.066 0.435974C16.2103 0 15.0902 0 12.85 0H6.4C4.15979 0 3.03969 0 2.18404 0.435974C1.43139 0.819467 0.819467 1.43139 0.435974 2.18404ZM11.3761 6C12.2477 6.05333 13.0734 6.37333 13.7615 7.01333C14.5413 8.72 14.9541 10.64 15 12.6133C14.3119 13.4667 13.3486 14 12.3394 14C12.3394 14 12.0183 13.5733 11.789 13.2C12.3853 13.04 12.9358 12.6667 13.3028 12.08C12.9817 12.2933 12.6606 12.5067 12.3394 12.6667C11.9266 12.88 11.5138 12.9867 11.1009 13.0933L11.1009 13.0933C10.7339 13.1467 10.367 13.2 10 13.2C9.63303 13.2 9.26606 13.1467 8.89908 13.0933L8.89907 13.0933C8.48623 12.9867 8.07339 12.88 7.66055 12.6667C7.33945 12.5067 7.01836 12.2933 6.69726 12.08L6.69725 12.08C7.06422 12.6667 7.61468 13.04 8.21101 13.2C7.98165 13.5733 7.66055 14 7.66055 14C6.65138 14 5.68807 13.4667 5 12.6133C5.04587 10.64 5.45872 8.72 6.23853 7.01333C6.92661 6.37333 7.75229 6.05333 8.62385 6L8.76147 6.16C7.98165 6.37333 7.29358 6.8 6.65138 7.38667C7.43119 6.90667 8.30275 6.58667 9.22018 6.48C9.49541 6.42667 9.72477 6.42667 10 6.42667C10.2752 6.42667 10.5046 6.42667 10.7798 6.48C11.6972 6.58667 12.5688 6.90667 13.3486 7.38667C12.7064 6.8 12.0183 6.37333 11.2385 6.16L11.3761 6ZM7.61468 10.5867C7.61468 11.1733 8.02752 11.6533 8.48624 11.6533C8.94495 11.6533 9.3578 11.1733 9.3578 10.5867C9.3578 10 8.94495 9.52 8.48624 9.52C8.02752 9.52 7.61468 10 7.61468 10.5867ZM10.6422 10.5867C10.6422 11.1733 11.055 11.6533 11.5138 11.6533C11.9725 11.6533 12.3853 11.1733 12.3853 10.5867C12.3853 10 11.9725 9.52 11.5138 9.52C11.055 9.52 10.6422 10 10.6422 10.5867Z" fill="white"/>
</svg>
