<svg width="226" height="204" viewBox="0 0 226 204" fill="none" xmlns="http://www.w3.org/2000/svg">
<rect y="0.000244141" width="226" height="204" rx="8" fill="#372FFF"/>
<path d="M203.716 20.2471C203.762 19.9176 204.238 19.9176 204.284 20.2471L205.178 26.5773C205.196 26.7041 205.296 26.8037 205.423 26.8216L211.753 27.7156C212.082 27.7621 212.082 28.2379 211.753 28.2844L205.423 29.1784C205.296 29.1963 205.196 29.2959 205.178 29.4227L204.284 35.7529C204.238 36.0824 203.762 36.0824 203.716 35.7529L202.822 29.4227C202.804 29.2959 202.704 29.1963 202.577 29.1784L196.247 28.2844C195.918 28.2379 195.918 27.7621 196.247 27.7156L202.577 26.8216C202.704 26.8037 202.804 26.7041 202.822 26.5773L203.716 20.2471Z" fill="white" fill-opacity="0.45"/>
<path d="M127.467 33.4633C127.554 32.8456 128.446 32.8456 128.533 33.4633L130.209 45.3325C130.243 45.5702 130.43 45.757 130.668 45.7905L142.537 47.4667C143.154 47.5539 143.154 48.4461 142.537 48.5333L130.668 50.2095C130.43 50.243 130.243 50.4298 130.209 50.6675L128.533 62.5367C128.446 63.1544 127.554 63.1544 127.467 62.5367L125.791 50.6675C125.757 50.4298 125.57 50.243 125.332 50.2095L113.463 48.5333C112.846 48.4461 112.846 47.5539 113.463 47.4667L125.332 45.7905C125.57 45.757 125.757 45.5702 125.791 45.3325L127.467 33.4633Z" fill="white" fill-opacity="0.15"/>
<path d="M166.787 9.18532C166.822 8.93823 167.178 8.93822 167.213 9.18532L167.884 13.933C167.897 14.0281 167.972 14.1028 168.067 14.1162L172.815 14.7867C173.062 14.8216 173.062 15.1784 172.815 15.2133L168.067 15.8838C167.972 15.8972 167.897 15.9719 167.884 16.067L167.213 20.8147C167.178 21.0618 166.822 21.0618 166.787 20.8147L166.116 16.067C166.103 15.9719 166.028 15.8972 165.933 15.8838L161.185 15.2133C160.938 15.1784 160.938 14.8216 161.185 14.7867L165.933 14.1162C166.028 14.1028 166.103 14.0281 166.116 13.933L166.787 9.18532Z" fill="white"/>
<path d="M193.787 63.1853C193.822 62.9382 194.178 62.9382 194.213 63.1853L194.884 67.933C194.897 68.0281 194.972 68.1028 195.067 68.1162L199.815 68.7867C200.062 68.8216 200.062 69.1784 199.815 69.2133L195.067 69.8838C194.972 69.8972 194.897 69.9719 194.884 70.067L194.213 74.8147C194.178 75.0618 193.822 75.0618 193.787 74.8147L193.116 70.067C193.103 69.9719 193.028 69.8972 192.933 69.8838L188.185 69.2133C187.938 69.1784 187.938 68.8216 188.185 68.7867L192.933 68.1162C193.028 68.1028 193.103 68.0281 193.116 67.933L193.787 63.1853Z" fill="white" fill-opacity="0.7"/>
<path d="M49.563 29.2483C49.7981 27.5839 52.2019 27.5839 52.437 29.2483L54.7981 45.9679C54.8885 46.6082 55.3918 47.1115 56.0321 47.2019L72.7517 49.563C74.4161 49.7981 74.4161 52.2019 72.7517 52.437L56.0321 54.7981C55.3918 54.8885 54.8885 55.3918 54.7981 56.0321L52.437 72.7517C52.2019 74.4161 49.7981 74.4161 49.563 72.7517L47.2019 56.0321C47.1115 55.3918 46.6082 54.8885 45.9679 54.7981L29.2483 52.437C27.5839 52.2019 27.5839 49.7981 29.2483 49.563L45.9679 47.2019C46.6082 47.1115 47.1115 46.6082 47.2019 45.9679L49.563 29.2483Z" fill="white"/>
<path d="M58.563 34.2483C58.7981 32.5839 61.2019 32.5839 61.437 34.2483L63.7981 50.9679C63.8885 51.6082 64.3918 52.1115 65.0321 52.2019L81.7517 54.563C83.4161 54.7981 83.4161 57.2019 81.7517 57.437L65.0321 59.7981C64.3918 59.8885 63.8885 60.3918 63.7981 61.0321L61.437 77.7517C61.2019 79.4161 58.7981 79.4161 58.563 77.7517L56.2019 61.0321C56.1115 60.3918 55.6082 59.8885 54.9679 59.7981L38.2483 57.437C36.5839 57.2019 36.5839 54.7981 38.2483 54.563L54.9679 52.2019C55.6082 52.1115 56.1115 51.6082 56.2019 50.9679L58.563 34.2483Z" stroke="white" stroke-opacity="0.45" stroke-width="2" stroke-linecap="round"/>
</svg>
