<svg width="342" height="158" viewBox="0 0 342 158" fill="none" xmlns="http://www.w3.org/2000/svg">
<rect width="342" height="158" rx="8" fill="#1C1C1E"/>
<path fill-rule="evenodd" clip-rule="evenodd" d="M305.257 158H141.418C140.965 154.498 140.732 150.928 140.732 147.303C140.732 101.681 177.716 64.697 223.337 64.697C268.959 64.697 305.943 101.681 305.943 147.303C305.943 150.928 305.71 154.498 305.257 158Z" fill="#29292C"/>
<path opacity="0.05" fill-rule="evenodd" clip-rule="evenodd" d="M146.964 158H305.257C305.71 154.499 305.943 150.928 305.943 147.303C305.943 122.001 294.567 99.3551 276.651 84.2024C211.119 90.8952 168.894 127.363 146.964 158Z" fill="white" fill-opacity="0.45"/>
<path d="M295 149C295 108.683 262.765 76 223 76C183.236 76 151 108.683 151 149" stroke="#36363A" stroke-width="2" stroke-linecap="round"/>
<path d="M194 93C181.375 101.453 171.473 114.056 166 129" stroke="#36363A" stroke-width="2" stroke-linecap="round"/>
<path d="M221.239 96H219.154V87.6322L217.212 89.4682L216 88.3146L219.421 85.1625H221.239V96Z" fill="white"/>
<path d="M232 96H223.393V94.5052C225.876 92.7937 227.563 91.5263 228.454 90.7031C229.357 89.869 229.808 89.0837 229.808 88.3471C229.808 87.8163 229.594 87.4101 229.167 87.1285C228.751 86.836 228.246 86.6898 227.652 86.6898C226.345 86.6898 225.276 87.1231 224.444 87.9897L223.233 86.7386C223.744 86.1753 224.385 85.7474 225.157 85.4549C225.941 85.1516 226.761 85 227.616 85C228.828 85 229.85 85.2979 230.681 85.8936C231.513 86.4894 231.929 87.3072 231.929 88.3471C231.929 89.2787 231.501 90.2048 230.646 91.1256C229.79 92.0463 228.484 93.1132 226.725 94.3264H232V96Z" fill="white"/>
<path d="M272.097 154.788H270.069V145.686L268.179 147.683L267 146.429L270.329 143H272.097V154.788Z" fill="white" fill-opacity="0.45"/>
<path d="M278.596 155C276.736 155 275.302 154.393 274.297 153.18L275.458 151.766C276.267 152.697 277.308 153.162 278.579 153.162C279.296 153.162 279.868 152.968 280.295 152.579C280.735 152.178 280.954 151.683 280.954 151.094C280.954 150.458 280.74 149.951 280.313 149.574C279.897 149.186 279.336 148.991 278.631 148.991C277.649 148.991 276.805 149.333 276.1 150.016L274.661 149.592V143H282.237V144.82H276.689V148.231C277.36 147.548 278.232 147.206 279.307 147.206C280.324 147.206 281.191 147.554 281.908 148.249C282.636 148.932 283 149.851 283 151.006C283 152.219 282.59 153.191 281.769 153.922C280.96 154.641 279.902 155 278.596 155Z" fill="white" fill-opacity="0.45"/>
<path d="M164.486 155C163.288 155 162.31 154.57 161.553 153.711L162.382 152.179C162.955 152.852 163.656 153.189 164.486 153.189C165.356 153.189 166.021 152.817 166.482 152.074C166.953 151.319 167.188 150.419 167.188 149.374V149.026C166.922 149.456 166.538 149.839 166.036 150.176C165.535 150.501 165.003 150.663 164.44 150.663C163.467 150.663 162.648 150.332 161.983 149.671C161.328 149.009 161 148.086 161 146.901C161 145.798 161.348 144.875 162.044 144.132C162.75 143.377 163.662 143 164.777 143C165.74 143 166.543 143.284 167.188 143.853C167.843 144.411 168.309 145.131 168.585 146.013C168.862 146.884 169 147.882 169 149.009C169 150.75 168.606 152.184 167.818 153.311C167.029 154.437 165.919 155 164.486 155ZM164.916 148.904C165.356 148.904 165.775 148.782 166.175 148.538C166.574 148.295 166.901 147.964 167.157 147.546C167.106 146.814 166.891 146.176 166.512 145.63C166.144 145.084 165.596 144.811 164.869 144.811C164.245 144.811 163.749 145.02 163.38 145.438C163.012 145.856 162.827 146.321 162.827 146.832C162.827 147.505 163.027 148.022 163.426 148.382C163.825 148.73 164.322 148.904 164.916 148.904Z" fill="white" fill-opacity="0.15"/>
<path fill-rule="evenodd" clip-rule="evenodd" d="M91.1426 132.484C90.4856 132.301 89.793 132.202 89.0775 132.202C84.8436 132.202 81.4114 135.635 81.4114 139.869C81.4114 144.102 84.8436 147.535 89.0775 147.535C91.5585 147.535 93.7642 146.356 95.1653 144.528C93.7222 148.224 90.1272 150.842 85.9208 150.842C80.4417 150.842 76 146.4 76 140.921C76 135.442 80.4417 131 85.9208 131C87.8368 131 89.6259 131.543 91.1426 132.484Z" fill="white"/>
<path d="M123 127L128 134L123 141L118 134L123 127Z" fill="white"/>
<path d="M164.5 85L168 89L164.5 93L161 89L164.5 85Z" fill="white"/>
<path d="M277 51L283 60L277 69L271 60L277 51Z" fill="white"/>
<path d="M319.5 127L324 133.5L319.5 140L315 133.5L319.5 127Z" fill="white"/>
<ellipse cx="313.5" cy="33" rx="12.5" ry="12" fill="white"/>
</svg>
