<svg width="342" height="103" viewBox="0 0 342 103" fill="none" xmlns="http://www.w3.org/2000/svg">
<rect width="342" height="103" rx="8" fill="#372FFF"/>
<path d="M292.716 29.2471C292.762 28.9176 293.238 28.9176 293.284 29.2471L294.178 35.5773C294.196 35.7041 294.296 35.8037 294.423 35.8216L300.753 36.7156C301.082 36.7621 301.082 37.2379 300.753 37.2844L294.423 38.1784C294.296 38.1963 294.196 38.2959 294.178 38.4227L293.284 44.7529C293.238 45.0824 292.762 45.0824 292.716 44.7529L291.822 38.4227C291.804 38.2959 291.704 38.1963 291.577 38.1784L285.247 37.2844C284.918 37.2379 284.918 36.7621 285.247 36.7156L291.577 35.8216C291.704 35.8037 291.804 35.7041 291.822 35.5773L292.716 29.2471Z" fill="white" fill-opacity="0.45"/>
<path d="M216.467 42.4633C216.554 41.8456 217.446 41.8456 217.533 42.4633L219.209 54.3325C219.243 54.5702 219.43 54.757 219.668 54.7905L231.537 56.4667C232.154 56.5539 232.154 57.4461 231.537 57.5333L219.668 59.2095C219.43 59.243 219.243 59.4298 219.209 59.6675L217.533 71.5367C217.446 72.1544 216.554 72.1544 216.467 71.5367L214.791 59.6675C214.757 59.4298 214.57 59.243 214.332 59.2095L202.463 57.5333C201.846 57.4461 201.846 56.5539 202.463 56.4667L214.332 54.7905C214.57 54.757 214.757 54.5702 214.791 54.3325L216.467 42.4633Z" fill="white" fill-opacity="0.15"/>
<path d="M255.787 18.1853C255.822 17.9382 256.178 17.9382 256.213 18.1853L256.884 22.933C256.897 23.0281 256.972 23.1028 257.067 23.1162L261.815 23.7867C262.062 23.8216 262.062 24.1784 261.815 24.2133L257.067 24.8838C256.972 24.8972 256.897 24.9719 256.884 25.067L256.213 29.8147C256.178 30.0618 255.822 30.0618 255.787 29.8147L255.116 25.067C255.103 24.9719 255.028 24.8972 254.933 24.8838L250.185 24.2133C249.938 24.1784 249.938 23.8216 250.185 23.7867L254.933 23.1162C255.028 23.1028 255.103 23.0281 255.116 22.933L255.787 18.1853Z" fill="white"/>
<path d="M282.787 72.1853C282.822 71.9382 283.178 71.9382 283.213 72.1853L283.884 76.933C283.897 77.0281 283.972 77.1028 284.067 77.1162L288.815 77.7867C289.062 77.8216 289.062 78.1784 288.815 78.2133L284.067 78.8838C283.972 78.8972 283.897 78.9719 283.884 79.067L283.213 83.8147C283.178 84.0618 282.822 84.0618 282.787 83.8147L282.116 79.067C282.103 78.9719 282.028 78.8972 281.933 78.8838L277.185 78.2133C276.938 78.1784 276.938 77.8216 277.185 77.7867L281.933 77.1162C282.028 77.1028 282.103 77.0281 282.116 76.933L282.787 72.1853Z" fill="white" fill-opacity="0.7"/>
</svg>
