<svg width="710" height="204" viewBox="0 0 710 204" fill="none" xmlns="http://www.w3.org/2000/svg">
<rect width="710" height="204" rx="8" fill="#1C1C1E"/>
<path fill-rule="evenodd" clip-rule="evenodd" d="M642.845 204H367.155C366.393 198.108 366 192.1 366 186C366 109.232 428.232 47 505 47C581.768 47 644 109.232 644 186C644 192.1 643.607 198.108 642.845 204Z" fill="#29292C"/>
<path opacity="0.05" fill-rule="evenodd" clip-rule="evenodd" d="M376.488 204H642.845C643.607 198.108 644 192.1 644 186C644 143.424 624.857 105.318 594.71 79.821C484.44 91.0829 413.389 152.447 376.488 204Z" fill="white" fill-opacity="0.45"/>
<path d="M627.177 188.178C627.177 120.701 572.476 66 504.999 66C437.521 66 382.82 120.701 382.82 188.178" stroke="#36363A" stroke-width="2" stroke-linecap="round"/>
<path d="M457 94.8188C435.011 108.714 417.763 129.433 408.232 154" stroke="#36363A" stroke-width="2" stroke-linecap="round"/>
<path d="M500.513 101H497.125V85.7858L493.969 89.1241L492 87.0266L497.56 81.2954H500.513V101Z" fill="white"/>
<path d="M518 101H504.014V98.2821C508.048 95.1704 510.79 92.8661 512.238 91.3693C513.705 89.8528 514.438 88.4249 514.438 87.0857C514.438 86.1206 514.091 85.3821 513.396 84.87C512.72 84.3383 511.9 84.0724 510.934 84.0724C508.811 84.0724 507.074 84.8602 505.722 86.4357L503.753 84.161C504.583 83.1369 505.626 82.3589 506.881 81.8272C508.155 81.2757 509.487 81 510.877 81C512.846 81 514.506 81.5416 515.857 82.6248C517.209 83.708 517.884 85.195 517.884 87.0857C517.884 88.7794 517.189 90.4633 515.799 92.1374C514.409 93.8114 512.286 95.7514 509.429 97.9572H518V101Z" fill="white"/>
<path d="M586.92 197.647H583.37V182.477L580.063 185.806L578 183.714L583.825 178H586.92V197.647Z" fill="white" fill-opacity="0.45"/>
<path d="M598.294 198C595.037 198 592.529 196.989 590.769 194.966L592.802 192.61C594.218 194.161 596.038 194.937 598.263 194.937C599.517 194.937 600.519 194.613 601.267 193.965C602.036 193.297 602.42 192.472 602.42 191.49C602.42 190.43 602.046 189.586 601.297 188.957C600.569 188.309 599.588 187.985 598.354 187.985C596.635 187.985 595.159 188.555 593.925 189.694L591.407 188.987V178H604.665V181.034H594.956V186.719C596.129 185.58 597.657 185.01 599.538 185.01C601.318 185.01 602.835 185.59 604.089 186.748C605.363 187.887 606 189.419 606 191.343C606 193.366 605.282 194.986 603.846 196.203C602.43 197.401 600.579 198 598.294 198Z" fill="white" fill-opacity="0.45"/>
<path d="M405.536 198C403.29 198 401.457 197.284 400.036 195.852L401.591 193.298C402.666 194.42 403.981 194.981 405.536 194.981C407.167 194.981 408.415 194.362 409.278 193.123C410.161 191.866 410.603 190.366 410.603 188.624V188.044C410.104 188.76 409.384 189.398 408.443 189.959C407.503 190.501 406.505 190.772 405.449 190.772C403.626 190.772 402.09 190.221 400.843 189.118C399.614 188.015 399 186.476 399 184.502C399 182.664 399.653 181.125 400.958 179.887C402.282 178.629 403.99 178 406.083 178C407.887 178 409.393 178.474 410.603 179.422C411.831 180.351 412.704 181.551 413.223 183.022C413.741 184.473 414 186.137 414 188.015C414 190.917 413.261 193.307 411.783 195.184C410.305 197.061 408.223 198 405.536 198ZM406.342 187.84C407.167 187.84 407.954 187.637 408.702 187.231C409.451 186.824 410.065 186.273 410.545 185.576C410.449 184.357 410.046 183.293 409.336 182.383C408.645 181.474 407.618 181.019 406.255 181.019C405.084 181.019 404.154 181.367 403.463 182.064C402.772 182.761 402.426 183.535 402.426 184.386C402.426 185.508 402.8 186.37 403.549 186.97C404.298 187.55 405.228 187.84 406.342 187.84Z" fill="white" fill-opacity="0.15"/>
<path fill-rule="evenodd" clip-rule="evenodd" d="M324.481 115.497C323.375 115.188 322.209 115.023 321.005 115.023C313.881 115.023 308.106 120.799 308.106 127.923C308.106 135.047 313.881 140.823 321.005 140.823C325.18 140.823 328.892 138.839 331.249 135.764C328.821 141.982 322.772 146.387 315.694 146.387C306.474 146.387 299 138.913 299 129.694C299 120.474 306.474 113 315.694 113C318.918 113 321.928 113.914 324.481 115.497Z" fill="white"/>
<path d="M335 152L343 163L335 174L327 163L335 152Z" fill="white"/>
<path d="M406 81L411 88L406 95L401 88L406 81Z" fill="white"/>
<path d="M596 34L600 39.5L596 45L592 39.5L596 34Z" fill="white"/>
<path d="M667 151L675 162L667 173L659 162L667 151Z" fill="white"/>
<circle cx="659" cy="49" r="20" fill="white"/>
</svg>
