<svg width="342" height="158" viewBox="0 0 342 158" fill="none" xmlns="http://www.w3.org/2000/svg">
<rect width="342" height="158" rx="8" fill="#372FFF"/>
<g opacity="0.45">
<path d="M64.4478 122.11L58.6874 123.786C57.8712 124.023 57.2884 124.75 57.2912 125.6C57.3071 130.423 58.5465 138.446 63.4775 141.563C63.9621 141.869 64.5681 141.877 65.0976 141.657L67.6109 140.615C69.2402 139.939 69.4718 137.16 68.6417 135.603C66.9811 132.49 66.8232 128.031 67.1577 124.469C67.2988 122.968 65.8959 121.689 64.4478 122.11Z" fill="white"/>
<path d="M71.6281 122.551C70.8811 126.146 70.3921 132.78 72.6285 136.973C73.4586 138.529 73.227 141.309 71.5977 141.985L68.2517 143.372" stroke="white" stroke-opacity="0.7" stroke-width="2" stroke-linecap="round"/>
<ellipse cx="63.1813" cy="133.318" rx="1.94712" ry="2.25093" transform="rotate(-117.064 63.1813 133.318)" fill="#E4E4E4"/>
</g>
<path d="M39.1929 39.5367L36.2609 36.4771C35.6727 35.8634 35.5301 34.9434 35.9645 34.2126C38.0141 30.7647 42.132 25.737 46.8518 25.4478C47.4239 25.4127 47.9528 25.7118 48.3016 26.1666L49.1265 27.2425C50.1998 28.6422 49.0204 31.2883 47.6126 32.351C45.553 33.9058 43.8893 36.5011 42.7503 38.862C42.0951 40.2203 40.2363 40.6256 39.1929 39.5367Z" fill="white"/>
<path d="M37.9948 35.4383L41.9089 39.5227C42.9523 40.6116 44.811 40.2063 45.4663 38.848C46.6053 36.4871 48.2689 33.8918 50.3286 32.337C51.7363 31.2743 52.9157 28.6282 51.8425 27.2285L50.469 25.4373" stroke="white" stroke-opacity="0.7" stroke-width="2" stroke-linecap="round"/>
<ellipse rx="1.62788" ry="1.88189" transform="matrix(-0.839274 0.543708 0.543708 0.839274 43.3379 31.2875)" fill="#E4E4E4"/>
<g opacity="0.25">
<path d="M297.75 26.5994L301.866 25.5901C302.692 25.3876 303.56 25.7241 303.975 26.4656C305.936 29.9646 308.232 36.0446 306.122 40.2767C305.867 40.7897 305.343 41.0982 304.775 41.1728L303.431 41.3493C301.682 41.5789 299.98 39.2345 299.763 37.484C299.447 34.9229 298.031 32.1844 296.556 30.0176C295.707 28.771 296.286 26.9586 297.75 26.5994Z" fill="white"/>
<path d="M305.859 26.8644C307.886 29.9807 311.117 37.1121 308.736 41.8891C308.481 42.4021 307.957 42.7106 307.389 42.7852L301.381 43.5739" stroke="white" stroke-opacity="0.7" stroke-width="2" stroke-linecap="round"/>
<ellipse rx="1.62788" ry="1.88189" transform="matrix(-0.0512281 -0.998687 -0.998687 0.0512281 302.821 34.3156)" fill="#E4E4E4"/>
</g>
<path d="M247.489 95.6487L243.767 108.454C243.53 109.27 242.806 109.851 241.956 109.866C233.838 110.01 219.023 108.024 213.829 98.9342C213.545 98.437 213.534 97.8344 213.753 97.3052L216.968 89.5438C217.644 87.9138 220.21 87.7924 221.532 88.9617C227.148 93.9325 237.872 93.9964 245.142 93.011C246.636 92.8084 247.91 94.2006 247.489 95.6487Z" fill="white"/>
<path d="M246.109 114.439C236.286 114.966 215.301 112.837 208.413 100.324C208.138 99.8242 208.125 99.2241 208.342 98.6965L214.819 82.9999" stroke="white" stroke-opacity="0.7" stroke-width="2" stroke-linecap="round"/>
<ellipse rx="3.26384" ry="3.77311" transform="matrix(0.890502 0.454979 0.454979 -0.890502 228.073 99.8211)" fill="#E4E4E4"/>
<path d="M278.612 121.609L283.499 116.925C284.113 116.337 285.032 116.195 285.769 116.62C290.249 119.207 297.153 124.716 297.36 131.032C297.379 131.605 297.083 132.133 296.629 132.482L293.996 134.5C292.596 135.574 290.115 134.384 289.233 132.856C287.264 129.442 282.939 126.762 279.304 125.124C277.929 124.505 277.523 122.652 278.612 121.609Z" fill="white"/>
<path d="M282.585 120.266L287.473 115.582C288.086 114.994 289.006 114.852 289.742 115.277C294.223 117.864 301.126 123.373 301.334 129.688C301.353 130.261 301.057 130.79 300.602 131.139L297.969 133.157C296.569 134.23 294.088 133.041 293.207 131.513C291.237 128.099 286.913 125.419 283.277 123.781C281.902 123.161 281.496 121.309 282.585 120.266Z" stroke="white" stroke-opacity="0.7" stroke-width="2" stroke-linecap="round"/>
<ellipse rx="2.08669" ry="2.41229" transform="matrix(-0.543708 -0.839274 -0.839274 0.543708 289.864 126.275)" fill="#E4E4E4"/>
<g opacity="0.7">
<path d="M202.809 19.6135L205.645 30.1047C205.867 30.9254 205.549 31.7998 204.829 32.2512C198.878 35.9806 187.274 41.0135 179.432 36.7912C178.927 36.5195 178.604 36.0097 178.516 35.4433L177.519 29.0269C177.249 27.284 179.406 25.8025 181.158 26.0084C187.27 26.7266 194.644 22.3699 199.422 18.5678C200.602 17.6288 202.415 18.1577 202.809 19.6135Z" fill="white"/>
<path d="M200.612 21.6806L204.316 35.3823C204.538 36.203 204.22 37.0774 203.5 37.5288C197.349 41.3835 185.159 46.6307 177.325 41.6117" stroke="white" stroke-opacity="0.7" stroke-width="2" stroke-linecap="round"/>
<ellipse rx="2.82943" ry="3.27091" transform="matrix(0.997203 -0.0747407 -0.0747407 -0.997203 190.249 31.1115)" fill="#E4E4E4"/>
</g>
</svg>
