<svg width="342" height="158" viewBox="0 0 342 158" fill="none" xmlns="http://www.w3.org/2000/svg">
<rect width="342" height="158" rx="8" fill="#43CC6A"/>
<path d="M206 58.9231C206 50.0865 213.163 42.9231 222 42.9231H342V150C342 154.418 338.418 158 334 158H206V58.9231Z" fill="#57E07E"/>
<path d="M321.824 54.8792H225.956C221.538 54.8792 217.956 58.4609 217.956 62.8792V155.011M328.549 54.8792H336.396" stroke="#85F8A6" stroke-width="2" stroke-linecap="round"/>
<path fill-rule="evenodd" clip-rule="evenodd" d="M342 113.947V150C342 154.418 338.418 158 334 158H261.536C260.406 153.959 259.802 149.698 259.802 145.297C259.802 119.297 280.879 98.2197 306.879 98.2197C320.838 98.2197 333.379 104.296 342 113.947Z" fill="#65EE8C"/>
<rect x="300.154" y="72.0659" width="13.4505" height="32.1319" rx="6.72527" fill="#65EE8C"/>
<path d="M306.879 104.198V79.7144" stroke="#85F8A6" stroke-width="2" stroke-linecap="round"/>
<rect x="233.648" y="158" width="13.4505" height="34.3736" rx="6.72527" transform="rotate(-90 233.648 158)" fill="#65EE8C"/>
<rect x="245.604" y="98.7639" width="13.4505" height="35.481" rx="6.72527" transform="rotate(-45 245.604 98.7639)" fill="#65EE8C"/>
<path d="M274.854 118.502L264.286 107.934" stroke="#85F8A6" stroke-width="2" stroke-linecap="round"/>
<path d="M265.78 145.297C265.78 122.598 284.181 104.198 306.879 104.198C316.994 104.198 326.256 107.852 333.416 113.912" stroke="#85F8A6" stroke-width="2" stroke-linecap="round"/>
<path fill-rule="evenodd" clip-rule="evenodd" d="M286.822 158C285.782 155.465 285.209 152.69 285.209 149.78C285.209 137.812 294.911 128.11 306.879 128.11C318.847 128.11 328.549 137.812 328.549 149.78C328.549 152.69 327.976 155.465 326.936 158H286.822Z" fill="#43CC6A"/>
<path d="M333.78 149.78C333.78 134.923 321.736 122.879 306.879 122.879C292.022 122.879 279.978 134.923 279.978 149.78" stroke="#85F8A6" stroke-width="2" stroke-linecap="round"/>
<path fill-rule="evenodd" clip-rule="evenodd" d="M313.351 158H300.407C297.977 156.084 296.418 153.114 296.418 149.78C296.418 144.002 301.102 139.319 306.879 139.319C312.657 139.319 317.341 144.002 317.341 149.78C317.341 153.114 315.781 156.084 313.351 158Z" fill="#65EE8C"/>
</svg>
