<svg width="468" height="204" viewBox="0 0 468 204" fill="none" xmlns="http://www.w3.org/2000/svg">
<rect width="468" height="204" rx="8" fill="#372FFF"/>
<g opacity="0.45">
<path d="M94.9157 159.929L84.4118 162.985C83.5956 163.222 83.0141 163.949 83.0033 164.799C82.9131 171.854 84.659 184.448 92.3856 188.969C92.8803 189.258 93.4836 189.269 94.013 189.049L100.062 186.541C101.692 185.865 101.834 183.253 100.744 181.867C96.9169 176.997 96.8027 168.372 97.5704 162.278C97.7589 160.781 96.3638 159.508 94.9157 159.929Z" fill="white"/>
<path d="M103.929 161C102.723 166.803 101.978 178.032 106.563 183.867C107.653 185.253 107.511 187.865 105.882 188.541L99 191.394" stroke="white" stroke-opacity="0.7" stroke-width="2" stroke-linecap="round"/>
<ellipse cx="91.5987" cy="176.718" rx="2.84237" ry="3.28587" transform="rotate(-117.064 91.5987 176.718)" fill="#E4E4E4"/>
</g>
<path d="M57.6385 40.9213L51.8489 34.8797C51.2607 34.266 51.1186 33.3482 51.5393 32.6095C54.4585 27.484 60.8489 19.3837 68.1751 19.2335C68.7481 19.2218 69.2762 19.5161 69.625 19.971L72.3973 23.5865C73.4705 24.9863 72.2821 27.3981 70.7026 28.1832C66.4042 30.3197 63.0669 35.8004 61.1352 40.2217C60.5314 41.6037 58.6819 42.0101 57.6385 40.9213Z" fill="white"/>
<path d="M54.8314 33.8345L61.6031 40.9008C62.6465 41.9897 64.496 41.5832 65.0998 40.2013C67.0315 35.7799 70.3688 30.2993 74.6672 28.1627C76.2467 27.3776 77.4351 24.9658 76.3618 23.5661L73.0411 19.2352" stroke="white" stroke-opacity="0.7" stroke-width="2" stroke-linecap="round"/>
<ellipse rx="2.37635" ry="2.74714" transform="matrix(-0.839274 0.543708 0.543708 0.839274 62.6313 27.7751)" fill="#E4E4E4"/>
<g opacity="0.25">
<path d="M401.208 43.9979L409.335 42.0048C410.161 41.8023 411.027 42.1381 411.456 42.8718C414.435 47.9626 418.255 57.5471 414.722 63.9668C414.446 64.4689 413.927 64.7791 413.359 64.8537L408.841 65.4468C407.093 65.6764 405.598 63.4413 405.708 61.6809C406.007 56.89 402.929 51.2595 400.066 47.3759C399.171 46.1621 399.744 44.3571 401.208 43.9979Z" fill="white"/>
<path d="M414.53 44.0205C417.543 48.6503 422.374 59.3506 418.538 66.3205C418.262 66.8227 417.743 67.1329 417.175 67.2075L407.994 68.4128" stroke="white" stroke-opacity="0.7" stroke-width="2" stroke-linecap="round"/>
<ellipse rx="2.37635" ry="2.74714" transform="matrix(-0.0512281 -0.998687 -0.998687 0.0512281 410.095 54.8974)" fill="#E4E4E4"/>
</g>
<path d="M368.072 131.996L362.03 152.784C361.793 153.6 361.072 154.18 360.222 154.204C348.428 154.536 325.837 151.728 318.308 137.9C318.034 137.397 318.02 136.794 318.239 136.265L323.92 122.553C324.595 120.923 327.071 120.837 328.229 122.169C336.209 131.341 354.485 131.148 365.734 129.393C367.224 129.16 368.493 130.548 368.072 131.996Z" fill="white"/>
<path d="M365.631 160.895C351.196 161.668 320.253 158.514 310.407 139.927C310.14 139.423 310.125 138.822 310.342 138.295L319.955 115" stroke="white" stroke-opacity="0.7" stroke-width="2" stroke-linecap="round"/>
<ellipse rx="4.7645" ry="5.50792" transform="matrix(0.890502 0.454979 0.454979 -0.890502 339.302 139.555)" fill="#E4E4E4"/>
<path d="M404.976 160.683L413.686 152.336C414.3 151.748 415.219 151.608 415.962 152.021C422.564 155.7 433.448 164.131 433.456 173.794C433.456 174.368 433.164 174.896 432.71 175.244L426.821 179.759C425.422 180.832 423.115 179.652 422.507 177.996C420.16 171.607 411.883 166.722 405.687 164.149C404.295 163.571 403.887 161.726 404.976 160.683Z" fill="white"/>
<path d="M410.776 158.722L419.486 150.375C420.1 149.787 421.019 149.646 421.762 150.06C428.364 153.739 439.248 162.17 439.256 171.833C439.256 172.407 438.964 172.934 438.51 173.283L432.621 177.798C431.222 178.871 428.915 177.691 428.307 176.035C425.96 169.646 417.683 164.761 411.488 162.188C410.095 161.609 409.687 159.765 410.776 158.722Z" stroke="white" stroke-opacity="0.7" stroke-width="2" stroke-linecap="round"/>
<ellipse rx="3.04611" ry="3.52141" transform="matrix(-0.543708 -0.839274 -0.839274 0.543708 422.506 166.436)" fill="#E4E4E4"/>
<g opacity="0.7">
<path d="M274.415 22.3963L279.125 39.8173C279.347 40.638 279.034 41.508 278.319 41.968C269.727 47.4951 252.024 55.4079 240.327 48.748C239.829 48.4644 239.504 47.9565 239.416 47.3901L237.565 35.477C237.295 33.7341 239.383 32.3485 241.087 32.8044C250.871 35.4225 263.634 27.5652 271.053 21.3822C272.211 20.4167 274.021 20.9405 274.415 22.3963Z" fill="white"/>
<path d="M271.607 26.8896L277.185 47.5212C277.407 48.3418 277.094 49.2119 276.379 49.6718C267.596 55.3222 249.291 63.4656 237.614 55.9847" stroke="white" stroke-opacity="0.7" stroke-width="2" stroke-linecap="round"/>
<ellipse rx="4.13034" ry="4.77482" transform="matrix(0.997203 -0.0747407 -0.0747407 -0.997203 256.479 40.6566)" fill="#E4E4E4"/>
</g>
</svg>
