<svg width="284" height="139" viewBox="0 0 284 139" fill="none" xmlns="http://www.w3.org/2000/svg">
<g opacity="0.45">
<path d="M30.4478 116.11L24.6874 117.786C23.8712 118.023 23.2884 118.75 23.2912 119.6C23.3071 124.423 24.5465 132.446 29.4775 135.563C29.9621 135.869 30.5681 135.877 31.0976 135.657L33.6109 134.615C35.2402 133.939 35.4718 131.16 34.6417 129.603C32.9811 126.49 32.8232 122.031 33.1577 118.469C33.2988 116.968 31.8959 115.689 30.4478 116.11Z" fill="white"/>
<path d="M37.6281 116.551C36.8811 120.146 36.3921 126.781 38.6285 130.973C39.4586 132.53 39.227 135.309 37.5977 135.985L34.2517 137.372" stroke="white" stroke-opacity="0.7" stroke-width="2" stroke-linecap="round"/>
<ellipse cx="29.1813" cy="127.319" rx="1.94712" ry="2.25093" transform="rotate(-117.064 29.1813 127.319)" fill="#E4E4E4"/>
</g>
<path d="M5.19288 33.5367L2.26093 30.4771C1.67275 29.8634 1.53014 28.9434 1.96454 28.2126C4.01414 24.7647 8.132 19.737 12.8518 19.4478C13.4239 19.4127 13.9528 19.7118 14.3016 20.1666L15.1265 21.2425C16.1998 22.6422 15.0204 25.2883 13.6126 26.351C11.553 27.9058 9.88929 30.5011 8.75034 32.862C8.09507 34.2203 6.23632 34.6256 5.19288 33.5367Z" fill="white"/>
<path d="M3.99482 29.4383L7.90885 33.5227C8.95229 34.6116 10.811 34.2063 11.4663 32.848C12.6053 30.4871 14.2689 27.8918 16.3286 26.337C17.7363 25.2743 18.9157 22.6282 17.8425 21.2285L16.469 19.4373" stroke="white" stroke-opacity="0.7" stroke-width="2" stroke-linecap="round"/>
<ellipse rx="1.62788" ry="1.88189" transform="matrix(-0.839274 0.543708 0.543708 0.839274 9.33811 25.2878)" fill="#E4E4E4"/>
<g opacity="0.25">
<path d="M263.75 20.5994L267.866 19.5901C268.692 19.3876 269.56 19.7241 269.975 20.4656C271.936 23.9646 274.232 30.0446 272.122 34.2767C271.867 34.7897 271.343 35.0982 270.775 35.1728L269.431 35.3493C267.682 35.5789 265.98 33.2345 265.763 31.484C265.447 28.9229 264.031 26.1844 262.556 24.0176C261.707 22.771 262.286 20.9586 263.75 20.5994Z" fill="white"/>
<path d="M271.859 20.8641C273.886 23.9805 277.117 31.1119 274.736 35.8888C274.481 36.4018 273.957 36.7103 273.389 36.785L267.381 37.5737" stroke="white" stroke-opacity="0.7" stroke-width="2" stroke-linecap="round"/>
<ellipse rx="1.62788" ry="1.88189" transform="matrix(-0.0512281 -0.998687 -0.998687 0.0512281 268.821 28.3154)" fill="#E4E4E4"/>
</g>
<path d="M213.489 89.6487L209.767 102.454C209.53 103.27 208.806 103.851 207.956 103.866C199.838 104.01 185.023 102.024 179.829 92.9342C179.545 92.437 179.534 91.8344 179.753 91.3052L182.968 83.5438C183.644 81.9138 186.21 81.7924 187.532 82.9617C193.148 87.9325 203.872 87.9964 211.142 87.011C212.636 86.8084 213.91 88.2006 213.489 89.6487Z" fill="white"/>
<path d="M212.109 108.44C202.286 108.966 181.301 106.837 174.413 94.3244C174.138 93.8245 174.125 93.2243 174.342 92.6968L180.819 77.0001" stroke="white" stroke-opacity="0.7" stroke-width="2" stroke-linecap="round"/>
<ellipse rx="3.26384" ry="3.77311" transform="matrix(0.890502 0.454979 0.454979 -0.890502 194.073 93.8208)" fill="#E4E4E4"/>
<path d="M244.612 115.609L249.499 110.925C250.113 110.337 251.032 110.195 251.769 110.62C256.249 113.207 263.153 118.716 263.36 125.031C263.379 125.604 263.083 126.133 262.629 126.482L259.996 128.5C258.596 129.573 256.115 128.384 255.233 126.856C253.264 123.442 248.939 120.762 245.304 119.124C243.929 118.505 243.523 116.652 244.612 115.609Z" fill="white"/>
<path d="M248.585 114.265L253.473 109.582C254.086 108.994 255.006 108.852 255.742 109.277C260.223 111.863 267.126 117.372 267.334 123.688C267.353 124.261 267.057 124.789 266.602 125.138L263.969 127.157C262.569 128.23 260.088 127.041 259.207 125.513C257.237 122.098 252.913 119.419 249.277 117.781C247.902 117.161 247.496 115.309 248.585 114.265Z" stroke="white" stroke-opacity="0.7" stroke-width="2" stroke-linecap="round"/>
<ellipse rx="2.08669" ry="2.41229" transform="matrix(-0.543708 -0.839274 -0.839274 0.543708 255.864 120.275)" fill="#E4E4E4"/>
<g opacity="0.7">
<path d="M168.809 13.6131L171.645 24.1043C171.867 24.9249 171.549 25.7993 170.829 26.2507C164.878 29.9801 153.274 35.0131 145.432 30.7907C144.927 30.519 144.604 30.0092 144.516 29.4428L143.519 23.0264C143.249 21.2835 145.406 19.802 147.158 20.0079C153.27 20.7261 160.644 16.3695 165.422 12.5673C166.602 11.6283 168.415 12.1572 168.809 13.6131Z" fill="white"/>
<path d="M166.612 15.6803L170.316 29.3821C170.538 30.2027 170.22 31.0772 169.5 31.5286C163.349 35.3832 151.159 40.6304 143.325 35.6114" stroke="white" stroke-opacity="0.7" stroke-width="2" stroke-linecap="round"/>
<ellipse rx="2.82943" ry="3.27091" transform="matrix(0.997203 -0.0747407 -0.0747407 -0.997203 156.249 25.1112)" fill="#E4E4E4"/>
</g>
</svg>
