<svg width="400" height="189" viewBox="0 0 400 189" fill="none" xmlns="http://www.w3.org/2000/svg">
<g opacity="0.45">
<path d="M45.9157 155.929L35.4118 158.985C34.5956 159.222 34.0141 159.949 34.0033 160.799C33.9131 167.854 35.659 180.448 43.3856 184.969C43.8803 185.258 44.4836 185.269 45.013 185.049L51.0624 182.541C52.6917 181.865 52.8336 179.253 51.7437 177.867C47.9169 172.997 47.8027 164.372 48.5704 158.278C48.7589 156.781 47.3638 155.508 45.9157 155.929Z" fill="white"/>
<path d="M54.9288 157C53.723 162.803 52.9777 174.032 57.5634 179.867C58.6533 181.253 58.5113 183.865 56.882 184.541L50 187.394" stroke="white" stroke-opacity="0.7" stroke-width="2" stroke-linecap="round"/>
<ellipse cx="42.5987" cy="172.718" rx="2.84237" ry="3.28587" transform="rotate(-117.064 42.5987 172.718)" fill="#E4E4E4"/>
</g>
<path d="M8.63848 36.9213L2.84892 30.8797C2.26074 30.266 2.11862 29.3482 2.53934 28.6095C5.45854 23.484 11.8489 15.3837 19.1751 15.2335C19.7481 15.2218 20.2762 15.5161 20.625 15.971L23.3973 19.5865C24.4705 20.9863 23.2821 23.3981 21.7026 24.1832C17.4042 26.3197 14.0669 31.8004 12.1352 36.2217C11.5314 37.6037 9.68192 38.0101 8.63848 36.9213Z" fill="white"/>
<path d="M5.83143 29.8345L12.6031 36.9008C13.6465 37.9897 15.496 37.5832 16.0998 36.2013C18.0315 31.7799 21.3688 26.2993 25.6672 24.1627C27.2467 23.3776 28.4351 20.9658 27.3618 19.5661L24.0411 15.2352" stroke="white" stroke-opacity="0.7" stroke-width="2" stroke-linecap="round"/>
<ellipse rx="2.37635" ry="2.74714" transform="matrix(-0.839274 0.543708 0.543708 0.839274 13.6313 23.7751)" fill="#E4E4E4"/>
<g opacity="0.25">
<path d="M352.208 39.9982L360.335 38.005C361.161 37.8025 362.027 38.1383 362.456 38.872C365.435 43.9629 369.255 53.5473 365.722 59.967C365.446 60.4692 364.927 60.7793 364.359 60.854L359.841 61.447C358.093 61.6766 356.598 59.4415 356.708 57.6811C357.007 52.8903 353.929 47.2598 351.066 43.3762C350.171 42.1623 350.744 40.3574 352.208 39.9982Z" fill="white"/>
<path d="M365.53 40.0207C368.543 44.6505 373.374 55.3508 369.538 62.3208C369.262 62.8229 368.743 63.1331 368.175 63.2077L358.994 64.413" stroke="white" stroke-opacity="0.7" stroke-width="2" stroke-linecap="round"/>
<ellipse rx="2.37635" ry="2.74714" transform="matrix(-0.0512281 -0.998687 -0.998687 0.0512281 361.095 50.8976)" fill="#E4E4E4"/>
</g>
<path d="M319.072 127.996L313.03 148.784C312.793 149.6 312.072 150.18 311.222 150.204C299.428 150.536 276.837 147.728 269.308 133.9C269.034 133.397 269.02 132.794 269.239 132.265L274.92 118.553C275.595 116.923 278.071 116.837 279.229 118.169C287.209 127.341 305.485 127.148 316.734 125.393C318.224 125.16 319.493 126.548 319.072 127.996Z" fill="white"/>
<path d="M316.631 156.895C302.196 157.668 271.253 154.514 261.407 135.927C261.14 135.423 261.125 134.822 261.342 134.295L270.955 111" stroke="white" stroke-opacity="0.7" stroke-width="2" stroke-linecap="round"/>
<ellipse rx="4.7645" ry="5.50792" transform="matrix(0.890502 0.454979 0.454979 -0.890502 290.302 135.555)" fill="#E4E4E4"/>
<path d="M355.976 156.683L364.686 148.336C365.3 147.748 366.219 147.608 366.962 148.022C373.564 151.701 384.448 160.131 384.456 169.795C384.456 170.368 384.164 170.896 383.71 171.245L377.821 175.759C376.422 176.833 374.115 175.652 373.507 173.997C371.16 167.608 362.883 162.722 356.687 160.149C355.295 159.571 354.887 157.726 355.976 156.683Z" fill="white"/>
<path d="M361.776 154.722L370.486 146.375C371.1 145.787 372.019 145.647 372.762 146.06C379.364 149.74 390.248 158.17 390.256 167.834C390.256 168.407 389.964 168.935 389.51 169.283L383.621 173.798C382.222 174.872 379.915 173.691 379.307 172.035C376.96 165.646 368.683 160.761 362.488 158.188C361.095 157.61 360.687 155.765 361.776 154.722Z" stroke="white" stroke-opacity="0.7" stroke-width="2" stroke-linecap="round"/>
<ellipse rx="3.04611" ry="3.52141" transform="matrix(-0.543708 -0.839274 -0.839274 0.543708 373.506 162.437)" fill="#E4E4E4"/>
<g opacity="0.7">
<path d="M225.415 18.3963L230.125 35.8173C230.347 36.638 230.034 37.508 229.319 37.968C220.727 43.4951 203.024 51.4079 191.327 44.748C190.829 44.4644 190.504 43.9565 190.416 43.3901L188.565 31.477C188.295 29.7341 190.383 28.3485 192.087 28.8044C201.871 31.4225 214.634 23.5652 222.053 17.3822C223.211 16.4167 225.021 16.9405 225.415 18.3963Z" fill="white"/>
<path d="M222.607 22.8896L228.185 43.5212C228.407 44.3418 228.094 45.2119 227.379 45.6718C218.596 51.3222 200.291 59.4656 188.614 51.9847" stroke="white" stroke-opacity="0.7" stroke-width="2" stroke-linecap="round"/>
<ellipse rx="4.13034" ry="4.77482" transform="matrix(0.997203 -0.0747407 -0.0747407 -0.997203 207.479 36.6566)" fill="#E4E4E4"/>
</g>
</svg>
