<svg width="136" height="116" viewBox="0 0 136 116" fill="none" xmlns="http://www.w3.org/2000/svg">
<path d="M0 16.9231C0 8.08654 7.16344 0.923096 16 0.923096H136V108C136 112.418 132.418 116 128 116H0V16.9231Z" fill="#57E07E"/>
<path d="M115.824 12.8792H19.9561C15.5378 12.8792 11.9561 16.4609 11.9561 20.8792V113.011M122.549 12.8792H130.396" stroke="#85F8A6" stroke-width="2" stroke-linecap="round"/>
<path fill-rule="evenodd" clip-rule="evenodd" d="M136 71.9471V108C136 112.418 132.418 116 128 116H55.5359C54.4061 111.959 53.802 107.698 53.802 103.297C53.802 77.2968 74.8791 56.2197 100.879 56.2197C114.838 56.2197 127.379 62.2956 136 71.9471Z" fill="#65EE8C"/>
<rect x="94.1541" y="30.0659" width="13.4505" height="32.1319" rx="6.72527" fill="#65EE8C"/>
<path d="M100.879 62.1979V37.7144" stroke="#85F8A6" stroke-width="2" stroke-linecap="round"/>
<rect x="27.6484" y="116" width="13.4505" height="34.3736" rx="6.72527" transform="rotate(-90 27.6484 116)" fill="#65EE8C"/>
<rect x="39.6045" y="56.7639" width="13.4505" height="35.481" rx="6.72527" transform="rotate(-45 39.6045 56.7639)" fill="#65EE8C"/>
<path d="M68.8539 76.5021L58.2859 65.9341" stroke="#85F8A6" stroke-width="2" stroke-linecap="round"/>
<path d="M59.7803 103.297C59.7803 80.5984 78.1809 62.1978 100.879 62.1978C110.994 62.1978 120.256 65.8519 127.416 71.912" stroke="#85F8A6" stroke-width="2" stroke-linecap="round"/>
<path fill-rule="evenodd" clip-rule="evenodd" d="M80.8219 116C79.7821 113.465 79.2087 110.69 79.2087 107.78C79.2087 95.812 88.9109 86.1099 100.879 86.1099C112.847 86.1099 122.549 95.812 122.549 107.78C122.549 110.69 121.976 113.465 120.936 116H80.8219Z" fill="#43CC6A"/>
<path d="M127.78 107.78C127.78 92.9232 115.736 80.8792 100.879 80.8792C86.0221 80.8792 73.978 92.9232 73.978 107.78" stroke="#85F8A6" stroke-width="2" stroke-linecap="round"/>
<path fill-rule="evenodd" clip-rule="evenodd" d="M107.351 116H94.4071C91.9775 114.084 90.4177 111.114 90.4177 107.78C90.4177 102.002 95.1015 97.3186 100.879 97.3186C106.657 97.3186 111.341 102.002 111.341 107.78C111.341 111.114 109.781 114.084 107.351 116Z" fill="#65EE8C"/>
</svg>
