<svg width="99" height="66" viewBox="0 0 99 66" fill="none" xmlns="http://www.w3.org/2000/svg">
<path d="M90.7156 11.2471C90.7621 10.9176 91.2379 10.9176 91.2844 11.2471L92.1784 17.5773C92.1963 17.7041 92.2959 17.8037 92.4227 17.8216L98.7529 18.7156C99.0824 18.7621 99.0824 19.2379 98.7529 19.2844L92.4227 20.1784C92.2959 20.1963 92.1963 20.2959 92.1784 20.4227L91.2844 26.7529C91.2379 27.0824 90.7621 27.0824 90.7156 26.7529L89.8216 20.4227C89.8037 20.2959 89.7041 20.1963 89.5773 20.1784L83.2471 19.2844C82.9176 19.2379 82.9176 18.7621 83.2471 18.7156L89.5773 17.8216C89.7041 17.8037 89.8037 17.7041 89.8216 17.5773L90.7156 11.2471Z" fill="white" fill-opacity="0.45"/>
<path d="M14.4667 24.4633C14.5539 23.8456 15.4461 23.8456 15.5333 24.4633L17.2095 36.3325C17.243 36.5702 17.4298 36.757 17.6675 36.7905L29.5367 38.4667C30.1544 38.5539 30.1544 39.4461 29.5367 39.5333L17.6675 41.2095C17.4298 41.243 17.243 41.4298 17.2095 41.6675L15.5333 53.5367C15.4461 54.1544 14.5539 54.1544 14.4667 53.5367L12.7905 41.6675C12.757 41.4298 12.5702 41.243 12.3325 41.2095L0.463312 39.5333C-0.154436 39.4461 -0.154438 38.5539 0.463311 38.4667L12.3325 36.7905C12.5702 36.757 12.757 36.5702 12.7905 36.3325L14.4667 24.4633Z" fill="white" fill-opacity="0.15"/>
<path d="M53.7867 0.185325C53.8216 -0.0617745 54.1784 -0.0617751 54.2133 0.185324L54.8838 4.933C54.8972 5.02807 54.9719 5.10278 55.067 5.11621L59.8147 5.78667C60.0618 5.82156 60.0618 6.17844 59.8147 6.21333L55.067 6.88379C54.9719 6.89722 54.8972 6.97193 54.8838 7.067L54.2133 11.8147C54.1784 12.0618 53.8216 12.0618 53.7867 11.8147L53.1162 7.067C53.1028 6.97193 53.0281 6.89722 52.933 6.88379L48.1853 6.21333C47.9382 6.17844 47.9382 5.82156 48.1853 5.78667L52.933 5.11621C53.0281 5.10278 53.1028 5.02807 53.1162 4.933L53.7867 0.185325Z" fill="white"/>
<path d="M80.7867 54.1853C80.8216 53.9382 81.1784 53.9382 81.2133 54.1853L81.8838 58.933C81.8972 59.0281 81.9719 59.1028 82.067 59.1162L86.8147 59.7867C87.0618 59.8216 87.0618 60.1784 86.8147 60.2133L82.067 60.8838C81.9719 60.8972 81.8972 60.9719 81.8838 61.067L81.2133 65.8147C81.1784 66.0618 80.8216 66.0618 80.7867 65.8147L80.1162 61.067C80.1028 60.9719 80.0281 60.8972 79.933 60.8838L75.1853 60.2133C74.9382 60.1784 74.9382 59.8216 75.1853 59.7867L79.933 59.1162C80.0281 59.1028 80.1028 59.0281 80.1162 58.933L80.7867 54.1853Z" fill="white" fill-opacity="0.7"/>
</svg>
