<svg width="184" height="71" viewBox="0 0 184 71" fill="none" xmlns="http://www.w3.org/2000/svg">
<path d="M175.716 11.2471C175.762 10.9176 176.238 10.9176 176.284 11.2471L177.178 17.5773C177.196 17.7041 177.296 17.8037 177.423 17.8216L183.753 18.7156C184.082 18.7621 184.082 19.2379 183.753 19.2844L177.423 20.1784C177.296 20.1963 177.196 20.2959 177.178 20.4227L176.284 26.7529C176.238 27.0824 175.762 27.0824 175.716 26.7529L174.822 20.4227C174.804 20.2959 174.704 20.1963 174.577 20.1784L168.247 19.2844C167.918 19.2379 167.918 18.7621 168.247 18.7156L174.577 17.8216C174.704 17.8037 174.804 17.7041 174.822 17.5773L175.716 11.2471Z" fill="white" fill-opacity="0.45"/>
<path d="M99.4667 24.4633C99.5539 23.8456 100.446 23.8456 100.533 24.4633L102.209 36.3325C102.243 36.5702 102.43 36.757 102.668 36.7905L114.537 38.4667C115.154 38.5539 115.154 39.4461 114.537 39.5333L102.668 41.2095C102.43 41.243 102.243 41.4298 102.209 41.6675L100.533 53.5367C100.446 54.1544 99.5539 54.1544 99.4667 53.5367L97.7905 41.6675C97.757 41.4298 97.5702 41.243 97.3325 41.2095L85.4633 39.5333C84.8456 39.4461 84.8456 38.5539 85.4633 38.4667L97.3325 36.7905C97.5702 36.757 97.757 36.5702 97.7905 36.3325L99.4667 24.4633Z" fill="white" fill-opacity="0.15"/>
<path d="M138.787 0.185325C138.822 -0.0617745 139.178 -0.0617751 139.213 0.185324L139.884 4.933C139.897 5.02807 139.972 5.10278 140.067 5.11621L144.815 5.78667C145.062 5.82156 145.062 6.17844 144.815 6.21333L140.067 6.88379C139.972 6.89722 139.897 6.97193 139.884 7.067L139.213 11.8147C139.178 12.0618 138.822 12.0618 138.787 11.8147L138.116 7.067C138.103 6.97193 138.028 6.89722 137.933 6.88379L133.185 6.21333C132.938 6.17844 132.938 5.82156 133.185 5.78667L137.933 5.11621C138.028 5.10278 138.103 5.02807 138.116 4.933L138.787 0.185325Z" fill="white"/>
<path d="M165.787 54.1853C165.822 53.9382 166.178 53.9382 166.213 54.1853L166.884 58.933C166.897 59.0281 166.972 59.1028 167.067 59.1162L171.815 59.7867C172.062 59.8216 172.062 60.1784 171.815 60.2133L167.067 60.8838C166.972 60.8972 166.897 60.9719 166.884 61.067L166.213 65.8147C166.178 66.0618 165.822 66.0618 165.787 65.8147L165.116 61.067C165.103 60.9719 165.028 60.8972 164.933 60.8838L160.185 60.2133C159.938 60.1784 159.938 59.8216 160.185 59.7867L164.933 59.1162C165.028 59.1028 165.103 59.0281 165.116 58.933L165.787 54.1853Z" fill="white" fill-opacity="0.7"/>
<path d="M21.563 20.2483C21.7981 18.5839 24.2019 18.5839 24.437 20.2483L26.7981 36.9679C26.8885 37.6082 27.3918 38.1115 28.0321 38.2019L44.7517 40.563C46.4161 40.7981 46.4161 43.2019 44.7517 43.437L28.0321 45.7981C27.3918 45.8885 26.8885 46.3918 26.7981 47.0321L24.437 63.7517C24.2019 65.4161 21.7981 65.4161 21.563 63.7517L19.2019 47.0321C19.1115 46.3918 18.6082 45.8885 17.9679 45.7981L1.24831 43.437C-0.416104 43.2019 -0.416103 40.7981 1.24831 40.563L17.9679 38.2019C18.6082 38.1115 19.1115 37.6082 19.2019 36.9679L21.563 20.2483Z" fill="white"/>
<path d="M30.563 25.2483C30.7981 23.5839 33.2019 23.5839 33.437 25.2483L35.7981 41.9679C35.8885 42.6082 36.3918 43.1115 37.0321 43.2019L53.7517 45.563C55.4161 45.7981 55.4161 48.2019 53.7517 48.437L37.0321 50.7981C36.3918 50.8885 35.8885 51.3918 35.7981 52.0321L33.437 68.7517C33.2019 70.4161 30.7981 70.4161 30.563 68.7517L28.2019 52.0321C28.1115 51.3918 27.6082 50.8885 26.9679 50.7981L10.2483 48.437C8.5839 48.2019 8.5839 45.7981 10.2483 45.563L26.9679 43.2019C27.6082 43.1115 28.1115 42.6082 28.2019 41.9679L30.563 25.2483Z" stroke="white" stroke-opacity="0.45" stroke-width="2" stroke-linecap="round"/>
</svg>
