<svg width="20" height="20" viewBox="0 0 20 20" fill="none" xmlns="http://www.w3.org/2000/svg">
<path fill-rule="evenodd" clip-rule="evenodd" d="M0.435974 2.18404C0 3.03969 0 4.15979 0 6.4V12.85C0 15.0902 0 16.2103 0.435974 17.066C0.819467 17.8186 1.43139 18.4305 2.18404 18.814C3.03969 19.25 4.15979 19.25 6.4 19.25H12.85C15.0902 19.25 16.2103 19.25 17.066 18.814C17.8186 18.4305 18.4305 17.8186 18.814 17.066C19.25 16.2103 19.25 15.0902 19.25 12.85V6.4C19.25 4.15979 19.25 3.03969 18.814 2.18404C18.4305 1.43139 17.8186 0.819467 17.066 0.435974C16.2103 0 15.0902 0 12.85 0H6.4C4.15979 0 3.03969 0 2.18404 0.435974C1.43139 0.819467 0.819467 1.43139 0.435974 2.18404ZM13.0137 9.84806C12.9548 9.99796 12.9789 10.1459 13.0867 10.292C13.224 10.4462 13.376 10.603 13.5296 10.7615C13.9843 11.2306 14.4533 11.7144 14.5984 12.1883C14.6496 12.484 14.406 12.594 14.1587 12.594L12.8266 12.6159C12.7432 12.6341 12.6461 12.625 12.5353 12.5885C12.1513 12.4622 11.9006 12.1593 11.6477 11.8539C11.4854 11.658 11.3222 11.4609 11.1224 11.3088C11.0229 11.233 10.9028 11.1813 10.7869 11.2429C10.5252 11.3805 10.5185 11.6451 10.5118 11.9131C10.5067 12.1156 10.5016 12.3201 10.3862 12.4731C10.2339 12.6422 9.93853 12.6207 9.69752 12.6032C9.62994 12.5983 9.56664 12.5937 9.51196 12.5937C7.01949 12.6832 5.3944 9.11015 4.65179 7.26679C4.56296 7.01772 4.70303 6.89409 4.95365 6.89409L6.37943 6.88318C6.53183 6.90979 6.67646 6.99994 6.73327 7.15718C6.94676 7.6794 7.7239 9.5632 8.20584 9.5632C8.68778 9.5632 8.56719 7.64368 8.40356 7.28333C8.31682 7.15912 8.16945 7.08055 7.96127 7.04771C7.91618 7.04049 7.92489 6.99661 7.98735 6.9162C8.20584 6.63492 9.54494 6.55175 10.1313 6.69148C10.2472 6.72212 10.3605 6.77654 10.4123 6.89703C10.5295 7.1719 10.5026 7.63468 10.4753 8.10322C10.4416 8.68385 10.4073 9.27332 10.6463 9.52494C10.7385 9.5491 10.789 9.55188 10.87 9.48657C11.4857 8.86574 11.9058 7.89973 12.2491 7.10815C12.2932 6.99179 12.3637 6.93459 12.4727 6.90806C12.6623 6.90806 12.8675 6.90891 13.0791 6.90979C13.5226 6.91162 13.994 6.91357 14.4086 6.90806C15.0498 6.90806 14.1219 8.22348 13.4963 9.11013C13.2526 9.45557 13.0549 9.73593 13.0137 9.84806Z" fill="white"/>
</svg>
